<?xml version="1.0" encoding="UTF-8" standalone="no"?>
<svg
   xmlns:dc="http://purl.org/dc/elements/1.1/"
   xmlns:cc="http://creativecommons.org/ns#"
   xmlns:rdf="http://www.w3.org/1999/02/22-rdf-syntax-ns#"
   xmlns:svg="http://www.w3.org/2000/svg"
   xmlns="http://www.w3.org/2000/svg"
   xmlns:sodipodi="http://sodipodi.sourceforge.net/DTD/sodipodi-0.dtd"
   xmlns:inkscape="http://www.inkscape.org/namespaces/inkscape"
   preserveAspectRatio="xMinYMin"
   viewBox="0 0 377.89999 420.45001"
   style="overflow:hidden"
   width="377.89999"
   version="1.1"
   height="420.45001"
   id="svg2"
   inkscape:version="0.48.4 r9939"
   sodipodi:docname="RichardRodgersTheatreNewYork_--Theatre.svg">
  <metadata
     id="metadata289">
    <rdf:RDF>
      <cc:Work
         rdf:about="">
        <dc:format>image/svg+xml</dc:format>
        <dc:type
           rdf:resource="http://purl.org/dc/dcmitype/StillImage" />
      </cc:Work>
    </rdf:RDF>
  </metadata>
  <sodipodi:namedview
     pagecolor="#ffffff"
     bordercolor="#666666"
     borderopacity="1"
     objecttolerance="10"
     gridtolerance="10"
     guidetolerance="10"
     inkscape:pageopacity="0"
     inkscape:pageshadow="2"
     inkscape:window-width="1920"
     inkscape:window-height="1018"
     id="namedview287"
     showgrid="false"
     inkscape:zoom="2.6700352"
     inkscape:cx="225.9148"
     inkscape:cy="134.47995"
     inkscape:window-x="1912"
     inkscape:window-y="-8"
     inkscape:window-maximized="1"
     inkscape:current-layer="svg2"
     fit-margin-top="0"
     fit-margin-left="0"
     fit-margin-right="0"
     fit-margin-bottom="0" />
  <desc
     id="desc4">Created with Rapha??l 2.1.0</desc>
  <defs
     id="defs6" />
  <path
     d="m 309.85,10.35 58.2,0 0,62.25 -66.25,0 0,-22.85 -48.5,0 0,-32.2 56.55,0 0,-7.2 m 31.95,133.35 26.25,0 0,7.8 0,7.8 0,8.3 0,7.8 -26.25,0 0,-7.8 0,-8.3 0,-7.8 0,-7.8 m 26.25,-7.25 -114.75,0 0,-48.8 114.75,0 0,48.8 m -34.3,212.6 -15.3,0 0,7.5 -8.85,0 0,6.75 -15.8,0 0,9.35 -15.85,0 0,7.3 -24.65,0 0,-79.45 89.3,0 0,23.6 8.1,0 0,10.4 -8.1,0 0,6 -8.85,0 0,8.55 m 24.65,-150.85 9.65,0 0,86.7 -114.75,0 0,-93.95 56.3,0 0,-8.85 48.8,0 0,16.1 m -154,-172.85 0,-7.8 40,0 0,55.05 -113.1,0 0,-55.05 40.8,0 0,7.8 32.3,0 m -82.65,24.4 -48.5,0 0,22.85 -63.7,0 0,-62.25 55.65,0 0,7.2 56.55,0 0,32.2 m 9.4,37.9 113.35,0 0,48.8 -113.35,0 0,-48.8 m -8.85,48.8 -113.75,0 0,-48.8 113.75,0 0,48.8 m -107,15.05 0,-7.8 26.25,0 0,7.8 0,7.8 0,8.3 0,7.8 -26.25,0 0,-7.8 0,-8.3 0,-7.8 m 55.35,39.45 56.3,0 0,93.95 -114.8,0 0,-86.7 9.7,0 0,-16.1 48.8,0 0,8.85 m 157.5,7.25 16.1,0 0,191.1 -106.6,0 0,-191.1 8.3,0 0,-7.25 82.2,0 0,7.25 m -198.6,125.9 8.1,0 0,-23.6 89.3,0 0,79.45 -24.65,0 0,-7.3 -15.85,0 0,-9.35 -15.8,0 0,-6.75 -8.85,0 0,-7.5 -15.3,0 0,-8.55 -8.85,0 0,-6 -8.1,0 0,-10.4"
     style="fill:#eeeeee;fill-opacity:1;stroke:#000000"
     id="path8"
     inkscape:connector-curvature="0" />
  <path
     d="m 368.05,136.45 0,-48.8 -114.75,0 0,48.8 114.75,0 m -26.25,7.25 0,7.8 0,7.8 0,8.3 0,7.8 26.25,0 0,-7.8 0,-8.3 0,-7.8 0,-7.8 -26.25,0 m -31.95,-133.35 0,7.2 -56.55,0 0,32.2 48.5,0 0,22.85 66.25,0 0,-62.25 -58.2,0 m 48.55,187.85 0,-16.1 -48.8,0 0,8.85 -56.3,0 0,93.95 114.75,0 0,-86.7 -9.65,0 m -24.65,150.85 0,-8.55 8.85,0 0,-6 8.1,0 0,-10.4 -8.1,0 0,-23.6 -89.3,0 0,79.45 24.65,0 0,-7.3 15.85,0 0,-9.35 15.8,0 0,-6.75 8.85,0 0,-7.5 15.3,0 m 43.65,-56.25 -19.7,0 0,49.05 -80.3,51.15 -16.75,0 0,26.95 -138.6,0 0,-26.95 -23.35,0 -77.9,-53.15 0,-47.05 -20.3,0 0,-292.3 376.9,0 0,292.3 m -173,-267.45 -32.3,0 0,-7.8 -40.8,0 0,55.05 113.1,0 0,-55.05 -40,0 0,7.8 m -82.1,111.1 0,-48.8 -113.75,0 0,48.8 113.75,0 m 8.85,-48.8 0,48.8 113.35,0 0,-48.8 -113.35,0 m -9.4,-37.9 0,-32.2 -56.55,0 0,-7.2 -55.65,0 0,62.25 63.7,0 0,-22.85 48.5,0 M 15.3,151.5 l 0,7.8 0,8.3 0,7.8 26.25,0 0,-7.8 0,-8.3 0,-7.8 0,-7.8 -26.25,0 0,7.8 m 55.35,39.45 0,-8.85 -48.8,0 0,16.1 -9.7,0 0,86.7 114.8,0 0,-93.95 -56.3,0 m -41.1,133.15 0,10.4 8.1,0 0,6 8.85,0 0,8.55 15.3,0 0,7.5 8.85,0 0,6.75 15.8,0 0,9.35 15.85,0 0,7.3 24.65,0 0,-79.45 -89.3,0 0,23.6 -8.1,0 m 198.6,-125.9 0,-7.25 -82.2,0 0,7.25 -8.3,0 0,191.1 106.6,0 0,-191.1 -16.1,0"
     style="fill:#cccccc;fill-opacity:1;stroke:#000000"
     id="path10"
     inkscape:connector-curvature="0" />
  <path
     d="m 377.4,292.8 0,-292.3 -376.9,0 0,292.3 20.3,0 0,47.05 77.9,53.15 23.35,0 0,26.95 138.6,0 0,-26.95 16.75,0 80.3,-51.15 0,-49.05 19.7,0"
     style="fill:#000000;fill-opacity:0;stroke:#666666"
     id="path12"
     inkscape:connector-curvature="0" />
  <path
     d="m 253.3,412.65 -124.6,0 0,-16.1 124.6,0 0,16.1"
     style="fill:#000000;fill-opacity:1;stroke:#000000"
     id="path14"
     inkscape:connector-curvature="0" />
  <path
     id="996"
     d="m 368.05,159.4 0,8.3 0,7.8 -26.25,0 0,-7.8 0,-8.3 0,-7.8 0,-7.8 26.25,0 0,7.8 0,7.8 m -352.7,-0.15 0,-7.8 0,-7.8 26.25,0 0,7.8 0,7.8 0,8.3 0,7.8 -26.25,0 0,-7.8 0,-8.3"
     style="fill:#ffffff;fill-opacity:1;stroke:#000000"
     inkscape:connector-curvature="0" />
  <path
     d="m 301.8,49.75 -48.5,0 0,-32.2 56.55,0 0,-7.2 58.2,0 0,62.25 -66.25,0 0,-22.85 m -97.4,-24.4 -32.3,0 0,-7.8 -40.8,0 0,55.05 113.1,0 0,-55.05 -40,0 0,7.8 m 23.75,165.6 -82.2,0 0,7.25 -8.3,0 0,191.1 106.6,0 0,-191.1 -16.1,0 0,-7.25 m 113.65,-39.45 0,-7.8 26.25,0 0,7.8 0,7.8 0,8.3 0,7.8 -26.25,0 0,-7.8 0,-8.3 0,-7.8 26.25,0 m -58.45,39.45 -56.3,0 0,93.95 114.75,0 0,-86.7 -9.65,0 0,-16.1 -48.8,0 0,8.85 m -65.1,-54.5 -113.35,0 0,-48.8 113.35,0 0,48.8 m 8.8,-48.8 114.75,0 0,48.8 -114.75,0 0,-48.8 m 88.5,71.65 26.25,0 m -26.25,8.3 26.25,0 m -17.35,156.5 -8.1,0 0,-23.6 -89.3,0 0,79.45 24.65,0 0,-7.3 15.85,0 0,-9.35 15.8,0 0,-6.75 8.85,0 0,-7.5 15.3,0 0,-8.55 8.85,0 0,-6 8.1,0 0,-10.4 M 15.3,151.5 l 26.25,0 0,-7.8 -26.25,0 0,7.8 0,7.8 26.25,0 0,-7.8 m -26.25,23.9 26.25,0 0,-7.8 -26.25,0 0,7.8 m 6.55,22.8 0,-16.1 48.8,0 0,8.85 56.3,0 0,93.95 -114.8,0 0,-86.7 9.7,0 m -6.55,-38.9 0,8.3 m -6.75,-79.95 113.75,0 0,48.8 -113.75,0 0,-48.8 m 113.2,-37.9 -48.5,0 0,22.85 -63.7,0 0,-62.25 55.65,0 0,7.2 56.55,0 0,32.2 m -80.2,117.85 0,-8.3 m 20.25,197.25 8.85,0 0,6.75 15.8,0 0,9.35 15.85,0 0,7.3 24.65,0 0,-79.45 -89.3,0 0,23.6 -8.1,0 0,10.4 8.1,0 0,6 8.85,0 0,8.55 15.3,0 0,7.5"
     style="fill:#000000;fill-opacity:0;stroke:#000000"
     id="path16"
     inkscape:connector-curvature="0" />
  <path
     id="200"
     d="m 204.4,25.35 0,-7.8 40,0 0,55.05 -113.1,0 0,-55.05 40.8,0 0,7.8 32.3,0"
     style="fill:#ffffff;fill-opacity:1;stroke:#000000"
     inkscape:connector-curvature="0" />
  <path
     id="100"
     d="m 309.8,10.1 58.2,0 0,62.25 -66.25,0 0,-22.85 -48.5,0 0,-32.2 56.55,0 0,-7.2 m -236.55,62.5 -63.7,0 0,-62.25 55.65,0 0,7.2 56.55,0 0,32.2 -48.5,0 0,22.85"
     style="fill:#ffffff;fill-opacity:1;stroke:#000000"
     inkscape:connector-curvature="0" />
  <path
     id="2"
     d="m 228.15,198.2 16.1,0 0,191.1 -106.6,0 0,-191.1 8.3,0 0,-7.25 82.2,0 0,7.25"
     style="fill:#ffffff;fill-opacity:1;stroke:#000000"
     inkscape:connector-curvature="0" />
  <path
     id="10"
     d="m 368.05,87.65 0,48.8 -114.75,0 0,-48.8 114.75,0 m -245.75,48.8 -113.75,0 0,-48.8 113.75,0 0,48.8"
     style="fill:#ffffff;fill-opacity:1;stroke:#000000"
     inkscape:connector-curvature="0" />
  <path
     id="1"
     d="m 70.65,190.95 56.3,0 0,93.95 -114.8,0 0,-86.7 9.7,0 0,-16.1 48.8,0 0,8.85 m 31.65,181.75 -15.85,0 0,-9.35 -15.8,0 0,-6.75 -8.85,0 0,-7.5 -15.3,0 0,-8.55 -8.85,0 0,-6 -8.1,0 0,-10.4 8.1,0 0,-23.6 89.3,0 0,79.45 -24.65,0 0,-7.3 m 240.2,-48.5 8.1,0 0,10.4 -8.1,0 0,6 -8.85,0 0,8.55 -15.3,0 0,7.5 -8.85,0 0,6.75 -15.8,0 0,9.35 -15.85,0 0,7.3 -24.65,0 0,-79.45 89.3,0 0,23.6 M 253.2,191 l 56.3,0 0,-8.85 48.8,0 0,16.1 9.65,0 0,86.7 -114.75,0 0,-93.95"
     style="fill:#ffffff;fill-opacity:1;stroke:#000000"
     inkscape:connector-curvature="0" />
  <path
     id="20"
     d="m 244.5,87.65 0,48.8 -113.35,0 0,-48.8 113.35,0"
     style="fill:#ffffff;fill-opacity:1;stroke:#000000"
     inkscape:connector-curvature="0" />
  <path
     d="m 189.9,319 0,48 m 0,-162.75 0,67 m -37.35,-210 0,-32.25"
     style="fill:#000000;fill-opacity:0;stroke:#000000"
     id="path25"
     inkscape:connector-curvature="0" />
  <text
     font-size="12px"
     font-weight="bold"
     font="10px &quot;Arial&quot;"
     y="403.95602"
     x="168.40512"
     style="font-size:12.46080017px;font-weight:bold;text-anchor:start;fill:#ffffff;stroke:none;font-family:Arial"
     id="text27">
    <tspan
       dy="4.5"
       id="tspan29">STAGE</tspan>
  </text>
  <text
     font-size="14px"
     font-weight="bold"
     font="10px &quot;Arial&quot;"
     y="278.74539"
     x="143.83058"
     style="font-size:14.53759956px;font-weight:bold;text-anchor:start;fill:#000000;stroke:none;font-family:Arial"
     id="text31">
    <tspan
       dy="4.9999995"
       id="tspan33">ORCHESTRA</tspan>
  </text>
  <text
     font-size="14px"
     font-weight="bold"
     font="10px &quot;Arial&quot;"
     y="293.28259"
     x="164.24924"
     style="font-size:14.53759956px;font-weight:bold;text-anchor:start;fill:#000000;stroke:none;font-family:Arial"
     id="text35">
    <tspan
       dy="4.9999995"
       id="tspan37">FLOOR</tspan>
  </text>
  <text
     font-size="14px"
     font-weight="bold"
     font="10px &quot;Arial&quot;"
     y="307.81989"
     x="159.96887"
     style="font-size:14.53759956px;font-weight:bold;text-anchor:start;fill:#000000;stroke:none;font-family:Arial"
     id="text39">
    <tspan
       dy="4.9999995"
       id="tspan41">CENTER</tspan>
  </text>
  <text
     font-size="12px"
     font-weight="bold"
     font="10px &quot;Arial&quot;"
     y="105.75606"
     x="168.50095"
     style="font-size:12.46080017px;font-weight:bold;text-anchor:start;fill:#000000;stroke:none;font-family:Arial"
     id="text43">
    <tspan
       dy="4.5"
       id="tspan45">FMEZZ</tspan>
  </text>
  <text
     font-size="12px"
     font-weight="bold"
     font="10px &quot;Arial&quot;"
     y="118.21655"
     x="163.72775"
     style="font-size:12.46080017px;font-weight:bold;text-anchor:start;fill:#000000;stroke:none;font-family:Arial"
     id="text47">
    <tspan
       dy="4.5"
       id="tspan49">CENTER</tspan>
  </text>
  <text
     font-size="12px"
     font-weight="bold"
     font="10px &quot;Arial&quot;"
     y="41.107002"
     x="167.81036"
     style="font-size:12.46080017px;font-weight:bold;text-anchor:start;fill:#000000;stroke:none;font-family:Arial"
     id="text51">
    <tspan
       dy="4.5"
       id="tspan53">RMEZZ</tspan>
  </text>
  <text
     font-size="12px"
     font-weight="bold"
     font="10px &quot;Arial&quot;"
     y="53.567497"
     x="163.72775"
     style="font-size:12.46080017px;font-weight:bold;text-anchor:start;fill:#000000;stroke:none;font-family:Arial"
     id="text55">
    <tspan
       dy="4.5"
       id="tspan57">CENTER</tspan>
  </text>
  <text
     font-size="8px"
     font-weight="Bold"
     font="10px &quot;Arial&quot;"
     y="373.48029"
     x="187.41296"
     style="font-size:8.30720043px;text-anchor:start;fill:#000000;stroke:none;font-family:Arial"
     id="text59">
    <tspan
       dy="3"
       id="tspan61">A</tspan>
  </text>
  <text
     font-size="8px"
     font-weight="Bold"
     font="10px &quot;Arial&quot;"
     y="381.78729"
     x="184.13956"
     style="font-size:8.30720043px;text-anchor:start;fill:#000000;stroke:none;font-family:Arial"
     id="text63">
    <tspan
       dy="3"
       id="tspan65">CC</tspan>
  </text>
  <text
     font-size="8px"
     font-weight="Bold"
     font="10px &quot;Arial&quot;"
     y="197.1803"
     x="187.42107"
     style="font-size:8.30720043px;text-anchor:start;fill:#000000;stroke:none;font-family:Arial"
     id="text67">
    <tspan
       dy="3"
       id="tspan69">X</tspan>
  </text>
  <text
     font-size="8px"
     font-weight="Bold"
     font="10px &quot;Arial&quot;"
     y="130.5303"
     x="186.85548"
     style="font-size:8.30720043px;text-anchor:start;fill:#000000;stroke:none;font-family:Arial"
     id="text71">
    <tspan
       dy="3"
       id="tspan73">A</tspan>
  </text>
  <text
     font-size="8px"
     font-weight="Bold"
     font="10px &quot;Arial&quot;"
     y="94.130295"
     x="186.93863"
     style="font-size:8.30720043px;text-anchor:start;fill:#000000;stroke:none;font-family:Arial"
     id="text75">
    <tspan
       dy="3"
       id="tspan77">F</tspan>
  </text>
  <text
     font-size="8px"
     font-weight="Bold"
     font="10px &quot;Arial&quot;"
     y="66.380302"
     x="150.32774"
     style="font-size:8.30720043px;text-anchor:start;fill:#000000;stroke:none;font-family:Arial"
     id="text79">
    <tspan
       dy="3"
       id="tspan81">A</tspan>
  </text>
  <text
     font-size="8px"
     font-weight="Bold"
     font="10px &quot;Arial&quot;"
     y="23.330299"
     x="150.32774"
     style="font-size:8.30720043px;text-anchor:start;fill:#000000;stroke:none;font-family:Arial"
     id="text83">
    <tspan
       dy="3"
       id="tspan85">H</tspan>
  </text>
  <text
     font-size="6px"
     font-weight="Bold"
     font="10px &quot;Arial&quot;"
     y="279.74191"
     x="14.527745"
     style="font-size:6.23040009px;text-anchor:start;fill:#000000;stroke:none;font-family:Arial"
     id="text87">
    <tspan
       dy="2.4261181"
       id="tspan89">28</tspan>
  </text>
  <text
     font-size="6px"
     font-weight="Bold"
     font="10px &quot;Arial&quot;"
     y="279.74191"
     x="119.97775"
     style="font-size:6.23040009px;text-anchor:start;fill:#000000;stroke:none;font-family:Arial"
     id="text91">
    <tspan
       dy="2.4261181"
       id="tspan93">2</tspan>
  </text>
  <text
     font-size="6px"
     font-weight="Bold"
     font="10px &quot;Arial&quot;"
     y="329.2919"
     x="32.127743"
     style="font-size:6.23040009px;text-anchor:start;fill:#000000;stroke:none;font-family:Arial"
     id="text95">
    <tspan
       dy="2.4261181"
       id="tspan97">24</tspan>
  </text>
  <text
     font-size="6px"
     font-weight="Bold"
     font="10px &quot;Arial&quot;"
     y="329.2919"
     x="119.97775"
     style="font-size:6.23040009px;text-anchor:start;fill:#000000;stroke:none;font-family:Arial"
     id="text99">
    <tspan
       dy="2.4261181"
       id="tspan101">2</tspan>
  </text>
  <text
     font-size="6px"
     font-weight="Bold"
     font="10px &quot;Arial&quot;"
     y="204.44189"
     x="140.00227"
     style="font-size:6.23040009px;text-anchor:start;fill:#000000;stroke:none;font-family:Arial"
     id="text103">
    <tspan
       dy="2.4261181"
       id="tspan105">101</tspan>
  </text>
  <text
     font-size="6px"
     font-weight="Bold"
     font="10px &quot;Arial&quot;"
     y="204.44189"
     x="230.70424"
     style="font-size:6.23040009px;text-anchor:start;fill:#000000;stroke:none;font-family:Arial"
     id="text107">
    <tspan
       dy="2.4261181"
       id="tspan109">113</tspan>
  </text>
  <text
     font-size="6px"
     font-weight="Bold"
     font="10px &quot;Arial&quot;"
     y="279.74191"
     x="255.12779"
     style="font-size:6.23040009px;text-anchor:start;fill:#000000;stroke:none;font-family:Arial"
     id="text111">
    <tspan
       dy="2.4261181"
       id="tspan113">1</tspan>
  </text>
  <text
     font-size="6px"
     font-weight="Bold"
     font="10px &quot;Arial&quot;"
     y="279.74191"
     x="358.12875"
     style="font-size:6.23040009px;text-anchor:start;fill:#000000;stroke:none;font-family:Arial"
     id="text115">
    <tspan
       dy="2.4261181"
       id="tspan117">27</tspan>
  </text>
  <text
     font-size="6px"
     font-weight="Bold"
     font="10px &quot;Arial&quot;"
     y="329.5419"
     x="255.12779"
     style="font-size:6.23040009px;text-anchor:start;fill:#000000;stroke:none;font-family:Arial"
     id="text119">
    <tspan
       dy="2.4261181"
       id="tspan121">1</tspan>
  </text>
  <text
     font-size="6px"
     font-weight="Bold"
     font="10px &quot;Arial&quot;"
     y="329.5419"
     x="342.27777"
     style="font-size:6.23040009px;text-anchor:start;fill:#000000;stroke:none;font-family:Arial"
     id="text123">
    <tspan
       dy="2.4261181"
       id="tspan125">23</tspan>
  </text>
  <text
     font-size="6px"
     font-weight="bold"
     font="10px &quot;Arial&quot;"
     y="171.20673"
     x="345.70325"
     style="font-size:6.23040009px;font-weight:bold;text-anchor:start;fill:#000000;stroke:none;font-family:Arial"
     id="text127">
    <tspan
       dy="2.4261181"
       id="tspan129">BOX A</tspan>
  </text>
  <text
     font-size="6px"
     font-weight="bold"
     font="10px &quot;Arial&quot;"
     y="163.17157"
     x="345.55325"
     style="font-size:6.23040009px;font-weight:bold;text-anchor:start;fill:#000000;stroke:none;font-family:Arial"
     id="text131">
    <tspan
       dy="2.4261181"
       id="tspan133">BOX B</tspan>
  </text>
  <text
     font-size="6px"
     font-weight="bold"
     font="10px &quot;Arial&quot;"
     y="155.12157"
     x="345.75327"
     style="font-size:6.23040009px;font-weight:bold;text-anchor:start;fill:#000000;stroke:none;font-family:Arial"
     id="text135">
    <tspan
       dy="2.4261181"
       id="tspan137">BOX E</tspan>
  </text>
  <text
     font-size="6px"
     font-weight="bold"
     font="10px &quot;Arial&quot;"
     y="147.60674"
     x="345.90326"
     style="font-size:6.23040009px;font-weight:bold;text-anchor:start;fill:#000000;stroke:none;font-family:Arial"
     id="text139">
    <tspan
       dy="2.4261181"
       id="tspan141">BOX F</tspan>
  </text>
  <text
     font-size="6px"
     font-weight="bold"
     font="10px &quot;Arial&quot;"
     y="171.20673"
     x="19.077747"
     style="font-size:6.23040009px;font-weight:bold;text-anchor:start;fill:#000000;stroke:none;font-family:Arial"
     id="text143">
    <tspan
       dy="2.4261181"
       id="tspan145">BOX C</tspan>
  </text>
  <text
     font-size="6px"
     font-weight="bold"
     font="10px &quot;Arial&quot;"
     y="163.17157"
     x="19.077747"
     style="font-size:6.23040009px;font-weight:bold;text-anchor:start;fill:#000000;stroke:none;font-family:Arial"
     id="text147">
    <tspan
       dy="2.4261181"
       id="tspan149">BOX D</tspan>
  </text>
  <text
     font-size="6px"
     font-weight="bold"
     font="10px &quot;Arial&quot;"
     y="155.12157"
     x="18.927746"
     style="font-size:6.23040009px;font-weight:bold;text-anchor:start;fill:#000000;stroke:none;font-family:Arial"
     id="text151">
    <tspan
       dy="2.4261181"
       id="tspan153">BOX G</tspan>
  </text>
  <text
     font-size="6px"
     font-weight="bold"
     font="10px &quot;Arial&quot;"
     y="147.3419"
     x="19.077747"
     style="font-size:6.23040009px;font-weight:bold;text-anchor:start;fill:#000000;stroke:none;font-family:Arial"
     id="text155">
    <tspan
       dy="2.4261181"
       id="tspan157">BOX H</tspan>
  </text>
  <text
     font-size="14px"
     font-weight="bold"
     font="10px &quot;Arial&quot;"
     y="221.9454"
     x="23.555111"
     style="font-size:14.53759956px;font-weight:bold;text-anchor:start;fill:#000000;stroke:none;font-family:Arial"
     id="text159">
    <tspan
       dy="4.9999995"
       id="tspan161">ORCHESTRA</tspan>
  </text>
  <text
     font-size="14px"
     font-weight="bold"
     font="10px &quot;Arial&quot;"
     y="236.4826"
     x="43.973782"
     style="font-size:14.53759956px;font-weight:bold;text-anchor:start;fill:#000000;stroke:none;font-family:Arial"
     id="text163">
    <tspan
       dy="4.9999995"
       id="tspan165">FLOOR</tspan>
  </text>
  <text
     font-size="14px"
     font-weight="bold"
     font="10px &quot;Arial&quot;"
     y="251.0199"
     x="46.912533"
     style="font-size:14.53759956px;font-weight:bold;text-anchor:start;fill:#000000;stroke:none;font-family:Arial"
     id="text167">
    <tspan
       dy="4.9999995"
       id="tspan169">RIGHT</tspan>
  </text>
  <text
     font-size="12px"
     font-weight="bold"
     font="10px &quot;Arial&quot;"
     y="105.75606"
     x="43.149715"
     style="font-size:12.46080017px;font-weight:bold;text-anchor:start;fill:#000000;stroke:none;font-family:Arial"
     id="text171">
    <tspan
       dy="4.5"
       id="tspan173">FMEZZ</tspan>
  </text>
  <text
     font-size="12px"
     font-weight="bold"
     font="10px &quot;Arial&quot;"
     y="118.21655"
     x="44.564327"
     style="font-size:12.46080017px;font-weight:bold;text-anchor:start;fill:#000000;stroke:none;font-family:Arial"
     id="text175">
    <tspan
       dy="4.5"
       id="tspan177">RIGHT</tspan>
  </text>
  <text
     font-size="12px"
     font-weight="bold"
     font="10px &quot;Arial&quot;"
     y="27.306053"
     x="42.459126"
     style="font-size:12.46080017px;font-weight:bold;text-anchor:start;fill:#000000;stroke:none;font-family:Arial"
     id="text179">
    <tspan
       dy="4.5"
       id="tspan181">RMEZZ</tspan>
  </text>
  <text
     font-size="12px"
     font-weight="bold"
     font="10px &quot;Arial&quot;"
     y="39.766556"
     x="44.564327"
     style="font-size:12.46080017px;font-weight:bold;text-anchor:start;fill:#000000;stroke:none;font-family:Arial"
     id="text183">
    <tspan
       dy="4.5"
       id="tspan185">RIGHT</tspan>
  </text>
  <text
     font-size="14px"
     font-weight="bold"
     font="10px &quot;Arial&quot;"
     y="221.9454"
     x="266.12973"
     style="font-size:14.53759956px;font-weight:bold;text-anchor:start;fill:#000000;stroke:none;font-family:Arial"
     id="text187">
    <tspan
       dy="4.9999995"
       id="tspan189">ORCHESTRA</tspan>
  </text>
  <text
     font-size="14px"
     font-weight="bold"
     font="10px &quot;Arial&quot;"
     y="236.4826"
     x="286.54837"
     style="font-size:14.53759956px;font-weight:bold;text-anchor:start;fill:#000000;stroke:none;font-family:Arial"
     id="text191">
    <tspan
       dy="4.9999995"
       id="tspan193">FLOOR</tspan>
  </text>
  <text
     font-size="14px"
     font-weight="bold"
     font="10px &quot;Arial&quot;"
     y="251.0199"
     x="293.89172"
     style="font-size:14.53759956px;font-weight:bold;text-anchor:start;fill:#000000;stroke:none;font-family:Arial"
     id="text195">
    <tspan
       dy="4.9999995"
       id="tspan197">LEFT</tspan>
  </text>
  <text
     font-size="12px"
     font-weight="bold"
     font="10px &quot;Arial&quot;"
     y="105.75606"
     x="290.46835"
     style="font-size:12.46080017px;font-weight:bold;text-anchor:start;fill:#000000;stroke:none;font-family:Arial"
     id="text199">
    <tspan
       dy="4.5"
       id="tspan201">FMEZZ</tspan>
  </text>
  <text
     font-size="12px"
     font-weight="bold"
     font="10px &quot;Arial&quot;"
     y="118.21655"
     x="295.65833"
     style="font-size:12.46080017px;font-weight:bold;text-anchor:start;fill:#000000;stroke:none;font-family:Arial"
     id="text203">
    <tspan
       dy="4.5"
       id="tspan205">LEFT</tspan>
  </text>
  <text
     font-size="12px"
     font-weight="bold"
     font="10px &quot;Arial&quot;"
     y="26.556999"
     x="289.77777"
     style="font-size:12.46080017px;font-weight:bold;text-anchor:start;fill:#000000;stroke:none;font-family:Arial"
     id="text207">
    <tspan
       dy="4.5"
       id="tspan209">RMEZZ</tspan>
  </text>
  <text
     font-size="12px"
     font-weight="bold"
     font="10px &quot;Arial&quot;"
     y="39.017502"
     x="295.65833"
     style="font-size:12.46080017px;font-weight:bold;text-anchor:start;fill:#000000;stroke:none;font-family:Arial"
     id="text211">
    <tspan
       dy="4.5"
       id="tspan213">LEFT</tspan>
  </text>
  <text
     font-size="6px"
     font-weight="Bold"
     font="10px &quot;Arial&quot;"
     y="130.7419"
     x="11.403218"
     style="font-size:6.23040009px;text-anchor:start;fill:#000000;stroke:none;font-family:Arial"
     id="text215">
    <tspan
       dy="2.4261181"
       id="tspan217">28</tspan>
  </text>
  <text
     font-size="6px"
     font-weight="Bold"
     font="10px &quot;Arial&quot;"
     y="130.7419"
     x="115.72775"
     style="font-size:6.23040009px;text-anchor:start;fill:#000000;stroke:none;font-family:Arial"
     id="text219">
    <tspan
       dy="2.4261181"
       id="tspan221">2</tspan>
  </text>
  <text
     font-size="6px"
     font-weight="Bold"
     font="10px &quot;Arial&quot;"
     y="130.7419"
     x="133.42775"
     style="font-size:6.23040009px;text-anchor:start;fill:#000000;stroke:none;font-family:Arial"
     id="text223">
    <tspan
       dy="2.4261181"
       id="tspan225">101</tspan>
  </text>
  <text
     font-size="6px"
     font-weight="Bold"
     font="10px &quot;Arial&quot;"
     y="130.7419"
     x="231.45326"
     style="font-size:6.23040009px;text-anchor:start;fill:#000000;stroke:none;font-family:Arial"
     id="text227">
    <tspan
       dy="2.4261181"
       id="tspan229">114</tspan>
  </text>
  <text
     font-size="6px"
     font-weight="Bold"
     font="10px &quot;Arial&quot;"
     y="130.7419"
     x="255.62779"
     style="font-size:6.23040009px;text-anchor:start;fill:#000000;stroke:none;font-family:Arial"
     id="text231">
    <tspan
       dy="2.4261181"
       id="tspan233">1</tspan>
  </text>
  <text
     font-size="6px"
     font-weight="Bold"
     font="10px &quot;Arial&quot;"
     y="130.7419"
     x="358.62875"
     style="font-size:6.23040009px;text-anchor:start;fill:#000000;stroke:none;font-family:Arial"
     id="text235">
    <tspan
       dy="2.4261181"
       id="tspan237">27</tspan>
  </text>
  <text
     font-size="6px"
     font-weight="Bold"
     font="10px &quot;Arial&quot;"
     y="44.491898"
     x="12.403218"
     style="font-size:6.23040009px;text-anchor:start;fill:#000000;stroke:none;font-family:Arial"
     id="text239">
    <tspan
       dy="2.4261181"
       id="tspan241">28</tspan>
  </text>
  <text
     font-size="6px"
     font-weight="Bold"
     font="10px &quot;Arial&quot;"
     y="44.491898"
     x="115.22775"
     style="font-size:6.23040009px;text-anchor:start;fill:#000000;stroke:none;font-family:Arial"
     id="text243">
    <tspan
       dy="2.4261181"
       id="tspan245">2</tspan>
  </text>
  <text
     font-size="6px"
     font-weight="Bold"
     font="10px &quot;Arial&quot;"
     y="44.491898"
     x="133.42775"
     style="font-size:6.23040009px;text-anchor:start;fill:#000000;stroke:none;font-family:Arial"
     id="text247">
    <tspan
       dy="2.4261181"
       id="tspan249">101</tspan>
  </text>
  <text
     font-size="6px"
     font-weight="Bold"
     font="10px &quot;Arial&quot;"
     y="44.491898"
     x="231.45326"
     style="font-size:6.23040009px;text-anchor:start;fill:#000000;stroke:none;font-family:Arial"
     id="text251">
    <tspan
       dy="2.4261181"
       id="tspan253">114</tspan>
  </text>
  <text
     font-size="6px"
     font-weight="Bold"
     font="10px &quot;Arial&quot;"
     y="44.491898"
     x="255.12779"
     style="font-size:6.23040009px;text-anchor:start;fill:#000000;stroke:none;font-family:Arial"
     id="text255">
    <tspan
       dy="2.4261181"
       id="tspan257">1</tspan>
  </text>
  <text
     font-size="6px"
     font-weight="Bold"
     font="10px &quot;Arial&quot;"
     y="44.491898"
     x="358.62875"
     style="font-size:6.23040009px;text-anchor:start;fill:#000000;stroke:none;font-family:Arial"
     id="text259">
    <tspan
       dy="2.4261181"
       id="tspan261">27</tspan>
  </text>
  <text
     font-size="10px"
     font-weight="bold"
     font="10px &quot;Arial&quot;"
     y="316.36859"
     x="50.876797"
     style="font-size:10.38399982px;font-weight:bold;text-anchor:start;fill:#000000;stroke:none;font-family:Arial"
     id="text263">
    <tspan
       dy="3.9999993"
       id="tspan265">ORCHESTRA</tspan>
  </text>
  <text
     font-size="10px"
     font-weight="bold"
     font="10px &quot;Arial&quot;"
     y="326.75241"
     x="65.461563"
     style="font-size:10.38399982px;font-weight:bold;text-anchor:start;fill:#000000;stroke:none;font-family:Arial"
     id="text267">
    <tspan
       dy="3.9999993"
       id="tspan269">FLOOR</tspan>
  </text>
  <text
     font-size="10px"
     font-weight="bold"
     font="10px &quot;Arial&quot;"
     y="337.13611"
     x="67.560654"
     style="font-size:10.38399982px;font-weight:bold;text-anchor:start;fill:#000000;stroke:none;font-family:Arial"
     id="text271">
    <tspan
       dy="3.9999993"
       id="tspan273">RIGHT</tspan>
  </text>
  <text
     font-size="10px"
     font-weight="bold"
     font="10px &quot;Arial&quot;"
     y="316.36859"
     x="266.32776"
     style="font-size:10.38399982px;font-weight:bold;text-anchor:start;fill:#000000;stroke:none;font-family:Arial"
     id="text275">
    <tspan
       dy="3.9999993"
       id="tspan277">ORCHESTRA</tspan>
  </text>
  <text
     font-size="10px"
     font-weight="bold"
     font="10px &quot;Arial&quot;"
     y="326.75241"
     x="280.91251"
     style="font-size:10.38399982px;font-weight:bold;text-anchor:start;fill:#000000;stroke:none;font-family:Arial"
     id="text279">
    <tspan
       dy="3.9999993"
       id="tspan281">FLOOR</tspan>
  </text>
  <text
     font-size="10px"
     font-weight="bold"
     font="10px &quot;Arial&quot;"
     y="337.13611"
     x="286.15775"
     style="font-size:10.38399982px;font-weight:bold;text-anchor:start;fill:#000000;stroke:none;font-family:Arial"
     id="text283">
    <tspan
       dy="3.9999993"
       id="tspan285">LEFT</tspan>
  </text>
</svg>
