<?xml version="1.0" encoding="UTF-8" standalone="no"?>
<svg
   xmlns:dc="http://purl.org/dc/elements/1.1/"
   xmlns:cc="http://creativecommons.org/ns#"
   xmlns:rdf="http://www.w3.org/1999/02/22-rdf-syntax-ns#"
   xmlns:svg="http://www.w3.org/2000/svg"
   xmlns="http://www.w3.org/2000/svg"
   xmlns:sodipodi="http://sodipodi.sourceforge.net/DTD/sodipodi-0.dtd"
   xmlns:inkscape="http://www.inkscape.org/namespaces/inkscape"
   height="500"
   version="1.1"
   width="500"
   style="overflow: hidden; position: relative;"
   viewBox="0 0 500 500"
   preserveAspectRatio="xMinYMin"
   id="svg2"
   inkscape:version="0.48.0 r9654"
   sodipodi:docname="MoheganSunArena-CT_--ShawnMendes(08_30_2019).svg">
  <metadata
     id="metadata309">
    <rdf:RDF>
      <cc:Work
         rdf:about="">
        <dc:format>image/svg+xml</dc:format>
        <dc:type
           rdf:resource="http://purl.org/dc/dcmitype/StillImage" />
      </cc:Work>
    </rdf:RDF>
  </metadata>
  <sodipodi:namedview
     pagecolor="#ffffff"
     bordercolor="#666666"
     borderopacity="1"
     objecttolerance="10"
     gridtolerance="10"
     guidetolerance="10"
     inkscape:pageopacity="0"
     inkscape:pageshadow="2"
     inkscape:window-width="1920"
     inkscape:window-height="1058"
     id="namedview307"
     showgrid="false"
     inkscape:zoom="1.6461446"
     inkscape:cx="214.57791"
     inkscape:cy="247.49283"
     inkscape:window-x="-8"
     inkscape:window-y="-8"
     inkscape:window-maximized="1"
     inkscape:current-layer="svg2" />
  <desc
     id="desc4">Created with Raphaël 2.1.0</desc>
  <defs
     id="defs6" />
  <path
     style="fill-opacity: 1;"
     fill="#eeeeee"
     stroke="#000000"
     d="M379.5,75L373.5,75L355.5,119L311.5,119L311.5,112L316.5,112L316.5,96L311.5,96L311.5,74L306.5,74L306.5,95L300.5,95L300.5,111L306.5,111L306.5,119L253.5,119L253.5,112L258.5,112L258.5,96L253.5,96L253.5,74L248.5,74L248.5,95L242.5,95L242.5,111L248.5,111L248.5,119L196.5,119L196.5,112L201.5,112L201.5,96L196.5,96L196.5,74L190.5,74L190.5,96L184.5,96L184.5,112L190.5,112L190.5,119L146.5,119L127.5,75L122.5,75L131.5,97L127.5,97L123.5,101L133.5,126L111.5,147L105.5,141L108.5,137L97.5,126L93.5,130L78.5,115L76.55,117.1L76.35,117.2L74.5,119L88.5,134L85.5,138L97.5,149L100.5,146L106.5,152L85.5,173L61.5,163L56.5,167L56.5,172L34.5,162L34.5,168L79.5,187L79.5,218L72.5,218L72.5,212L56.5,212L56.5,218L35.5,218L35.5,224L55.5,224L55.5,229L72.5,229L72.5,224L79.5,224L79.5,277L72.5,277L72.5,271L55.5,271L55.5,276L35.5,276L35.5,282L55.5,282L55.5,287L72.5,287L72.5,283L78.5,283L78.5,313L34.5,332L34.5,338L56.5,329L56.5,332L60.5,336L85.5,325L107.5,347L100.5,354L96.5,351L85.5,362L89.5,366L74.5,381L76,382.35L78.5,384L92.5,370L97.5,373L108.5,362L104.5,358L111.5,351L134.5,374L124.5,397L127.5,402L131.5,402L122.5,423L124.5,425L127.5,425L146.5,380L189.5,380L189.5,387L184.5,387L184.5,404L189.5,404L189.5,425L196.5,425L196.5,404L201.5,404L201.5,387L196.5,387L196.5,380L247.5,380L247.5,387L242.5,387L242.5,404L247.5,404L247.5,425L254.5,425L254.5,404L259.5,404L259.5,388L254.5,388L254.5,380L305.5,380L305.5,387L300.5,387L300.5,404L305.5,404L305.5,425L312.5,425L312.5,404L316.5,404L316.5,388L312.5,388L312.5,380L354.5,380L373.5,425L379.5,425L370.5,403L374.5,403L378.5,398L368.5,374L390.5,352L396.5,359L392.5,362L404.5,374L408.5,371L423.5,385L427.5,381L413.5,366L416.5,362L404.5,350L401.5,353L395.5,347L416.5,325L440.5,336L445.5,333L445.5,329L466.5,338L466.5,331L422.5,312L422.5,283L428.5,283L428.5,287L446.5,287L446.5,283L466.5,283L466.5,276L446.5,276L446.5,271L428.5,271L428.5,276L421.5,276L421.5,224L429.5,224L429.5,228L445.5,228L445.5,223L466.5,223L466.5,218L445.5,218L445.5,212L429.5,212L429.5,218L421.5,218L421.5,187L434.5,181L467.5,167L467.5,162L446.5,171L446.5,168L441.5,163L416.5,173L395.5,151L400.5,146L404.5,149L416.5,137L413.5,133L427.5,119L423.5,115L409.5,129L404.5,126L393.5,137L396.5,141L390.5,147L368.5,125L378.5,102L374.5,97L370.5,97L379.5,75M366.5,129L413.5,175L348.5,203L340.5,194L366.5,129M469.5,157L469.5,344L386.5,429L117.5,429L30.5,343L30.5,156L115.5,71L385.5,71L469.5,157M415.5,268L351.5,268L351.5,231L415.5,231L415.5,268M351.5,209L415.5,181L415.5,223L351.5,223L351.5,209M351.5,275L415.5,275L415.5,319L351.5,290L351.5,275M339.5,304L347.5,295L413.5,323L367.5,369L339.5,304M167.5,190L139.5,125L188.5,125L188.5,190L167.5,190M196.5,125L246.5,125L246.5,189L196.5,189L196.5,125M312.5,189L312.5,125L341.5,125L315.5,189L312.5,189M304.5,190L254.5,190L254.5,125L304.5,125L304.5,190M110.5,191L110.5,224L85.5,224L85.5,181L110.5,191M89.5,175L134.5,129L145.5,153L113.5,185L89.5,175M110.5,230L110.5,269L85.5,269L85.5,230L110.5,230M110.5,274L110.5,306L84.5,319L84.5,274L110.5,274M113.5,314L144.5,346L134.5,370L89.5,324L113.5,314M188.5,309L188.5,373L139.5,373L166.5,309L188.5,309M196.5,309L247.5,309L247.5,373L196.5,373L196.5,309M315.5,309L341.5,373L312.5,373L312.5,309L315.5,309M305.5,373L254.5,373L254.5,309L305.5,309L305.5,373"
     transform="matrix(1,0,0,1,0,0)"
     fill-opacity="1"
     id="path8" />
  <path
     style="fill-opacity: 1;"
     fill="#cccccc"
     stroke="#000000"
     d="M469.5,157L385.5,71L115.5,71L30.5,156L30.5,343L117.5,429L386.5,429L469.5,344L469.5,157M366.5,129L340.5,194L348.5,203L413.5,175L366.5,129M379.5,75L370.5,97L374.5,97L378.5,102L368.5,125L390.5,147L396.5,141L393.5,137L404.5,126L409.5,129L423.5,115L427.5,119L413.5,133L416.5,137L404.5,149L400.5,146L395.5,151L416.5,173L441.5,163L446.5,168L446.5,171L467.5,162L467.5,167L434.5,181L421.5,187L421.5,218L429.5,218L429.5,212L445.5,212L445.5,218L466.5,218L466.5,223L445.5,223L445.5,228L429.5,228L429.5,224L421.5,224L421.5,276L428.5,276L428.5,271L446.5,271L446.5,276L466.5,276L466.5,283L446.5,283L446.5,287L428.5,287L428.5,283L422.5,283L422.5,312L466.5,331L466.5,338L445.5,329L445.5,333L440.5,336L416.5,325L395.5,347L401.5,353L404.5,350L416.5,362L413.5,366L427.5,381L423.5,385L408.5,371L404.5,374L392.5,362L396.5,359L390.5,352L368.5,374L378.5,398L374.5,403L370.5,403L379.5,425L373.5,425L354.5,380L312.5,380L312.5,388L316.5,388L316.5,404L312.5,404L312.5,425L305.5,425L305.5,404L300.5,404L300.5,387L305.5,387L305.5,380L254.5,380L254.5,388L259.5,388L259.5,404L254.5,404L254.5,425L247.5,425L247.5,404L242.5,404L242.5,387L247.5,387L247.5,380L196.5,380L196.5,387L201.5,387L201.5,404L196.5,404L196.5,425L189.5,425L189.5,404L184.5,404L184.5,387L189.5,387L189.5,380L146.5,380L127.5,425L124.5,425L122.5,423L131.5,402L127.5,402L124.5,397L134.5,374L111.5,351L104.5,358L108.5,362L97.5,373L92.5,370L78.5,384L76,382.35L74.5,381L89.5,366L85.5,362L96.5,351L100.5,354L107.5,347L85.5,325L60.5,336L56.5,332L56.5,329L34.5,338L34.5,332L78.5,313L78.5,283L72.5,283L72.5,287L55.5,287L55.5,282L35.5,282L35.5,276L55.5,276L55.5,271L72.5,271L72.5,277L79.5,277L79.5,224L72.5,224L72.5,229L55.5,229L55.5,224L35.5,224L35.5,218L56.5,218L56.5,212L72.5,212L72.5,218L79.5,218L79.5,187L34.5,168L34.5,162L56.5,172L56.5,167L61.5,163L85.5,173L106.5,152L100.5,146L97.5,149L85.5,138L88.5,134L74.5,119L76.35,117.2L76.55,117.1L78.5,115L93.5,130L97.5,126L108.5,137L105.5,141L111.5,147L133.5,126L123.5,101L127.5,97L131.5,97L122.5,75L127.5,75L146.5,119L190.5,119L190.5,112L184.5,112L184.5,96L190.5,96L190.5,74L196.5,74L196.5,96L201.5,96L201.5,112L196.5,112L196.5,119L248.5,119L248.5,111L242.5,111L242.5,95L248.5,95L248.5,74L253.5,74L253.5,96L258.5,96L258.5,112L253.5,112L253.5,119L306.5,119L306.5,111L300.5,111L300.5,95L306.5,95L306.5,74L311.5,74L311.5,96L316.5,96L316.5,112L311.5,112L311.5,119L355.5,119L373.5,75L379.5,75M389.25,64L476,154.5L476,346.75L389.75,436.25L114,436.25L24.25,346.5L24.25,152.75L111.75,64L389.25,64M305.5,373L305.5,309L254.5,309L254.5,373L305.5,373M315.5,309L312.5,309L312.5,373L341.5,373L315.5,309M196.5,309L196.5,373L247.5,373L247.5,309L196.5,309M188.5,309L166.5,309L139.5,373L188.5,373L188.5,309M113.5,314L89.5,324L134.5,370L144.5,346L113.5,314M110.5,274L84.5,274L84.5,319L110.5,306L110.5,274M110.5,230L85.5,230L85.5,269L110.5,269L110.5,230M89.5,175L113.5,185L145.5,153L134.5,129L89.5,175M110.5,191L85.5,181L85.5,224L110.5,224L110.5,191M304.5,190L304.5,125L254.5,125L254.5,190L304.5,190M312.5,189L315.5,189L341.5,125L312.5,125L312.5,189M196.5,125L196.5,189L246.5,189L246.5,125L196.5,125M167.5,190L188.5,190L188.5,125L139.5,125L167.5,190M339.5,304L367.5,369L413.5,323L347.5,295L339.5,304M351.5,275L351.5,290L415.5,319L415.5,275L351.5,275M351.5,209L351.5,223L415.5,223L415.5,181L351.5,209M415.5,268L415.5,231L351.5,231L351.5,268L415.5,268"
     transform="matrix(1,0,0,1,0,0)"
     fill-opacity="1"
     id="path10" />
  <path
     style="fill-opacity: 0;"
     fill="#000000"
     stroke="#666666"
     d="M389.25,64L111.75,64L24.25,152.75L24.25,346.5L114,436.25L389.75,436.25L476,346.75L476,154.5L389.25,64"
     transform="matrix(1,0,0,1,0,0)"
     fill-opacity="0"
     id="path12" />
  <path
     style="fill-opacity: 1;"
     fill="#eeeeee"
     stroke="#000000"
     d="M334,220L305.25,220L305.25,195.25L327,195.25L334,202.25L334,220M334,278L334,295.75L327,302.75L305.25,302.75L305.25,278L334,278M301.25,195.25L301.25,220L261,220L261,195.25L301.25,195.25M256.75,195.25L256.75,220L202.75,220L189.75,211.25L189.75,195.25L256.75,195.25M256.75,270.5L215.25,270.5L215.25,227.5L256.75,227.5L256.75,270.5M301.25,278L301.25,302.75L261,302.75L261,278L301.25,278M189.75,286.75L202.75,278L256.75,278L256.75,302.75L189.75,302.75L189.75,286.75"
     transform="matrix(1,0,0,1,0,0)"
     fill-opacity="1"
     id="path14" />
  <path
     style="fill-opacity: 1;"
     fill="#ffffff"
     stroke="#000000"
     d="M0.5,-24.5L20.5,-24.5L20.5,-28.5L23.5,-28.5L23.5,28.5L20.5,27.2L20.5,23.5L-23.5,4.5L-23.5,-24.5L-17.5,-24.5L-17.5,-20.5L0.5,-20.5L0.5,-24.5"
     transform="matrix(1,0,0,1,446,307.5)"
     fill-opacity="1"
     id="113" />
  <path
     style="fill-opacity: 1;"
     fill="#ffffff"
     stroke="#000000"
     d="M12.5,19.5L-12.5,19.5L-12.5,-19.5L12.5,-19.5L12.5,19.5"
     transform="matrix(1,0,0,1,98,249.5)"
     fill-opacity="1"
     id="11" />
  <path
     style="fill-opacity: 1;"
     fill="#ffffff"
     stroke="#000000"
     d="M25,-32L25,32L-25,32L-25,-32L25,-32"
     transform="matrix(1,0,0,1,221.5,157)"
     fill-opacity="1"
     id="15" />
  <path
     style="fill-opacity: 1;"
     fill="#ffffff"
     stroke="#000000"
     d="M29,-21L27,-21L27,0L21,0L21,16L27,16L27,24L-26,24L-26,17L-21,17L-21,1L-26,1L-26,-21L-29,-21L-29,-24L29,-24L29,-21"
     transform="matrix(1,0,0,1,279.5,95)"
     fill-opacity="1"
     id="107" />
  <path
     style="fill-opacity: 1;"
     fill="#ffffff"
     stroke="#000000"
     d="M-32,7L32,-21L32,21L-32,21L-32,7"
     transform="matrix(1,0,0,1,383.5,202)"
     fill-opacity="1"
     id="19" />
  <path
     style="fill-opacity: 1;"
     fill="#ffffff"
     stroke="#000000"
     d="M20,-9.3L17,-5.3L29,5.7L32,2.7L38,8.7L17,29.7L-7,19.7L-12,23.7L-12,28.7L-34,18.7L-34,21.05L-38,19.35L-38,12.7L4.4,-29.7L7.85,-26.1L6,-24.3L20,-9.3"
     transform="matrix(1,0,0,1,68.5,143.3)"
     fill-opacity="1"
     id="103" />
  <path
     style="fill-opacity: 1;"
     fill="#ffffff"
     stroke="#000000"
     d="M-32,-22L32,-22L32,22L-32,-7L-32,-22"
     transform="matrix(1,0,0,1,383.5,297)"
     fill-opacity="1"
     id="21" />
  <path
     style="fill-opacity: 1;"
     fill="#ffffff"
     stroke="#000000"
     d="M14.4,-5.35L14.4,12.4L-14.35,12.4L-14.35,-12.35L7.4,-12.35L14.4,-5.35"
     transform="matrix(1,0,0,1,319.6,207.6)"
     fill-opacity="1"
     id="7" />
  <path
     style="fill-opacity: 1;"
     fill="#ffffff"
     stroke="#000000"
     d="M-33.5,-3.6L-20.5,-12.35L33.5,-12.35L33.5,12.4L-33.5,12.4L-33.5,-3.6"
     transform="matrix(1,0,0,1,223.25,290.35)"
     fill-opacity="1"
     id="3" />
  <path
     style="fill-opacity: 1;"
     fill="#ffffff"
     stroke="#000000"
     d="M20.5,-0.5L25.5,-0.5L25.5,20.5L28.5,20.5L28.5,24.5L-28.5,24.5L-28.5,20.5L-25.5,20.5L-25.5,-0.5L-20.5,-0.5L-20.5,-16.5L-25.5,-16.5L-25.5,-24.5L25.5,-24.5L25.5,-17.5L20.5,-17.5L20.5,-0.5"
     transform="matrix(1,0,0,1,280,404.5)"
     fill-opacity="1"
     id="117" />
  <path
     style="fill-opacity: 1;"
     fill="#ffffff"
     stroke="#000000"
     d="M25.5,-32L25.5,32L-25.5,32L-25.5,-32L25.5,-32"
     transform="matrix(1,0,0,1,222,341)"
     fill-opacity="1"
     id="25" />
  <path
     style="fill-opacity: 1;"
     fill="#ffffff"
     stroke="#000000"
     d="M-20.75,-21.5L20.75,-21.5L20.75,21.5L-20.75,21.5L-20.75,-21.5"
     transform="matrix(1,0,0,1,236,249)"
     fill-opacity="1"
     id="2" />
  <path
     style="fill-opacity: 1;"
     fill="#ffffff"
     stroke="#000000"
     d="M-36.5,28L-10.5,-37L36.5,9L-28.5,37L-36.5,28"
     transform="matrix(1,0,0,1,377,166)"
     fill-opacity="1"
     id="18" />
  <path
     style="fill-opacity: 1;"
     fill="#ffffff"
     stroke="#000000"
     d="M33.25,-19.95L30.15,-20L12.15,24L-31.85,24L-31.85,17L-26.85,17L-26.85,1L-31.85,1L-31.85,-21L-34.85,-21L-34.85,-24L34.85,-24L33.25,-19.95"
     transform="matrix(1,0,0,1,343.35,95)"
     fill-opacity="1"
     id="108" />
  <path
     style="fill-opacity: 1;"
     fill="#ffffff"
     stroke="#000000"
     d="M3.5,32.5L-24.5,-32.5L24.5,-32.5L24.5,32.5L3.5,32.5"
     transform="matrix(1,0,0,1,164,157.5)"
     fill-opacity="1"
     id="14" />
  <path
     style="fill-opacity: 1;"
     fill="#ffffff"
     stroke="#000000"
     d="M12.3,-38L19.8,-38L21.4,-34L19.3,-34L28.3,-12L24.3,-12L20.3,-8L30.3,17L8.3,38L2.3,32L5.3,28L-5.7,17L-9.7,21L-24.7,6L-26.65,8.1L-26.85,8.2L-30.3,4.6L12.3,-38"
     transform="matrix(1,0,0,1,103.2,109)"
     fill-opacity="1"
     id="104" />
  <path
     style="fill-opacity: 1;"
     fill="#ffffff"
     stroke="#000000"
     d="M7.65,-39L30.65,-16L20.65,7L23.65,12L27.65,12L18.65,33L20.65,35L19.35,39L13.65,39L-30.65,-4.75L-27.85,-7.65L-25.35,-6L-11.35,-20L-6.35,-17L4.65,-28L0.65,-32L7.65,-39"
     transform="matrix(1,0,0,1,103.85,390)"
     fill-opacity="1"
     id="120" />
  <path
     style="fill-opacity: 1;"
     fill="#ffffff"
     stroke="#000000"
     d="M-32,-18.5L32,-18.5L32,18.5L-32,18.5L-32,-18.5"
     transform="matrix(1,0,0,1,383.5,249.5)"
     fill-opacity="1"
     id="20" />
  <path
     style="fill-opacity: 1;"
     fill="#ffffff"
     stroke="#000000"
     d="M20.15,12.4L-20.1,12.4L-20.1,-12.35L20.15,-12.35L20.15,12.4"
     transform="matrix(1,0,0,1,281.1,290.35)"
     fill-opacity="1"
     id="6" />
  <path
     style="fill-opacity: 1;"
     fill="#ffffff"
     stroke="#000000"
     d="M20.5,-0.5L25.5,-0.5L25.5,20.5L29.5,20.5L29.5,24.5L-29.5,24.5L-29.5,20.5L-25.5,20.5L-25.5,-0.5L-20.5,-0.5L-20.5,-17.5L-25.5,-17.5L-25.5,-24.5L25.5,-24.5L25.5,-17.5L20.5,-17.5L20.5,-0.5"
     transform="matrix(1,0,0,1,222,404.5)"
     fill-opacity="1"
     id="118" />
  <path
     style="fill-opacity: 1;"
     fill="#ffffff"
     stroke="#000000"
     d="M13,9.5L-13,22.5L-13,-22.5L13,-22.5L13,9.5"
     transform="matrix(1,0,0,1,97.5,296.5)"
     fill-opacity="1"
     id="28" />
  <path
     style="fill-opacity: 1;"
     fill="#ffffff"
     stroke="#000000"
     d="M-19,-10.85L-5,-24.85L-6.9,-26.75L-4.3,-29.15L37,13.15L37,20.05L35,20.8L35,18.15L14,27.15L14,24.15L9,19.15L-16,29.15L-37,7.15L-32,2.15L-28,5.15L-16,-6.85L-19,-10.85"
     transform="matrix(1,0,0,1,432.5,143.85)"
     fill-opacity="1"
     id="110" />
  <path
     style="fill-opacity: 1;"
     fill="#ffffff"
     stroke="#000000"
     d="M13,-22.35L13,-26.35L34,-17.35L34,-20.65L37,-19.35L37,-11.35L-3.75,30.4L-7,27.65L-5,25.65L-19,10.65L-16,6.65L-28,-5.35L-31,-2.35L-37,-8.35L-16,-30.35L8,-19.35L13,-22.35"
     transform="matrix(1,0,0,1,432.5,355.35)"
     fill-opacity="1"
     id="114" />
  <path
     style="fill-opacity: 1;"
     fill="#ffffff"
     stroke="#000000"
     d="M25.5,32L-25.5,32L-25.5,-32L25.5,-32L25.5,32"
     transform="matrix(1,0,0,1,280,341)"
     fill-opacity="1"
     id="24" />
  <path
     style="fill-opacity:0;stroke-width:0.5;stroke-miterlimit:4;stroke-dasharray:none"
     fill="#000000"
     stroke="#000000"
     d="M60.4,-25.85L78.2,-25.85M16.15,-25.85L45.45,-25.85M-54.1,-25.85L-36.3,-25.85M-28.25,-25.85L1.9,-25.85"
     transform="matrix(1,0,0,1,249.85,249.35)"
     fill-opacity="0"
     id="path40" />
  <path
     style="fill-opacity: 1;"
     fill="#ffffff"
     stroke="#000000"
     d="M33.5,12.4L-20.5,12.4L-33.5,3.65L-33.5,-12.35L33.5,-12.35L33.5,12.4"
     transform="matrix(1,0,0,1,223.25,207.6)"
     fill-opacity="1"
     id="1" />
  <path
     style="fill-opacity: 1;"
     fill="#ffffff"
     stroke="#000000"
     d="M-23.85,-12L-27.85,-12L-18.85,-34L-21.75,-33.95L-20.15,-38L-12.85,-38L29.85,5.7L27.25,8.1L25.15,6L11.15,20L6.15,17L-4.85,28L-1.85,32L-7.85,38L-29.85,16L-19.85,-7L-23.85,-12"
     transform="matrix(1,0,0,1,398.35,109)"
     fill-opacity="1"
     id="109" />
  <path
     style="fill-opacity: 1;"
     fill="#ffffff"
     stroke="#000000"
     d="M28,-4L-4,28L-28,18L17,-28L28,-4"
     transform="matrix(1,0,0,1,117.5,157)"
     fill-opacity="1"
     id="13" />
  <path
     style="fill-opacity: 1;"
     fill="#ffffff"
     stroke="#000000"
     d="M32.75,-21L32.75,1L26.75,1L26.75,17L32.75,17L32.75,24L-11.25,24L-30.25,-20L-33.15,-20L-34.75,-24L34.75,-24L34.75,-21L32.75,-21"
     transform="matrix(1,0,0,1,157.75,95)"
     fill-opacity="1"
     id="105" />
  <path
     style="fill-opacity: 1;"
     fill="#ffffff"
     stroke="#000000"
     d="M-14.5,32L-14.5,-32L14.5,-32L-11.5,32L-14.5,32"
     transform="matrix(1,0,0,1,327,157)"
     fill-opacity="1"
     id="17" />
  <path
     style="fill-opacity: 1;"
     fill="#ffffff"
     stroke="#000000"
     d="M31.5,-1.1L27.5,-4.1L16.5,6.9L20.5,10.9L5.5,25.9L7,27.25L4.2,30.15L-38.5,-12.1L-38.5,-18.5L-34.55,-20.2L-34.5,-17.1L-12.5,-26.1L-12.5,-23.1L-8.5,-19.1L16.5,-30.1L38.5,-8.1L31.5,-1.1"
     transform="matrix(1,0,0,1,69,355.1)"
     fill-opacity="1"
     id="121" />
  <path
     style="fill-opacity: 1;"
     fill="#ffffff"
     stroke="#000000"
     d="M17.5,-20.5L17.5,-25.5L24.5,-25.5L24.5,27.5L17.5,27.5L17.5,21.5L0.5,21.5L0.5,26.5L-19.5,26.5L-19.5,29.5L-24.5,29.5L-24.5,-29.5L-19.5,-29.5L-19.5,-25.5L0.5,-25.5L0.5,-20.5L17.5,-20.5"
     transform="matrix(1,0,0,1,55,249.5)"
     fill-opacity="1"
     id="101" />
  <path
     style="fill-opacity: 1;"
     fill="#ffffff"
     stroke="#000000"
     d="M-3.5,-28L27.5,4L17.5,28L-27.5,-18L-3.5,-28"
     transform="matrix(1,0,0,1,117,342)"
     fill-opacity="1"
     id="27" />
  <path
     style="fill-opacity: 1;"
     fill="#ffffff"
     stroke="#000000"
     d="M26.65,-0.5L31.65,-0.5L31.65,20.5L34.65,20.5L34.65,24.5L-34.65,24.5L-33.35,20.5L-30.35,20.5L-11.35,-24.5L31.65,-24.5L31.65,-17.5L26.65,-17.5L26.65,-0.5"
     transform="matrix(1,0,0,1,157.85,404.5)"
     fill-opacity="1"
     id="119" />
  <path
     style="fill-opacity: 0;"
     fill="#000000"
     stroke="#000000"
     d="M126.6,-174.95L123.5,-175L105.5,-131L61.5,-131L61.5,-138L66.5,-138L66.5,-154L61.5,-154L61.5,-176L58.5,-176L56.5,-176L56.5,-155L50.5,-155L50.5,-139L56.5,-139L56.5,-131L3.5,-131L3.5,-138L8.5,-138L8.5,-154L3.5,-154L3.5,-176L0.5,-176L-1.5,-176L-1.5,-155L-7.5,-155L-7.5,-139L-1.5,-139L-1.5,-131L-53.5,-131L-53.5,-138L-48.5,-138L-48.5,-154L-53.5,-154L-53.5,-176L-57.5,-176L-59.5,-176L-59.5,-154L-65.5,-154L-65.5,-138L-59.5,-138L-59.5,-131L-103.5,-131L-122.5,-175L-125.4,-175L-127.5,-175L-118.5,-153L-122.5,-153L-126.5,-149L-116.5,-124L-138.5,-103L-144.5,-109L-141.5,-113L-152.5,-124L-156.5,-120L-171.5,-135L-173.45,-132.9L-173.65,-132.8L-175.5,-131L-161.5,-116L-164.5,-112L-152.5,-101L-149.5,-104L-143.5,-98L-164.5,-77L-188.5,-87L-193.5,-83L-193.5,-78L-215.5,-88L-215.5,-85.65L-215.5,-82L-170.5,-63L-170.5,-32L-177.5,-32L-177.5,-38L-193.5,-38L-193.5,-32L-214.5,-32L-214.5,-30L-214.5,-26L-194.5,-26L-194.5,-21L-177.5,-21L-177.5,-26L-170.5,-26L-170.5,27L-177.5,27L-177.5,21L-194.5,21L-194.5,26L-214.5,26L-214.5,29L-214.5,32L-194.5,32L-194.5,37L-177.5,37L-177.5,33L-171.5,33L-171.5,63L-215.5,82L-215.55,84.9L-215.5,88L-193.5,79L-193.5,82L-189.5,86L-164.5,75L-142.5,97L-149.5,104L-153.5,101L-164.5,112L-160.5,116L-175.5,131L-174,132.35L-171.5,134L-157.5,120L-152.5,123L-141.5,112L-145.5,108L-138.5,101L-115.5,124L-125.5,147L-122.5,152L-118.5,152L-127.5,173L-125.5,175L-122.5,175L-103.5,130L-60.5,130L-60.5,137L-65.5,137L-65.5,154L-60.5,154L-60.5,175L-57.5,175L-53.5,175L-53.5,154L-48.5,154L-48.5,137L-53.5,137L-53.5,130L-2.5,130L-2.5,137L-7.5,137L-7.5,154L-2.5,154L-2.5,175L1.5,175L4.5,175L4.5,154L9.5,154L9.5,138L4.5,138L4.5,130L55.5,130L55.5,137L50.5,137L50.5,154L55.5,154L55.5,175L58.5,175L62.5,175L62.5,154L66.5,154L66.5,138L62.5,138L62.5,130L104.5,130L123.5,175L127.5,175L129.5,175L120.5,153L124.5,153L128.5,148L118.5,124L140.5,102L146.5,109L142.5,112L154.5,124L158.5,121L173.5,135L175.5,133L177.5,131L163.5,116L166.5,112L154.5,100L151.5,103L145.5,97L166.5,75L190.5,86L195.5,83L195.5,79L216.5,88L216.5,84.7L216.5,81L172.5,62L172.5,33L178.5,33L178.5,37L196.5,37L196.5,33L216.5,33L216.5,29L216.5,26L196.5,26L196.5,21L178.5,21L178.5,26L171.5,26L171.5,-26L179.5,-26L179.5,-22L195.5,-22L195.5,-27L216.5,-27L216.5,-29L216.5,-32L195.5,-32L195.5,-38L179.5,-38L179.5,-32L171.5,-32L171.5,-63L184.5,-69L217.5,-83L217.5,-85.35L217.5,-88L196.5,-79L196.5,-82L191.5,-87L166.5,-77L145.5,-99L150.5,-104L154.5,-101L166.5,-113L163.5,-117L177.5,-131L175.6,-132.9L173.5,-135L159.5,-121L154.5,-124L143.5,-113L146.5,-109L140.5,-103L118.5,-125L128.5,-148L124.5,-153L120.5,-153L129.5,-175L126.6,-174.95M175.6,-132.9L178.2,-135.3L135.5,-179L128.2,-179L126.6,-174.95M128.2,-179L58.5,-179L58.5,-176M0.5,-176L0.5,-179L-57.5,-179L-57.5,-176M54.5,-125L54.5,-60L4.5,-60L4.5,-125L54.5,-125M0.5,-179L58.5,-179M77,-54.75L84,-47.75L84,-30L55.25,-30L55.25,-54.75L77,-54.75M62.5,-61L62.5,-125L91.5,-125L65.5,-61L62.5,-61M51.25,-30L11,-30L11,-54.75L51.25,-54.75L51.25,-30M6.75,-30L-47.25,-30L-60.25,-38.75L-60.25,-54.75L6.75,-54.75L6.75,-30M101.5,-41L165.5,-69L165.5,-27L101.5,-27L101.5,-41M90.5,-56L116.5,-121L163.5,-75L98.5,-47L90.5,-56M217.5,-85.35L219.5,-86.1L219.5,-93L178.2,-135.3M216.5,-29L219.5,-29L219.5,-86.1M165.5,-19L165.5,18L101.5,18L101.5,-19L165.5,-19M216.5,29L219.5,29L219.5,-29M216.5,84.7L219.5,86L219.5,29M219.5,86L219.5,94L178.75,135.75L136.5,179L129,179L58.5,179L1.5,179L-57.5,179L-126.8,179L-132.5,179L-176.8,135.25L-219.5,93L-219.5,86.6L-219.5,29L-219.5,-30L-219.5,-87.35L-219.5,-94L-177.1,-136.4L-134.5,-179L-127,-179L-57.5,-179M165.5,69L101.5,40L101.5,25L165.5,25L165.5,69M178.75,135.75L175.5,133M84,28L55.25,28L55.25,52.75L77,52.75L84,45.75L84,28M97.5,45L163.5,73L117.5,119L89.5,54L97.5,45M65.5,59L91.5,123L62.5,123L62.5,59L65.5,59M51.25,52.75L11,52.75L11,28L51.25,28L51.25,52.75M6.75,28L-47.25,28L-60.25,36.75L-60.25,52.75L6.75,52.75L6.75,28M55.5,59L55.5,123L4.5,123L4.5,59L55.5,59M1.5,179L1.5,175M58.5,175L58.5,179M127.5,175L129,179M6.75,20.5L-34.75,20.5L-34.75,-22.5L6.75,-22.5L6.75,20.5M-177.1,-136.4L-173.65,-132.8M-215.5,-85.65L-219.5,-87.35M-219.5,-30L-214.5,-30M-164.5,-69L-139.5,-59L-139.5,-26L-164.5,-26L-164.5,-69M-3.5,-125L-3.5,-61L-53.5,-61L-53.5,-125L-3.5,-125M-125.4,-175L-127,-179M-160.5,-75L-115.5,-121L-104.5,-97L-136.5,-65L-160.5,-75M-110.5,-125L-61.5,-125L-61.5,-60L-82.5,-60L-110.5,-125M-139.5,-20L-139.5,19L-164.5,19L-164.5,-20L-139.5,-20M-2.5,59L-2.5,123L-53.5,123L-53.5,59L-2.5,59M-136.5,64L-105.5,96L-115.5,120L-160.5,74L-136.5,64M-139.5,56L-165.5,69L-165.5,24L-139.5,24L-139.5,56M-126.8,179L-125.5,175M-57.5,175L-57.5,179M-110.5,123L-83.5,59L-61.5,59L-61.5,123L-110.5,123M-214.5,29L-219.5,29M-219.5,86.6L-215.55,84.9M-174,132.35L-176.8,135.25"
     transform="matrix(1,0,0,1,250,250)"
     fill-opacity="0"
     id="path51" />
  <path
     style="fill-opacity:1;stroke:none"
     fill="#000000"
     stroke="#000000"
     d="M281.2,235.75Q286.65,235.75,290.5,239.6Q294.45,243.55,294.45,249Q294.45,254.45,290.5,258.35Q286.65,262.25,281.2,262.25Q275.7,262.25,271.8,258.35Q267.95,254.45,267.95,249Q267.95,243.55,271.8,239.6Q275.7,235.75,281.2,235.75"
     transform="matrix(1,0,0,1,0,0)"
     fill-opacity="1"
     id="path53" />
  <path
     style="fill-opacity:1;stroke:none"
     fill="#000000"
     stroke="#000000"
     d="M145.25,214.05Q146.75,213.05,148.3,212.35L166.5,212.35Q164.65,210.2,164.65,207.25Q164.65,203.85,166.95,201.5Q169.3,199.25,172.65,199.25Q176,199.25,178.25,201.5Q180.6,203.85,180.6,207.25Q180.6,209.85,179.1,211.85Q184.35,218.15,186.1,225.5Q187.25,226.25,188.4,227.1Q189.65,228.1,190.9,229.25Q199.5,237.3,199.5,248.6Q199.5,259.9,190.9,267.85Q189.65,269.1,188.4,270Q187.25,270.9,186.1,271.65Q184.35,278.95,179.15,285.25Q180.6,287.3,180.6,289.95Q180.6,293.25,178.25,295.55Q176,297.9,172.65,297.9Q169.3,297.9,166.95,295.55Q164.65,293.25,164.65,289.95Q164.65,287,166.35,284.85L148.4,284.85Q146.75,284.1,145.25,283.1Q141,280.4,137.4,275.65Q128.9,264.4,128.9,248.6Q128.9,232.75,137.4,221.5Q141,216.8,145.25,214.05"
     transform="matrix(1,0,0,1,0,0)"
     fill-opacity="1"
     id="path55" />
  <path
     style="fill-opacity: 0;"
     fill="#000000"
     stroke="#000000"
     d="M145.25,214.05Q146.75,213.05,148.3,212.35L166.5,212.35Q164.65,210.2,164.65,207.25Q164.65,203.85,166.95,201.5Q169.3,199.25,172.65,199.25Q176,199.25,178.25,201.5Q180.6,203.85,180.6,207.25Q180.6,209.85,179.1,211.85Q184.35,218.15,186.1,225.5Q187.25,226.25,188.4,227.1Q189.65,228.1,190.9,229.25Q199.5,237.3,199.5,248.6Q199.5,259.9,190.9,267.85Q189.65,269.1,188.4,270Q187.25,270.9,186.1,271.65Q184.35,278.95,179.15,285.25Q180.6,287.3,180.6,289.95Q180.6,293.25,178.25,295.55Q176,297.9,172.65,297.9Q169.3,297.9,166.95,295.55Q164.65,293.25,164.65,289.95Q164.65,287,166.35,284.85L148.4,284.85Q146.75,284.1,145.25,283.1Q141,280.4,137.4,275.65Q128.9,264.4,128.9,248.6Q128.9,232.75,137.4,221.5Q141,216.8,145.25,214.05"
     transform="matrix(1,0,0,1,0,0)"
     fill-opacity="0"
     id="path57" />
  <path
     style="fill-opacity:1;stroke:none"
     fill="#999999"
     stroke="#000000"
     d="M329.6,260.25L305.25,260.25L305.25,237.7L329.6,237.7L329.6,260.25"
     transform="matrix(1,0,0,1,0,0)"
     fill-opacity="1"
     id="path59" />
  <path
     style="fill-opacity: 1;"
     fill="#ffffff"
     stroke="#000000"
     d="M9.9,-19.5L24.9,-5.5L26.9,-7.5L30.15,-4.75L-12.1,38.5L-19.6,38.5L-21.1,34.5L-19.1,34.5L-28.1,12.5L-24.1,12.5L-20.1,7.5L-30.1,-16.5L-8.1,-38.5L-2.1,-31.5L-6.1,-28.5L5.9,-16.5L9.9,-19.5"
     transform="matrix(1,0,0,1,398.6,390.5)"
     fill-opacity="1"
     id="115" />
  <path
     style="fill-opacity: 1;"
     fill="#ffffff"
     stroke="#000000"
     d="M-11.5,-32L14.5,32L-14.5,32L-14.5,-32L-11.5,-32"
     transform="matrix(1,0,0,1,327,341)"
     fill-opacity="1"
     id="23" />
  <path
     style="fill-opacity: 1;"
     fill="#ffffff"
     stroke="#000000"
     d="M22,-27.8L24,-28.55L24,28.55L21,28.55L21,25.55L0,25.55L0,19.55L-16,19.55L-16,25.55L-24,25.55L-24,-5.45L-11,-11.45L22,-25.45L22,-27.8"
     transform="matrix(1,0,0,1,445.5,192.45)"
     fill-opacity="1"
     id="111" />
  <path
     style="fill-opacity: 1;"
     fill="#ffffff"
     stroke="#000000"
     d="M29,-21L27,-21L27,0L21,0L21,16L27,16L27,24L-25,24L-25,17L-20,17L-20,1L-25,1L-25,-21L-29,-21L-29,-24L29,-24L29,-21"
     transform="matrix(1,0,0,1,221.5,95)"
     fill-opacity="1"
     id="106" />
  <path
     style="fill-opacity: 1;"
     fill="#ffffff"
     stroke="#000000"
     d="M18,-24.8L24,-24.8L24,5.2L-20,24.2L-20.05,27.1L-24,28.8L-24,-28.8L-19,-28.8L-19,-25.8L1,-25.8L1,-20.8L18,-20.8L18,-24.8"
     transform="matrix(1,0,0,1,54.5,307.8)"
     fill-opacity="1"
     id="122" />
  <path
     style="fill-opacity: 1;"
     fill="#ffffff"
     stroke="#000000"
     d="M12.5,21.5L-12.5,21.5L-12.5,-21.5L12.5,-11.5L12.5,21.5"
     transform="matrix(1,0,0,1,98,202.5)"
     fill-opacity="1"
     id="12" />
  <path
     style="fill-opacity: 1;"
     fill="#ffffff"
     stroke="#000000"
     d="M-20.5,-26.95L-20.5,-23.3L24.5,-4.3L24.5,26.7L17.5,26.7L17.5,20.7L1.5,20.7L1.5,26.7L-19.5,26.7L-19.5,28.7L-24.5,28.7L-24.5,-28.65L-20.5,-26.95"
     transform="matrix(1,0,0,1,55,191.3)"
     fill-opacity="1"
     id="102" />
  <path
     style="fill-opacity: 1;"
     fill="#ffffff"
     stroke="#000000"
     d="M25,32.5L-25,32.5L-25,-32.5L25,-32.5L25,32.5"
     transform="matrix(1,0,0,1,279.5,157.5)"
     fill-opacity="1"
     id="16" />
  <path
     style="fill-opacity: 1;"
     fill="#ffffff"
     stroke="#000000"
     d="M-29,-37L37,-9L-9,37L-37,-28L-29,-37"
     transform="matrix(1,0,0,1,376.5,332)"
     fill-opacity="1"
     id="22" />
  <path
     style="fill-opacity: 1;"
     fill="#ffffff"
     stroke="#000000"
     d="M14.4,5.4L7.4,12.4L-14.35,12.4L-14.35,-12.35L14.4,-12.35L14.4,5.4"
     transform="matrix(1,0,0,1,319.6,290.35)"
     fill-opacity="1"
     id="8" />
  <path
     style="fill-opacity: 1;"
     fill="#ffffff"
     stroke="#000000"
     d="M20.15,12.4L-20.1,12.4L-20.1,-12.35L20.15,-12.35L20.15,12.4"
     transform="matrix(1,0,0,1,281.1,207.6)"
     fill-opacity="1"
     id="4" />
  <path
     style="fill-opacity: 1;"
     fill="#ffffff"
     stroke="#000000"
     d="M-27.25,-16.5L-31.25,-16.5L-31.25,-24.5L10.75,-24.5L29.75,20.5L33.75,20.5L35.25,24.5L-35.25,24.5L-35.25,20.5L-31.25,20.5L-31.25,-0.5L-27.25,-0.5L-27.25,-16.5"
     transform="matrix(1,0,0,1,343.75,404.5)"
     fill-opacity="1"
     id="116" />
  <path
     style="fill-opacity: 1;"
     fill="#ffffff"
     stroke="#000000"
     d="M24.5,-32L24.5,32L-24.5,32L2.5,-32L24.5,-32"
     transform="matrix(1,0,0,1,164,341)"
     fill-opacity="1"
     id="26" />
  <path
     style="fill-opacity: 1;"
     fill="#ffffff"
     stroke="#000000"
     d="M0,-27L21,-27L21,-29L24,-29L24,29L21,29L21,26L1,26L1,21L-17,21L-17,26L-24,26L-24,-26L-16,-26L-16,-22L0,-22L0,-27"
     transform="matrix(1,0,0,1,445.5,250)"
     fill-opacity="1"
     id="112" />
  <text
     style="font-size:18px;font-weight:bold;text-anchor:start;fill:#000000;stroke:none;font-family:Arial"
     x="146.42955"
     y="92.759102"
     font="10px &quot;Arial&quot;"
     font-weight="bold"
     font-size="18px"
     id="text75">
    <tspan
       dy="6"
       id="tspan77">105</tspan>
  </text>
  <text
     style="font-size:18px;font-weight:bold;text-anchor:start;fill:#000000;stroke:none;font-family:Arial"
     x="206.42955"
     y="92.759102"
     font="10px &quot;Arial&quot;"
     font-weight="bold"
     font-size="18px"
     id="text79">
    <tspan
       dy="6"
       id="tspan81">106</tspan>
  </text>
  <text
     style="font-size:18px;font-weight:bold;text-anchor:start;fill:#000000;stroke:none;font-family:Arial"
     x="264.32956"
     y="92.759102"
     font="10px &quot;Arial&quot;"
     font-weight="bold"
     font-size="18px"
     id="text83">
    <tspan
       dy="6"
       id="tspan85">107</tspan>
  </text>
  <text
     style="font-size:18px;font-weight:bold;text-anchor:start;fill:#000000;stroke:none;font-family:Arial"
     x="324.32956"
     y="92.759102"
     font="10px &quot;Arial&quot;"
     font-weight="bold"
     font-size="18px"
     id="text87">
    <tspan
       dy="6"
       id="tspan89">108</tspan>
  </text>
  <text
     style="font-size:18px;font-weight:bold;text-anchor:start;fill:#000000;stroke:none;font-family:Arial"
     x="378.32956"
     y="113.5591"
     font="10px &quot;Arial&quot;"
     font-weight="bold"
     font-size="18px"
     id="text91">
    <tspan
       dy="6"
       id="tspan93">109</tspan>
  </text>
  <text
     style="font-size:18px;font-weight:bold;text-anchor:start;fill:#000000;stroke:none;font-family:Arial"
     x="416.82956"
     y="148.5591"
     font="10px &quot;Arial&quot;"
     font-weight="bold"
     font-size="18px"
     id="text95">
    <tspan
       dy="6"
       id="tspan97">110</tspan>
  </text>
  <text
     style="font-size:18px;font-weight:bold;text-anchor:start;fill:#000000;stroke:none;font-family:Arial"
     x="432.32956"
     y="196.0591"
     font="10px &quot;Arial&quot;"
     font-weight="bold"
     font-size="18px"
     id="text99">
    <tspan
       dy="6"
       id="tspan101">111</tspan>
  </text>
  <text
     style="font-size:18px;font-weight:bold;text-anchor:start;fill:#000000;stroke:none;font-family:Arial"
     x="430.82956"
     y="249.20911"
     font="10px &quot;Arial&quot;"
     font-weight="bold"
     font-size="18px"
     id="text103">
    <tspan
       dy="6"
       id="tspan105">112</tspan>
  </text>
  <text
     style="font-size:18px;font-weight:bold;text-anchor:start;fill:#000000;stroke:none;font-family:Arial"
     x="430.82956"
     y="301.55911"
     font="10px &quot;Arial&quot;"
     font-weight="bold"
     font-size="18px"
     id="text107">
    <tspan
       dy="6"
       id="tspan109">113</tspan>
  </text>
  <text
     style="font-size:18px;font-weight:bold;text-anchor:start;fill:#000000;stroke:none;font-family:Arial"
     x="414.82956"
     y="347.30911"
     font="10px &quot;Arial&quot;"
     font-weight="bold"
     font-size="18px"
     id="text111">
    <tspan
       dy="6"
       id="tspan113">114</tspan>
  </text>
  <text
     style="font-size:18px;font-weight:bold;text-anchor:start;fill:#000000;stroke:none;font-family:Arial"
     x="378.82956"
     y="386.05911"
     font="10px &quot;Arial&quot;"
     font-weight="bold"
     font-size="18px"
     id="text115">
    <tspan
       dy="6"
       id="tspan117">115</tspan>
  </text>
  <text
     style="font-size:18px;font-weight:bold;text-anchor:start;fill:#000000;stroke:none;font-family:Arial"
     x="323.82956"
     y="404.55911"
     font="10px &quot;Arial&quot;"
     font-weight="bold"
     font-size="18px"
     id="text119">
    <tspan
       dy="6"
       id="tspan121">116</tspan>
  </text>
  <text
     style="font-size:18px;font-weight:bold;text-anchor:start;fill:#000000;stroke:none;font-family:Arial"
     x="265.82956"
     y="404.55911"
     font="10px &quot;Arial&quot;"
     font-weight="bold"
     font-size="18px"
     id="text123">
    <tspan
       dy="6"
       id="tspan125">117</tspan>
  </text>
  <text
     style="font-size:18px;font-weight:bold;text-anchor:start;fill:#000000;stroke:none;font-family:Arial"
     x="207.57954"
     y="404.55911"
     font="10px &quot;Arial&quot;"
     font-weight="bold"
     font-size="18px"
     id="text127">
    <tspan
       dy="6"
       id="tspan129">118</tspan>
  </text>
  <text
     style="font-size:18px;font-weight:bold;text-anchor:start;fill:#000000;stroke:none;font-family:Arial"
     x="145.52956"
     y="405.55911"
     font="10px &quot;Arial&quot;"
     font-weight="bold"
     font-size="18px"
     id="text131">
    <tspan
       dy="6"
       id="tspan133">119</tspan>
  </text>
  <text
     style="font-size:18px;font-weight:bold;text-anchor:start;fill:#000000;stroke:none;font-family:Arial"
     x="92.579552"
     y="385.30911"
     font="10px &quot;Arial&quot;"
     font-weight="bold"
     font-size="18px"
     id="text135">
    <tspan
       dy="6"
       id="tspan137">120</tspan>
  </text>
  <text
     style="font-size:18px;font-weight:bold;text-anchor:start;fill:#000000;stroke:none;font-family:Arial"
     x="56.329556"
     y="347.55911"
     font="10px &quot;Arial&quot;"
     font-weight="bold"
     font-size="18px"
     id="text139">
    <tspan
       dy="6"
       id="tspan141">121</tspan>
  </text>
  <text
     style="font-size:18px;font-weight:bold;text-anchor:start;fill:#000000;stroke:none;font-family:Arial"
     x="40.079556"
     y="302.30911"
     font="10px &quot;Arial&quot;"
     font-weight="bold"
     font-size="18px"
     id="text143">
    <tspan
       dy="6"
       id="tspan145">122</tspan>
  </text>
  <text
     style="font-size:18px;font-weight:bold;text-anchor:start;fill:#000000;stroke:none;font-family:Arial"
     x="40.079556"
     y="249.8091"
     font="10px &quot;Arial&quot;"
     font-weight="bold"
     font-size="18px"
     id="text147">
    <tspan
       dy="6"
       id="tspan149">101</tspan>
  </text>
  <text
     style="font-size:18px;font-weight:bold;text-anchor:start;fill:#000000;stroke:none;font-family:Arial"
     x="40.079556"
     y="195.50911"
     font="10px &quot;Arial&quot;"
     font-weight="bold"
     font-size="18px"
     id="text151">
    <tspan
       dy="6"
       id="tspan153">102</tspan>
  </text>
  <text
     style="font-size:18px;font-weight:bold;text-anchor:start;fill:#000000;stroke:none;font-family:Arial"
     x="54.529552"
     y="150.3091"
     font="10px &quot;Arial&quot;"
     font-weight="bold"
     font-size="18px"
     id="text155">
    <tspan
       dy="6"
       id="tspan157">103</tspan>
  </text>
  <text
     style="font-size:18px;font-weight:bold;text-anchor:start;fill:#000000;stroke:none;font-family:Arial"
     x="91.279549"
     y="112.0591"
     font="10px &quot;Arial&quot;"
     font-weight="bold"
     font-size="18px"
     id="text159">
    <tspan
       dy="6"
       id="tspan161">104</tspan>
  </text>
  <text
     style="font-size:16px;font-weight:bold;text-anchor:start;fill:#000000;stroke:none;font-family:Arial"
     x="111.42955"
     y="160.91658"
     font="10px &quot;Arial&quot;"
     font-weight="bold"
     font-size="16px"
     id="text163">
    <tspan
       dy="5.5"
       id="tspan165">13</tspan>
  </text>
  <text
     style="font-size:16px;font-weight:bold;text-anchor:start;fill:#000000;stroke:none;font-family:Arial"
     x="88.92955"
     y="205.5591"
     font="10px &quot;Arial&quot;"
     font-weight="bold"
     font-size="16px"
     id="text167">
    <tspan
       dy="5.5"
       id="tspan169">12</tspan>
  </text>
  <text
     style="font-size:16px;font-weight:bold;text-anchor:start;fill:#000000;stroke:none;font-family:Arial"
     x="89.379547"
     y="249.0591"
     font="10px &quot;Arial&quot;"
     font-weight="bold"
     font-size="16px"
     id="text171">
    <tspan
       dy="5.5"
       id="tspan173">11</tspan>
  </text>
  <text
     style="font-size:16px;font-weight:bold;text-anchor:start;fill:#000000;stroke:none;font-family:Arial"
     x="88.92955"
     y="289.80911"
     font="10px &quot;Arial&quot;"
     font-weight="bold"
     font-size="16px"
     id="text175">
    <tspan
       dy="5.5"
       id="tspan177">28</tspan>
  </text>
  <text
     style="font-size:16px;font-weight:bold;text-anchor:start;fill:#000000;stroke:none;font-family:Arial"
     x="110.92955"
     y="337.1666"
     font="10px &quot;Arial&quot;"
     font-weight="bold"
     font-size="16px"
     id="text179">
    <tspan
       dy="5.5"
       id="tspan181">27</tspan>
  </text>
  <text
     style="font-size:18px;font-weight:bold;text-anchor:start;fill:#000000;stroke:none;font-family:Arial"
     x="160.32954"
     y="157.3091"
     font="10px &quot;Arial&quot;"
     font-weight="bold"
     font-size="18px"
     id="text183">
    <tspan
       dy="6"
       id="tspan185">14</tspan>
  </text>
  <text
     style="font-size:18px;font-weight:bold;text-anchor:start;fill:#000000;stroke:none;font-family:Arial"
     x="210.32954"
     y="157.3091"
     font="10px &quot;Arial&quot;"
     font-weight="bold"
     font-size="18px"
     id="text187">
    <tspan
       dy="6"
       id="tspan189">15</tspan>
  </text>
  <text
     style="font-size:18px;font-weight:bold;text-anchor:start;fill:#000000;stroke:none;font-family:Arial"
     x="269.32956"
     y="157.3091"
     font="10px &quot;Arial&quot;"
     font-weight="bold"
     font-size="18px"
     id="text191">
    <tspan
       dy="6"
       id="tspan193">16</tspan>
  </text>
  <text
     style="font-size:10px;font-weight:bold;text-anchor:start;fill:#000000;stroke:none;font-family:Arial"
     x="314.77957"
     y="157.6591"
     font="10px &quot;Arial&quot;"
     font-weight="bold"
     font-size="10px"
     id="text195">
    <tspan
       dy="3.5"
       id="tspan197">17</tspan>
  </text>
  <text
     style="font-size:18px;font-weight:bold;text-anchor:start;fill:#000000;stroke:none;font-family:Arial"
     x="359.82956"
     y="171.5591"
     font="10px &quot;Arial&quot;"
     font-weight="bold"
     font-size="18px"
     id="text199">
    <tspan
       dy="6"
       id="tspan201">18</tspan>
  </text>
  <text
     style="font-size:18px;font-weight:bold;text-anchor:start;fill:#000000;stroke:none;font-family:Arial"
     x="374.57956"
     y="210.3091"
     font="10px &quot;Arial&quot;"
     font-weight="bold"
     font-size="18px"
     id="text203">
    <tspan
       dy="6"
       id="tspan205">19</tspan>
  </text>
  <text
     style="font-size:18px;font-weight:bold;text-anchor:start;fill:#000000;stroke:none;font-family:Arial"
     x="374.57956"
     y="249.45911"
     font="10px &quot;Arial&quot;"
     font-weight="bold"
     font-size="18px"
     id="text207">
    <tspan
       dy="6"
       id="tspan209">20</tspan>
  </text>
  <text
     style="font-size:18px;font-weight:bold;text-anchor:start;fill:#000000;stroke:none;font-family:Arial"
     x="374.57956"
     y="287.30911"
     font="10px &quot;Arial&quot;"
     font-weight="bold"
     font-size="18px"
     id="text211">
    <tspan
       dy="6"
       id="tspan213">21</tspan>
  </text>
  <text
     style="font-size:18px;font-weight:bold;text-anchor:start;fill:#000000;stroke:none;font-family:Arial"
     x="358.82956"
     y="322.55911"
     font="10px &quot;Arial&quot;"
     font-weight="bold"
     font-size="18px"
     id="text215">
    <tspan
       dy="6"
       id="tspan217">22</tspan>
  </text>
  <text
     style="font-size:9px;font-weight:bold;text-anchor:start;fill:#000000;stroke:none;font-family:Arial"
     x="315.17957"
     y="339.95911"
     font="10px &quot;Arial&quot;"
     font-weight="bold"
     font-size="9px"
     id="text219">
    <tspan
       dy="3"
       id="tspan221">23</tspan>
  </text>
  <text
     style="font-size:18px;font-weight:bold;text-anchor:start;fill:#000000;stroke:none;font-family:Arial"
     x="270.32956"
     y="339.55911"
     font="10px &quot;Arial&quot;"
     font-weight="bold"
     font-size="18px"
     id="text223">
    <tspan
       dy="6"
       id="tspan225">24</tspan>
  </text>
  <text
     style="font-size:18px;font-weight:bold;text-anchor:start;fill:#000000;stroke:none;font-family:Arial"
     x="212.32954"
     y="339.55911"
     font="10px &quot;Arial&quot;"
     font-weight="bold"
     font-size="18px"
     id="text227">
    <tspan
       dy="6"
       id="tspan229">25</tspan>
  </text>
  <text
     style="font-size:18px;font-weight:bold;text-anchor:start;fill:#000000;stroke:none;font-family:Arial"
     x="162.32954"
     y="339.80911"
     font="10px &quot;Arial&quot;"
     font-weight="bold"
     font-size="18px"
     id="text231">
    <tspan
       dy="6"
       id="tspan233">26</tspan>
  </text>
  <text
     style="font-size:16px;font-weight:bold;text-anchor:start;fill:#ffffff;stroke:none;font-family:Arial"
     x="-274.98334"
     y="162.59468"
     font="10px &quot;Arial&quot;"
     transform="matrix(0,-1,1,0,0,0)"
     font-weight="bold"
     font-size="16px"
     id="text235">
    <tspan
       dy="5.5"
       id="tspan237">STAGE</tspan>
  </text>
  <text
     style="font-size:18px;font-weight:bold;text-anchor:start;fill:#000000;stroke:none;font-family:Arial"
     x="219.32954"
     y="207.4091"
     font="10px &quot;Arial&quot;"
     font-weight="bold"
     font-size="18px"
     id="text239">
    <tspan
       dy="6"
       id="tspan241">1</tspan>
  </text>
  <text
     style="font-size:18px;font-weight:bold;text-anchor:start;fill:#000000;stroke:none;font-family:Arial"
     x="231.62955"
     y="248.6591"
     font="10px &quot;Arial&quot;"
     font-weight="bold"
     font-size="18px"
     id="text243">
    <tspan
       dy="6"
       id="tspan245">2</tspan>
  </text>
  <text
     style="font-size:18px;font-weight:bold;text-anchor:start;fill:#000000;stroke:none;font-family:Arial"
     x="219.62955"
     y="290.90912"
     font="10px &quot;Arial&quot;"
     font-weight="bold"
     font-size="18px"
     id="text247">
    <tspan
       dy="6"
       id="tspan249">3</tspan>
  </text>
  <text
     style="font-size:18px;font-weight:bold;text-anchor:start;fill:#000000;stroke:none;font-family:Arial"
     x="276.77957"
     y="207.4091"
     font="10px &quot;Arial&quot;"
     font-weight="bold"
     font-size="18px"
     id="text251">
    <tspan
       dy="6"
       id="tspan253">4</tspan>
  </text>
  <text
     style="font-size:18px;font-weight:bold;text-anchor:start;fill:#000000;stroke:none;font-family:Arial"
     x="276.77957"
     y="290.65912"
     font="10px &quot;Arial&quot;"
     font-weight="bold"
     font-size="18px"
     id="text255">
    <tspan
       dy="6"
       id="tspan257">6</tspan>
  </text>
  <text
     style="font-size:6px;font-weight:bold;text-anchor:start;fill:#ffffff;stroke:none;font-family:Arial"
     x="279.63913"
     y="244.3591"
     font="10px &quot;Arial&quot;"
     font-weight="bold"
     font-size="6px"
     id="text259">
    <tspan
       dy="1.875"
       id="tspan261">B</tspan>
  </text>
  <text
     style="font-size:6px;font-weight:bold;text-anchor:start;fill:#ffffff;stroke:none;font-family:Arial"
     x="271.57956"
     y="250.3591"
     font="10px &quot;Arial&quot;"
     font-weight="bold"
     font-size="6px"
     id="text263">
    <tspan
       dy="1.875"
       id="tspan265">STAGE</tspan>
  </text>
  <text
     style="font-size:16px;font-weight:bold;text-anchor:start;fill:#000000;stroke:none;font-family:Arial"
     x="314.82956"
     y="206.9091"
     font="10px &quot;Arial&quot;"
     font-weight="bold"
     font-size="16px"
     id="text267">
    <tspan
       dy="5.5"
       id="tspan269">7</tspan>
  </text>
  <text
     style="font-size:16px;font-weight:bold;text-anchor:start;fill:#000000;stroke:none;font-family:Arial"
     x="314.82956"
     y="290.15912"
     font="10px &quot;Arial&quot;"
     font-weight="bold"
     font-size="16px"
     id="text271">
    <tspan
       dy="5.5"
       id="tspan273">8</tspan>
  </text>
  <text
     style="font-size:7px;text-anchor:start;fill:#000000;stroke:none;font-family:Arial"
     x="190.11496"
     y="224.00374"
     font="10px &quot;Arial&quot;"
     font-weight="Bold"
     font-size="7px"
     id="text275">
    <tspan
       dy="2.1874998"
       id="tspan277">A</tspan>
  </text>
  <text
     style="font-size:7px;text-anchor:start;fill:#000000;stroke:none;font-family:Arial"
     x="252.86496"
     y="224.00374"
     font="10px &quot;Arial&quot;"
     font-weight="Bold"
     font-size="7px"
     id="text279">
    <tspan
       dy="2.1874998"
       id="tspan281">P</tspan>
  </text>
  <text
     style="font-size:7px;text-anchor:start;fill:#000000;stroke:none;font-family:Arial"
     x="260.11496"
     y="224.00374"
     font="10px &quot;Arial&quot;"
     font-weight="Bold"
     font-size="7px"
     id="text283">
    <tspan
       dy="2.1874998"
       id="tspan285">A</tspan>
  </text>
  <text
     style="font-size:7px;text-anchor:start;fill:#000000;stroke:none;font-family:Arial"
     x="296.86496"
     y="224.00374"
     font="10px &quot;Arial&quot;"
     font-weight="Bold"
     font-size="7px"
     id="text287">
    <tspan
       dy="2.1874998"
       id="tspan289">K</tspan>
  </text>
  <text
     style="font-size:7px;text-anchor:start;fill:#000000;stroke:none;font-family:Arial"
     x="304.36496"
     y="224.00374"
     font="10px &quot;Arial&quot;"
     font-weight="Bold"
     font-size="7px"
     id="text291">
    <tspan
       dy="2.1874998"
       id="tspan293">A</tspan>
  </text>
  <text
     style="font-size:7px;text-anchor:start;fill:#000000;stroke:none;font-family:Arial"
     x="329.86496"
     y="224.00374"
     font="10px &quot;Arial&quot;"
     font-weight="Bold"
     font-size="7px"
     id="text295">
    <tspan
       dy="2.1874998"
       id="tspan297">E</tspan>
  </text>
  <text
     style="font-size:7px;text-anchor:start;fill:#000000;stroke:none;font-family:Arial"
     x="215.36496"
     y="224.00374"
     font="10px &quot;Arial&quot;"
     font-weight="Bold"
     font-size="7px"
     id="text299">
    <tspan
       dy="2.1874998"
       id="tspan301">E</tspan>
  </text>
  <text
     style="font-size:8px;font-weight:bold;text-anchor:start;fill:#cccccc;stroke:none;font-family:Arial"
     x="310.62958"
     y="249.3591"
     font="10px &quot;Arial&quot;"
     font-weight="bold"
     font-size="8px"
     id="text303">
    <tspan
       dy="2.5"
       id="tspan305">MIX</tspan>
  </text>
</svg>
