<?xml version="1.0" encoding="UTF-8" standalone="no"?>
<svg
   xmlns:dc="http://purl.org/dc/elements/1.1/"
   xmlns:cc="http://creativecommons.org/ns#"
   xmlns:rdf="http://www.w3.org/1999/02/22-rdf-syntax-ns#"
   xmlns:svg="http://www.w3.org/2000/svg"
   xmlns="http://www.w3.org/2000/svg"
   xmlns:sodipodi="http://sodipodi.sourceforge.net/DTD/sodipodi-0.dtd"
   xmlns:inkscape="http://www.inkscape.org/namespaces/inkscape"
   height="299.75"
   version="1.1"
   width="470.84088"
   style="overflow:hidden"
   viewBox="0 0 470.84088 299.75"
   preserveAspectRatio="xMinYMin"
   id="svg2"
   inkscape:version="0.48.4 r9939"
   sodipodi:docname="AlHirschfeldTheatre_--MoulinRouge.svg">
  <metadata
     id="metadata165">
    <rdf:RDF>
      <cc:Work
         rdf:about="">
        <dc:format>image/svg+xml</dc:format>
        <dc:type
           rdf:resource="http://purl.org/dc/dcmitype/StillImage" />
      </cc:Work>
    </rdf:RDF>
  </metadata>
  <sodipodi:namedview
     pagecolor="#ffffff"
     bordercolor="#666666"
     borderopacity="1"
     objecttolerance="10"
     gridtolerance="10"
     guidetolerance="10"
     inkscape:pageopacity="0"
     inkscape:pageshadow="2"
     inkscape:window-width="1920"
     inkscape:window-height="1017"
     id="namedview163"
     showgrid="false"
     fit-margin-top="0"
     fit-margin-left="0"
     fit-margin-right="0"
     fit-margin-bottom="0"
     inkscape:zoom="0.78359375"
     inkscape:cx="51.362735"
     inkscape:cy="150.9"
     inkscape:window-x="-8"
     inkscape:window-y="-8"
     inkscape:window-maximized="1"
     inkscape:current-layer="svg2" />
  <desc
     id="desc4">Created with Raphaël 2.1.0</desc>
  <defs
     id="defs6" />
  <path
     d="m 329.3,36.85 q 10.75,29.25 16.1,62.1 L 451.95,95.2 Q 451,53.25 436.3,11.3 l -116.65,2.85 2.8,5.85 q 3.5,7.65 6.85,16.85 M 80.8,252.9 l 0,-0.4 -80.3,0 0,-205.65 80.3,0 61.4,-35.9 L 440.85,0.5 q 13.45,30.25 22.55,77.05 9.05,46.75 6.3,97.5 -3.3,61.6 -25.6,124.2 L 142.2,288.8 80.8,252.9 m 253.45,-9.8 q -5.2,16.45 -15.55,41.525 l 119.55,3.175 14.05,-83.9 -107.8,-3.3 q -3.7,21.95 -10.25,42.5 M 443.8,99.5 281.9,103.6 q 6.25,45.9 -1,91.8 l 162.9,5.85 q 5.55,-50.9 0,-101.75 M 300.05,37.65 q -3.95,-9.2 -8.2,-16.9 L 288.4,14.9 263.3,34.45 q 13.2,24.45 16.65,66.95 l 38.3,-1.35 Q 312.8,67 300.05,37.65 m -58,-22.2 L 141.2,19.15 92.3,49.5 79.85,71.05 q 5.9,15.5 6.85,31 L 256.75,95.5 Q 254.6,56.4 242.05,15.45 m 38.55,183.2 q -6.65,33.9 -17,66.6 l 25.8,18.6 q 19.4,-40.8 27.65,-84.05 l -36.45,-1.15 m -196,14.9 q -1.7,6.6 -5.4,14.8 l 11.75,21.55 50.9,30.05 99.9,3.25 q 14.1,-40.15 15.05,-80.3 L 85.85,198.65 q 0.7,6.95 -1.25,14.9 M 56.2,174.2 q -1.3,-1.35 -3.25,-1.35 -1.9,0 -3.3,1.35 -1.3,1.35 -1.3,3.3 0,1.4 0.65,2.4 0.25,0.4 0.65,0.85 0.9,0.85 2,1.15 0.6,0.25 1.3,0.25 0.7,0 1.4,-0.25 1,-0.3 1.85,-1.15 1.4,-1.3 1.4,-3.25 0,-1.95 -1.4,-3.3 m -20.65,17.15 q -1.35,1.35 -1.35,3.3 0,1.4 0.7,2.4 0.25,0.4 0.65,0.85 0.9,0.85 2,1.15 0.6,0.25 1.3,0.25 0.7,0 1.4,-0.25 1,-0.3 1.85,-1.15 1.4,-1.3 1.4,-3.25 0,-1.95 -1.4,-3.3 -1.3,-1.35 -3.25,-1.35 -1.95,0 -3.3,1.35 M 42.1,177.8 q -1.3,-1.3 -3.25,-1.3 -1.95,0 -3.3,1.3 -1.35,1.4 -1.35,3.35 0,1.35 0.7,2.35 0.25,0.4 0.65,0.85 0.9,0.85 2,1.2 0.6,0.2 1.3,0.2 0.7,0 1.4,-0.2 1,-0.35 1.85,-1.2 1.4,-1.3 1.4,-3.2 0,-1.95 -1.4,-3.35 m -6.55,-16 q -1.3,1.4 -1.3,3.3 0,1.95 1.3,3.25 1.4,1.4 3.35,1.4 1.9,0 3.25,-1.4 1.35,-1.3 1.35,-3.25 0,-1.9 -1.35,-3.3 -1.25,-1.25 -3.1,-1.35 -2.15,0.1 -3.5,1.35 m 17.4,7.95 q 1.95,0 3.25,-1.4 1.4,-1.3 1.4,-3.25 0,-1.9 -1.4,-3.3 -1.25,-1.25 -3.1,-1.35 -2.15,0.1 -3.45,1.35 -1.3,1.4 -1.3,3.3 0,1.95 1.3,3.25 1.4,1.4 3.3,1.4 m 0,-41.2 q -1.9,0 -3.25,1.3 -1.3,1.35 -1.3,3.25 0,1.8 1.3,3.1 1.35,1.45 3.25,1.45 1.9,0 3.2,-1.45 1.35,-1.3 1.35,-3.1 0,-1.9 -1.35,-3.25 -1.3,-1.3 -3.2,-1.3 m -10.9,1.75 q -1.3,-1.3 -3.2,-1.3 -1.9,0 -3.25,1.3 -1.3,1.35 -1.3,3.25 0,1.9 1.3,3.15 1.35,1.4 3.25,1.4 1.9,0 3.2,-1.4 1.35,-1.25 1.35,-3.15 0,-1.9 -1.35,-3.25 m 0,-14.3 q -1.3,-1.3 -3.2,-1.3 -1.9,0 -3.25,1.3 -1.3,1.35 -1.3,3.25 0,1.9 1.3,3.15 1.35,1.4 3.25,1.4 1.9,0 3.2,-1.4 1.35,-1.25 1.35,-3.15 0,-1.9 -1.35,-3.25 m 15.45,5.45 q 0,-1.9 -1.35,-3.25 -1.3,-1.3 -3.2,-1.3 -1.9,0 -3.25,1.3 -1.3,1.35 -1.3,3.25 0,1.9 1.3,3.15 1.35,1.4 3.25,1.4 1.9,0 3.2,-1.4 1.35,-1.25 1.35,-3.15 m 17.45,-15.5 q 5.2,23 5.4,46.05 0.2,22 -4.1,44.05 l 198.8,3.9 q 3.75,-50.05 0,-101.35 l -200.1,7.35"
     style="fill:#cccccc;fill-opacity:1;stroke:#000000"
     id="path8"
     inkscape:connector-curvature="0" />
  <path
     d="M 329.3,36.85 Q 325.95,27.65 322.45,20 L 319.65,14.15 436.3,11.3 Q 451,53.25 451.95,95.2 L 345.4,98.95 Q 340.05,66.1 329.3,36.85 M 443.8,99.5 q 5.55,50.85 0,101.75 L 280.9,195.4 q 7.25,-45.9 1,-91.8 L 443.8,99.5 M 334.25,243.1 q 6.55,-20.55 10.25,-42.5 l 107.8,3.3 -14.05,83.9 -119.55,-3.175 Q 329.05,259.55 334.25,243.1 M 300.05,37.65 q 12.75,29.35 18.2,62.4 l -38.3,1.35 Q 276.5,58.9 263.3,34.45 l 25.1,-19.55 3.45,5.85 q 4.25,7.7 8.2,16.9 m -58,-22.2 Q 254.6,56.4 256.75,95.5 L 86.7,102.05 q -0.95,-15.5 -6.85,-31 L 92.3,49.5 141.2,19.15 242.05,15.45 m -167.1,90.5 200.1,-7.35 q 3.75,51.3 0,101.35 l -198.8,-3.9 q 4.3,-22.05 4.1,-44.05 -0.2,-23.05 -5.4,-46.05 m -17.45,15.5 q 0,1.9 -1.35,3.15 -1.3,1.4 -3.2,1.4 -1.9,0 -3.25,-1.4 -1.3,-1.25 -1.3,-3.15 0,-1.9 1.3,-3.25 1.35,-1.3 3.25,-1.3 1.9,0 3.2,1.3 1.35,1.35 1.35,3.25 M 42.05,116 q 1.35,1.35 1.35,3.25 0,1.9 -1.35,3.15 -1.3,1.4 -3.2,1.4 -1.9,0 -3.25,-1.4 -1.3,-1.25 -1.3,-3.15 0,-1.9 1.3,-3.25 1.35,-1.3 3.25,-1.3 1.9,0 3.2,1.3 m 0,14.3 q 1.35,1.35 1.35,3.25 0,1.9 -1.35,3.15 -1.3,1.4 -3.2,1.4 -1.9,0 -3.25,-1.4 -1.3,-1.25 -1.3,-3.15 0,-1.9 1.3,-3.25 1.35,-1.3 3.25,-1.3 1.9,0 3.2,1.3 m 10.9,-1.75 q 1.9,0 3.2,1.3 1.35,1.35 1.35,3.25 0,1.8 -1.35,3.1 -1.3,1.45 -3.2,1.45 -1.9,0 -3.25,-1.45 -1.3,-1.3 -1.3,-3.1 0,-1.9 1.3,-3.25 1.35,-1.3 3.25,-1.3 m 0,41.2 q -1.9,0 -3.3,-1.4 -1.3,-1.3 -1.3,-3.25 0,-1.9 1.3,-3.3 1.3,-1.25 3.45,-1.35 1.85,0.1 3.1,1.35 1.4,1.4 1.4,3.3 0,1.95 -1.4,3.25 -1.3,1.4 -3.25,1.4 m -17.4,-7.95 q 1.35,-1.25 3.5,-1.35 1.85,0.1 3.1,1.35 1.35,1.4 1.35,3.3 0,1.95 -1.35,3.25 -1.35,1.4 -3.25,1.4 -1.95,0 -3.35,-1.4 -1.3,-1.3 -1.3,-3.25 0,-1.9 1.3,-3.3 m 6.55,16 q 1.4,1.4 1.4,3.35 0,1.9 -1.4,3.2 -0.85,0.85 -1.85,1.2 -0.7,0.2 -1.4,0.2 -0.7,0 -1.3,-0.2 -1.1,-0.35 -2,-1.2 -0.4,-0.45 -0.65,-0.85 -0.7,-1 -0.7,-2.35 0,-1.95 1.35,-3.35 1.35,-1.3 3.3,-1.3 1.95,0 3.25,1.3 m -6.55,13.55 q 1.35,-1.35 3.3,-1.35 1.95,0 3.25,1.35 1.4,1.35 1.4,3.3 0,1.95 -1.4,3.25 -0.85,0.85 -1.85,1.15 -0.7,0.25 -1.4,0.25 -0.7,0 -1.3,-0.25 -1.1,-0.3 -2,-1.15 -0.4,-0.45 -0.65,-0.85 -0.7,-1 -0.7,-2.4 0,-1.95 1.35,-3.3 M 56.2,174.2 q 1.4,1.35 1.4,3.3 0,1.95 -1.4,3.25 -0.85,0.85 -1.85,1.15 -0.7,0.25 -1.4,0.25 -0.7,0 -1.3,-0.25 -1.1,-0.3 -2,-1.15 -0.4,-0.45 -0.65,-0.85 -0.65,-1 -0.65,-2.4 0,-1.95 1.3,-3.3 1.4,-1.35 3.3,-1.35 1.95,0 3.25,1.35 m 28.4,39.35 q 1.95,-7.95 1.25,-14.9 l 170.95,4.25 q -0.95,40.15 -15.05,80.3 L 141.85,279.95 90.95,249.9 79.2,228.35 q 3.7,-8.2 5.4,-14.8 m 196,-14.9 36.45,1.15 q -8.25,43.25 -27.65,84.05 l -25.8,-18.6 q 10.35,-32.7 17,-66.6"
     style="fill:#eeeeee;fill-opacity:1;stroke:#000000"
     id="path10"
     inkscape:connector-curvature="0" />
  <path
     d="m 80.8,252.9 61.4,35.9 301.9,10.45 q 22.3,-62.6 25.6,-124.2 2.75,-50.75 -6.3,-97.5 -9.1,-46.8 -22.55,-77.05 l -298.65,10.45 -61.4,35.9 -80.3,0 0,205.65 80.3,0"
     style="fill:#000000;fill-opacity:0;stroke:#999999"
     id="path12"
     inkscape:connector-curvature="0" />
  <path
     d="m 56.15,118.2 q 1.35,1.35 1.35,3.25 0,1.9 -1.35,3.15 -1.3,1.4 -3.2,1.4 -1.9,0 -3.25,-1.4 -1.3,-1.25 -1.3,-3.15 0,-1.9 1.3,-3.25 1.35,-1.3 3.25,-1.3 1.9,0 3.2,1.3"
     id="10"
     style="fill:#ffffff;fill-opacity:1;stroke:#000000"
     inkscape:connector-curvature="0" />
  <path
     d="m 316.95,199.8 q -5.7,29.65 -17.2,59.8 -5.75,15.1 -10.35,24.25 l -25.8,-18.6 q 10.35,-32.7 17,-66.6 l 36.35,1.15 M 339,226.25 q 4,-15.55 5.5,-25.65 l 107.8,3.3 -14.05,83.9 -119.525,-3.175 Q 331.05,257.35 339,226.25"
     id="200"
     style="fill:#ffffff;fill-opacity:1;stroke:#000000"
     inkscape:connector-curvature="0" />
  <path
     d="m 275.05,199.95 -198.8,-3.9 Q 85.1,151 74.95,105.95 l 200.1,-7.35 q 3.75,51.3 0,101.35"
     id="102"
     style="fill:#ffffff;fill-opacity:1;stroke:#000000"
     inkscape:connector-curvature="0" />
  <path
     d="m 92.3,49.5 48.9,-30.35 100.85,-3.7 Q 254.6,56.4 256.75,95.5 L 86.7,102.05 q -0.95,-15.5 -6.85,-31 L 92.3,49.5"
     id="103"
     style="fill:#ffffff;fill-opacity:1;stroke:#000000"
     inkscape:connector-curvature="0" />
  <path
     d="m 443.8,99.5 q 5.55,50.85 0,101.75 L 280.9,195.4 q 7.25,-45.9 1,-91.8 l 161.9,-4.1"
     id="201"
     style="fill:#ffffff;fill-opacity:1;stroke:#000000"
     inkscape:connector-curvature="0" />
  <path
     d="m 300.55,39.05 q 12.77793,29.864258 17.55,60.975 L 279.95,101.4 Q 276.45,58.8 263.3,34.45 L 288.4,14.9 q 5.6,8.9 12.15,24.15 M 319.675,14.15 436.3,11.3 q 14.7,41.95 15.65,83.9 l -106.7,3.85 q -7.8,-49.55 -25.575,-84.9"
     id="203"
     style="fill:#ffffff;fill-opacity:1;stroke:#000000"
     inkscape:connector-curvature="0" />
  <path
     d="m 290.4,94.5 15.5,-0.7 m -7.5,56.05 27,0 m 84.5,0 21.5,0 m -73,-58.5 80.5,-3.8 m -344.5,62.3 44,0 M 99.4,94.5 242.9,88.35 m -15.5,61.5 35,0"
     style="fill:#000000;fill-opacity:0;stroke:#000000"
     id="path16"
     inkscape:connector-curvature="0" />
  <path
     d="m 42.1,191.35 q 1.4,1.35 1.4,3.3 0,1.95 -1.4,3.25 -0.85,0.85 -1.85,1.15 -0.7,0.25 -1.4,0.25 -0.7,0 -1.3,-0.25 -1.1,-0.3 -2,-1.15 -0.4,-0.45 -0.65,-0.85 -0.7,-1 -0.7,-2.4 0,-1.95 1.35,-3.3 1.35,-1.35 3.3,-1.35 1.95,0 3.25,1.35"
     id="1"
     style="fill:#ffffff;fill-opacity:1;stroke:#000000"
     inkscape:connector-curvature="0" />
  <path
     d="m 42.1,177.8 q 1.4,1.4 1.4,3.35 0,1.9 -1.4,3.2 -0.85,0.85 -1.85,1.2 -0.7,0.2 -1.4,0.2 -0.7,0 -1.3,-0.2 -1.1,-0.35 -2,-1.2 -0.4,-0.45 -0.65,-0.85 -0.7,-1 -0.7,-2.35 0,-1.95 1.35,-3.35 1.35,-1.3 3.3,-1.3 1.95,0 3.25,1.3"
     id="2"
     style="fill:#ffffff;fill-opacity:1;stroke:#000000"
     inkscape:connector-curvature="0" />
  <path
     d="m 85.85,198.65 170.95,4.25 q -0.95,40.15 -15.05,80.3 L 141.85,279.95 90.95,249.9 79.2,228.35 q 3.7,-8.2 5.4,-14.8 1.95,-7.95 1.25,-14.9"
     id="101"
     style="fill:#ffffff;fill-opacity:1;stroke:#000000"
     inkscape:connector-curvature="0" />
  <path
     d="m 56.15,129.85 q 1.35,1.35 1.35,3.25 0,1.8 -1.35,3.1 -1.3,1.45 -3.2,1.45 -1.9,0 -3.25,-1.45 -1.3,-1.3 -1.3,-3.1 0,-1.9 1.3,-3.25 1.35,-1.3 3.25,-1.3 1.9,0 3.2,1.3"
     id="8"
     style="fill:#ffffff;fill-opacity:1;stroke:#000000"
     inkscape:connector-curvature="0" />
  <path
     d="m 56.2,161.8 q 1.4,1.4 1.4,3.3 0,1.95 -1.4,3.25 -1.3,1.4 -3.25,1.4 -1.9,0 -3.3,-1.4 -1.3,-1.3 -1.3,-3.25 0,-1.9 1.3,-3.3 1.3,-1.25 3.45,-1.35 1.85,0.1 3.1,1.35"
     id="7"
     style="fill:#ffffff;fill-opacity:1;stroke:#000000"
     inkscape:connector-curvature="0" />
  <path
     d="m 42.05,116 q 1.35,1.35 1.35,3.25 0,1.9 -1.35,3.15 -1.3,1.4 -3.2,1.4 -1.9,0 -3.25,-1.4 -1.3,-1.25 -1.3,-3.15 0,-1.9 1.3,-3.25 1.35,-1.3 3.25,-1.3 1.9,0 3.2,1.3"
     id="5"
     style="fill:#ffffff;fill-opacity:1;stroke:#000000"
     inkscape:connector-curvature="0" />
  <path
     d="m 56.2,174.2 q 1.4,1.35 1.4,3.3 0,1.95 -1.4,3.25 -0.85,0.85 -1.85,1.15 -0.7,0.25 -1.4,0.25 -0.7,0 -1.3,-0.25 -1.1,-0.3 -2,-1.15 -0.4,-0.45 -0.65,-0.85 -0.65,-1 -0.65,-2.4 0,-1.95 1.3,-3.3 1.4,-1.35 3.3,-1.35 1.95,0 3.25,1.35"
     id="6"
     style="fill:#ffffff;fill-opacity:1;stroke:#000000"
     inkscape:connector-curvature="0" />
  <path
     d="m 42.15,161.8 q 1.35,1.4 1.35,3.3 0,1.95 -1.35,3.25 -1.35,1.4 -3.25,1.4 -1.95,0 -3.35,-1.4 -1.3,-1.3 -1.3,-3.25 0,-1.9 1.3,-3.3 1.35,-1.25 3.5,-1.35 1.85,0.1 3.1,1.35"
     id="3"
     style="fill:#ffffff;fill-opacity:1;stroke:#000000"
     inkscape:connector-curvature="0" />
  <path
     d="m 42.05,130.3 q 1.35,1.35 1.35,3.25 0,1.9 -1.35,3.15 -1.3,1.4 -3.2,1.4 -1.9,0 -3.25,-1.4 -1.3,-1.25 -1.3,-3.15 0,-1.9 1.3,-3.25 1.35,-1.3 3.25,-1.3 1.9,0 3.2,1.3"
     id="4"
     style="fill:#ffffff;fill-opacity:1;stroke:#000000"
     inkscape:connector-curvature="0" />
  <path
     d="m 325.65,27.65 q 12.1,29.1 18.1,61.75 0.9,4.8 1.65,9.65 L 451.95,95.2 Q 451,53.25 436.3,11.3 l -116.7,2.85 q 3.05,6.3 6.05,13.5 M 291.45,20 q 3.8,6.75 7.45,14.85 11.65,25.9 17.55,55.65 0.95,4.75 1.75,9.55 l -38.25,1.35 Q 276.45,58.8 263.3,34.45 L 288.4,14.9 291.45,20 M 242.05,15.45 141.2,19.15 92.3,49.5 79.85,71.05 q 5.9,15.5 6.85,31 L 256.75,95.5 Q 254.6,56.4 242.05,15.45 m 39.85,88.15 q 6.25,45.9 -1,91.8 l 162.9,5.85 q 5.55,-50.9 0,-101.75 l -161.9,4.1 m 170.4,100.3 -107.8,-3.3 q -7.25,42.65 -25.8,84.05 l 119.55,3.15 14.05,-83.9 m -188.7,61.35 q 10.35,-32.7 17,-66.6 l 36.4,1.1 q -7.8,41.8 -27.6,84.1 l -25.8,-18.6 M 241.75,283.2 141.85,279.95 90.95,249.9 79.2,228.35 q 3.7,-8.2 5.4,-14.8 1.95,-7.95 1.25,-14.9 l 170.95,4.25 q -0.95,40.15 -15.05,80.3 m 33.3,-83.25 -198.8,-3.9 Q 85.1,151 74.95,105.95 l 200.1,-7.35 q 3.75,51.3 0,101.35 M 57.5,121.45 q 0,1.9 -1.35,3.15 -1.3,1.4 -3.2,1.4 -1.9,0 -3.25,-1.4 -1.3,-1.25 -1.3,-3.15 0,-1.9 1.3,-3.25 1.35,-1.3 3.25,-1.3 1.9,0 3.2,1.3 1.35,1.35 1.35,3.25 m -23.2,-2.2 q 0,-1.9 1.3,-3.25 1.35,-1.3 3.25,-1.3 1.9,0 3.2,1.3 1.35,1.35 1.35,3.25 0,1.9 -1.35,3.15 -1.3,1.4 -3.2,1.4 -1.9,0 -3.25,-1.4 -1.3,-1.25 -1.3,-3.15 m 4.55,9.75 q 1.9,0 3.2,1.3 1.35,1.35 1.35,3.25 0,1.9 -1.35,3.15 -1.3,1.4 -3.2,1.4 -1.9,0 -3.25,-1.4 -1.3,-1.25 -1.3,-3.15 0,-1.9 1.3,-3.25 1.35,-1.3 3.25,-1.3 m 14.1,8.65 q -1.9,0 -3.25,-1.45 -1.3,-1.3 -1.3,-3.1 0,-1.9 1.3,-3.25 1.35,-1.3 3.25,-1.3 1.9,0 3.2,1.3 1.35,1.35 1.35,3.25 0,1.8 -1.35,3.1 -1.3,1.45 -3.2,1.45 m 0.15,22.8 q 1.85,0.1 3.1,1.35 1.4,1.4 1.4,3.3 0,1.95 -1.4,3.25 -1.3,1.4 -3.25,1.4 -1.9,0 -3.3,-1.4 -1.3,-1.3 -1.3,-3.25 0,-1.9 1.3,-3.3 1.3,-1.25 3.45,-1.35 m 3.1,13.75 q 1.4,1.35 1.4,3.3 0,1.95 -1.4,3.25 -0.85,0.85 -1.85,1.15 -0.7,0.25 -1.4,0.25 -0.7,0 -1.3,-0.25 -1.1,-0.3 -2,-1.15 -0.4,-0.45 -0.65,-0.85 -0.65,-1 -0.65,-2.4 0,-1.95 1.3,-3.3 1.4,-1.35 3.3,-1.35 1.95,0 3.25,1.35 M 39.05,160.45 q 1.85,0.1 3.1,1.35 1.35,1.4 1.35,3.3 0,1.95 -1.35,3.25 -1.35,1.4 -3.25,1.4 -1.95,0 -3.35,-1.4 -1.3,-1.3 -1.3,-3.25 0,-1.9 1.3,-3.3 1.35,-1.25 3.5,-1.35 m 4.45,20.7 q 0,1.9 -1.4,3.2 -0.85,0.85 -1.85,1.2 -0.7,0.2 -1.4,0.2 -0.7,0 -1.3,-0.2 -1.1,-0.35 -2,-1.2 -0.4,-0.45 -0.65,-0.85 -0.7,-1 -0.7,-2.35 0,-1.95 1.35,-3.35 1.35,-1.3 3.3,-1.3 1.95,0 3.25,1.3 1.4,1.4 1.4,3.35 m -9.3,13.5 q 0,-1.95 1.35,-3.3 1.35,-1.35 3.3,-1.35 1.95,0 3.25,1.35 1.4,1.35 1.4,3.3 0,1.95 -1.4,3.25 -0.85,0.85 -1.85,1.15 -0.7,0.25 -1.4,0.25 -0.7,0 -1.3,-0.25 -1.1,-0.3 -2,-1.15 -0.4,-0.45 -0.65,-0.85 -0.7,-1 -0.7,-2.4"
     style="fill:#000000;fill-opacity:0;stroke:#000000"
     id="path31"
     inkscape:connector-curvature="0" />
  <path
     d="m 30.15,69.7 0,71.85 35.75,0 Q 64.5,127 60.9,117.2 l 13.65,0 q 6.4,33.15 0,66.3 l -12.95,0 q 2.1,-5.8 3.15,-13.25 0.55,-3.85 1.35,-13.7 l -35.95,0 0,72.8 -21.5,0 0,-159.65 21.5,0"
     style="fill:#000000;fill-opacity:1;stroke:#000000"
     id="path33"
     inkscape:connector-curvature="0" />
  <text
     x="141.55011"
     y="142.24001"
     font="10px &quot;Arial&quot;"
     style="font-size:13.05700016px;font-weight:bold;text-anchor:start;fill:#000000;stroke:none;font-family:Arial"
     font-weight="bold"
     font-size="10px"
     id="text35">
    <tspan
       dy="4.998383"
       id="tspan37">ORCHESTRA</tspan>
  </text>
  <text
     x="156.04478"
     y="155.29712"
     font="10px &quot;Arial&quot;"
     style="font-size:13.05700016px;font-weight:bold;text-anchor:start;fill:#000000;stroke:none;font-family:Arial"
     font-weight="bold"
     font-size="10px"
     id="text39">
    <tspan
       dy="4.998383"
       id="tspan41">CENTER</tspan>
  </text>
  <text
     x="135.46623"
     y="52.540001"
     font="10px &quot;Arial&quot;"
     style="font-size:13.05700016px;font-weight:bold;text-anchor:start;fill:#000000;stroke:none;font-family:Arial"
     font-weight="bold"
     font-size="10px"
     id="text43">
    <tspan
       dy="4.998383"
       id="tspan45">ORCHESTRA</tspan>
  </text>
  <text
     x="156.44478"
     y="65.597099"
     font="10px &quot;Arial&quot;"
     style="font-size:13.05700016px;font-weight:bold;text-anchor:start;fill:#000000;stroke:none;font-family:Arial"
     font-weight="bold"
     font-size="10px"
     id="text47">
    <tspan
       dy="4.998383"
       id="tspan49">RIGHT</tspan>
  </text>
  <text
     x="132.01024"
     y="234.39001"
     font="10px &quot;Arial&quot;"
     style="font-size:13.05700016px;font-weight:bold;text-anchor:start;fill:#000000;stroke:none;font-family:Arial"
     font-weight="bold"
     font-size="10px"
     id="text51">
    <tspan
       dy="4.998383"
       id="tspan53">ORCHESTRA</tspan>
  </text>
  <text
     x="156.94478"
     y="247.44711"
     font="10px &quot;Arial&quot;"
     style="font-size:13.05700016px;font-weight:bold;text-anchor:start;fill:#000000;stroke:none;font-family:Arial"
     font-weight="bold"
     font-size="10px"
     id="text55">
    <tspan
       dy="4.998383"
       id="tspan57">LEFT</tspan>
  </text>
  <text
     x="350.92868"
     y="49.038811"
     font="10px &quot;Arial&quot;"
     style="font-size:13.05700016px;font-weight:bold;text-anchor:start;fill:#000000;stroke:none;font-family:Arial"
     font-weight="bold"
     font-size="10px"
     id="text59">
    <tspan
       dy="4.998383"
       id="tspan61">MEZZANINE</tspan>
  </text>
  <text
     x="368.51865"
     y="62.095909"
     font="10px &quot;Arial&quot;"
     style="font-size:13.05700016px;font-weight:bold;text-anchor:start;fill:#000000;stroke:none;font-family:Arial"
     font-weight="bold"
     font-size="10px"
     id="text63">
    <tspan
       dy="4.998383"
       id="tspan65">RIGHT</tspan>
  </text>
  <text
     x="327.60532"
     y="141.98882"
     font="10px &quot;Arial&quot;"
     style="font-size:13.05700016px;font-weight:bold;text-anchor:start;fill:#000000;stroke:none;font-family:Arial"
     font-weight="bold"
     font-size="10px"
     id="text67">
    <tspan
       dy="4.998383"
       id="tspan69">MEZZANINE</tspan>
  </text>
  <text
     x="338.71143"
     y="155.0459"
     font="10px &quot;Arial&quot;"
     style="font-size:13.05700016px;font-weight:bold;text-anchor:start;fill:#000000;stroke:none;font-family:Arial"
     font-weight="bold"
     font-size="10px"
     id="text71">
    <tspan
       dy="4.998383"
       id="tspan73">CENTER</tspan>
  </text>
  <text
     x="350.92868"
     y="237.08881"
     font="10px &quot;Arial&quot;"
     style="font-size:13.05700016px;font-weight:bold;text-anchor:start;fill:#000000;stroke:none;font-family:Arial"
     font-weight="bold"
     font-size="10px"
     id="text75">
    <tspan
       dy="4.998383"
       id="tspan77">MEZZANINE</tspan>
  </text>
  <text
     x="372.47464"
     y="250.1459"
     font="10px &quot;Arial&quot;"
     style="font-size:13.05700016px;font-weight:bold;text-anchor:start;fill:#000000;stroke:none;font-family:Arial"
     font-weight="bold"
     font-size="10px"
     id="text79">
    <tspan
       dy="4.998383"
       id="tspan81">LEFT</tspan>
  </text>
  <text
     x="-171.11298"
     y="19.144241"
     font="10px &quot;Arial&quot;"
     style="font-size:13.05700016px;font-weight:bold;text-anchor:start;fill:#ffffff;stroke:none;font-family:Arial"
     transform="matrix(0,-1,1,0,0,0)"
     font-weight="bold"
     font-size="10px"
     id="text83">
    <tspan
       dy="4.998383"
       id="tspan85">STAGE</tspan>
  </text>
  <text
     x="37.553585"
     y="194.40121"
     font="10px &quot;Arial&quot;"
     style="font-size:5px;font-weight:bold;text-anchor:start;fill:#000000;stroke:none;font-family:Arial"
     font-weight="bold"
     font-size="5px"
     id="text87">
    <tspan
       dy="1.6640625"
       id="tspan89">A</tspan>
  </text>
  <text
     x="37.553585"
     y="180.90121"
     font="10px &quot;Arial&quot;"
     style="font-size:5px;font-weight:bold;text-anchor:start;fill:#000000;stroke:none;font-family:Arial"
     font-weight="bold"
     font-size="5px"
     id="text91">
    <tspan
       dy="1.6640625"
       id="tspan93">B</tspan>
  </text>
  <text
     x="37.553585"
     y="164.8512"
     font="10px &quot;Arial&quot;"
     style="font-size:5px;font-weight:bold;text-anchor:start;fill:#000000;stroke:none;font-family:Arial"
     font-weight="bold"
     font-size="5px"
     id="text95">
    <tspan
       dy="1.6640625"
       id="tspan97">C</tspan>
  </text>
  <text
     x="37.10239"
     y="133.4012"
     font="10px &quot;Arial&quot;"
     style="font-size:5px;font-weight:bold;text-anchor:start;fill:#000000;stroke:none;font-family:Arial"
     font-weight="bold"
     font-size="5px"
     id="text99">
    <tspan
       dy="1.6640625"
       id="tspan101">D</tspan>
  </text>
  <text
     x="37.10239"
     y="119.15119"
     font="10px &quot;Arial&quot;"
     style="font-size:5px;font-weight:bold;text-anchor:start;fill:#000000;stroke:none;font-family:Arial"
     font-weight="bold"
     font-size="5px"
     id="text103">
    <tspan
       dy="1.6640625"
       id="tspan105">E</tspan>
  </text>
  <text
     x="51.154781"
     y="177.40121"
     font="10px &quot;Arial&quot;"
     style="font-size:5px;font-weight:bold;text-anchor:start;fill:#000000;stroke:none;font-family:Arial"
     font-weight="bold"
     font-size="5px"
     id="text107">
    <tspan
       dy="1.6640625"
       id="tspan109">F</tspan>
  </text>
  <text
     x="50.952389"
     y="164.80121"
     font="10px &quot;Arial&quot;"
     style="font-size:5px;font-weight:bold;text-anchor:start;fill:#000000;stroke:none;font-family:Arial"
     font-weight="bold"
     font-size="5px"
     id="text111">
    <tspan
       dy="1.6640625"
       id="tspan113">G</tspan>
  </text>
  <text
     x="50.952389"
     y="133.25238"
     font="10px &quot;Arial&quot;"
     style="font-size:5px;font-weight:bold;text-anchor:start;fill:#000000;stroke:none;font-family:Arial"
     font-weight="bold"
     font-size="5px"
     id="text115">
    <tspan
       dy="1.6640625"
       id="tspan117">H</tspan>
  </text>
  <text
     x="50.953587"
     y="121.05119"
     font="10px &quot;Arial&quot;"
     style="font-size:5px;font-weight:bold;text-anchor:start;fill:#000000;stroke:none;font-family:Arial"
     font-weight="bold"
     font-size="5px"
     id="text119">
    <tspan
       dy="1.6640625"
       id="tspan121">J</tspan>
  </text>
  <text
     x="83.900002"
     y="149.45"
     font="10px &quot;Arial&quot;"
     style="font-size:7px;text-anchor:start;fill:#000000;stroke:none;font-family:Arial"
     font-weight="Bold"
     font-size="7px"
     id="text123">
    <tspan
       dy="2.7734375"
       id="tspan125">C</tspan>
  </text>
  <text
     x="266.10001"
     y="149.45"
     font="10px &quot;Arial&quot;"
     style="font-size:7px;text-anchor:start;fill:#000000;stroke:none;font-family:Arial"
     font-weight="Bold"
     font-size="7px"
     id="text127">
    <tspan
       dy="2.7734375"
       id="tspan129">W</tspan>
  </text>
  <text
     x="89.900002"
     y="94.599998"
     font="10px &quot;Arial&quot;"
     style="font-size:7px;text-anchor:start;fill:#000000;stroke:none;font-family:Arial"
     font-weight="Bold"
     font-size="7px"
     id="text131">
    <tspan
       dy="2.7734375"
       id="tspan133">C</tspan>
  </text>
  <text
     x="246.39999"
     y="88.099998"
     font="10px &quot;Arial&quot;"
     style="font-size:7px;text-anchor:start;fill:#000000;stroke:none;font-family:Arial"
     font-weight="Bold"
     font-size="7px"
     id="text135">
    <tspan
       dy="2.7734375"
       id="tspan137">T</tspan>
  </text>
  <text
     x="288.39999"
     y="149.8"
     font="10px &quot;Arial&quot;"
     style="font-size:7px;text-anchor:start;fill:#000000;stroke:none;font-family:Arial"
     font-weight="Bold"
     font-size="7px"
     id="text139">
    <tspan
       dy="2.7734375"
       id="tspan141">A</tspan>
  </text>
  <text
     x="434.39999"
     y="149.8"
     font="10px &quot;Arial&quot;"
     style="font-size:7px;text-anchor:start;fill:#000000;stroke:none;font-family:Arial"
     font-weight="Bold"
     font-size="7px"
     id="text143">
    <tspan
       dy="2.7734375"
       id="tspan145">S</tspan>
  </text>
  <text
     x="282.8024"
     y="93.697624"
     font="10px &quot;Arial&quot;"
     style="font-size:7px;text-anchor:start;fill:#000000;stroke:none;font-family:Arial"
     font-weight="Bold"
     font-size="7px"
     id="text147">
    <tspan
       dy="2.7734375"
       id="tspan149">A</tspan>
  </text>
  <text
     x="308.3024"
     y="93.197624"
     font="10px &quot;Arial&quot;"
     style="font-size:7px;text-anchor:start;fill:#000000;stroke:none;font-family:Arial"
     font-weight="Bold"
     font-size="7px"
     id="text151">
    <tspan
       dy="2.7734375"
       id="tspan153">D</tspan>
  </text>
  <text
     x="349.8024"
     y="91.197624"
     font="10px &quot;Arial&quot;"
     style="font-size:7px;text-anchor:start;fill:#000000;stroke:none;font-family:Arial"
     font-weight="Bold"
     font-size="7px"
     id="text155">
    <tspan
       dy="2.7734375"
       id="tspan157">G</tspan>
  </text>
  <text
     x="441.90002"
     y="87.197624"
     font="10px &quot;Arial&quot;"
     style="font-size:7px;text-anchor:start;fill:#000000;stroke:none;font-family:Arial"
     font-weight="Bold"
     font-size="7px"
     id="text159">
    <tspan
       dy="2.7734375"
       id="tspan161">T</tspan>
  </text>
</svg>
