<?xml version="1.0" encoding="UTF-8" standalone="no"?>
<svg
   xmlns:dc="http://purl.org/dc/elements/1.1/"
   xmlns:cc="http://creativecommons.org/ns#"
   xmlns:rdf="http://www.w3.org/1999/02/22-rdf-syntax-ns#"
   xmlns:svg="http://www.w3.org/2000/svg"
   xmlns="http://www.w3.org/2000/svg"
   xmlns:sodipodi="http://sodipodi.sourceforge.net/DTD/sodipodi-0.dtd"
   xmlns:inkscape="http://www.inkscape.org/namespaces/inkscape"
   height="353.14999"
   version="1.1"
   width="483.79999"
   style="overflow:hidden"
   viewBox="0 0 483.79999 353.14999"
   preserveAspectRatio="xMinYMin"
   id="svg2"
   inkscape:version="0.48.0 r9654"
   sodipodi:docname="BudweiserGardens_--Hockey.svg">
  <metadata
     id="metadata325">
    <rdf:RDF>
      <cc:Work
         rdf:about="">
        <dc:format>image/svg+xml</dc:format>
        <dc:type
           rdf:resource="http://purl.org/dc/dcmitype/StillImage" />
      </cc:Work>
    </rdf:RDF>
  </metadata>

  <sodipodi:namedview
     pagecolor="#ffffff"
     bordercolor="#666666"
     borderopacity="1"
     objecttolerance="10"
     gridtolerance="10"
     guidetolerance="10"
     inkscape:pageopacity="0"
     inkscape:pageshadow="2"
     inkscape:window-width="1920"
     inkscape:window-height="1058"
     id="namedview323"
     showgrid="false"
     fit-margin-top="0"
     fit-margin-left="0"
     fit-margin-right="0"
     fit-margin-bottom="0"
     inkscape:zoom="2.328"
     inkscape:cx="194.41656"
     inkscape:cy="162.66586"
     inkscape:window-x="-8"
     inkscape:window-y="-8"
     inkscape:window-maximized="1"
     inkscape:current-layer="svg2" />
  <desc
     id="desc4">Created with Raphaël 2.1.0</desc>
  <defs
     id="defs6" />
  <path
     style="fill:#cccccc;fill-opacity:1;stroke:#000000"
     d="m 377.2,4.95 41.45,24.85 31.3,29.95 21.85,38.4 11.5,46 0,66.3 -11.15,41.65 -20.6,36.8 -30.9,32.2 -43.9,26.85 -6,-14.05 -31.5,9.65 -210.9,0 0,9.1 -14.75,0 L 45,334.7 60.75,293.35 Q 55.05,288.95 49.55,284 0.5,239.6 0.5,176.65 0.5,113.75 49.55,69.35 55.15,64.25 61,59.8 L 45,18.45 113.6,0.5 l 14.75,0 0,10.4 46.9,0 0,-10.4 79.55,0 0,10.4 86.2,0 29.65,7.65 6.55,-13.6 m -25.85,58.25 18.3,-37.7 -31.75,-8.4 -33.45,0 0,35.8 4.15,0 q 6.35,0.65 18.7,3.55 8.5,2 15.75,3.95 4.2,1.3 8.3,2.8 m 2.05,4.4 q -1.6,-0.7 -3.3,-1.4 -5.25,-2 -10.6,-3.6 -3.1,-1 -9.1,-2.35 -11.25,-2.55 -24.55,-4.55 l -188.2,0 q -6.85,0 -14.15,1.2 l 3.65,18.45 q 8.25,-0.9 8.5,-0.95 l 192.25,0 q 0.1,0.05 7.3,0.9 7.75,1.1 11.1,1.9 4.35,0.95 6.5,1.8 23.3,7 41.8,24.95 1.85,1.75 3.55,3.6 L 394.45,96.1 390.5,92.25 Q 373.6,76.3 353.4,67.6 m -30.35,11.35 q -8.5,-1.7 -15.8,-2.15 l -3.9,0 0,50.4 14.55,0 q 5.15,0 9.65,1.7 l 30.1,-35.2 Q 345.8,85.55 332.3,81.2 q -3.85,-1.25 -9.25,-2.25 m 65.75,41.8 q 0.05,0.05 0.15,0.15 3.9,6.15 7.2,12.55 l 21.25,-4.9 q -4.4,-9.1 -10.3,-17.5 l -1.25,-1.75 q -3.95,-5.25 -8.5,-10.15 l -16.4,11.45 q 0.45,0.55 0.95,1.1 2.35,2.8 6.9,9.05 M 354.7,64.6 q 19.85,8.2 36.75,23.5 L 429.4,50.1 415.45,36.25 379.4,14.85 354.7,64.6 m 25.05,49.25 q -1.3,-1.6 -2.7,-3.15 -2.75,-2.95 -5.7,-5.8 -4.95,-4.7 -10.2,-8.65 l -29.7,34.5 q 3.3,1.9 6.15,4.95 4.5,4.8 6.5,10.45 L 393,134.2 q -5.1,-10.8 -13.25,-20.35 M 400.4,97 q 4.55,4.95 8.45,10.2 l 3.9,5.55 q 4.75,7.2 8.3,14.95 L 469.6,116.65 465.85,102 445,65.55 432.35,53.1 l -37.9,37.85 4.1,4.1 Q 399.5,96 400.4,97 m 76.7,76.6 0,-27.9 -6.45,-24.95 -47.9,10.8 q 8.15,19.5 8.6,42.05 l 45.75,0 m -79.2,-36.25 q 7,16.75 7.3,36.25 l 22.6,0 q -0.6,-22.1 -8.65,-41.2 l -21.25,4.95 m 28.25,60.05 0.25,-1.5 q 1.35,-8.85 1.4,-18.15 l -22.6,0 q -0.25,7.45 -1.35,14.5 l -0.35,2.1 q -2.4,10.7 -6.5,20.75 l 21.95,6.55 q 0.3,-0.9 0.7,-1.85 1,-2.65 1.85,-5.35 2.8,-8.2 4.6,-16.85 0,-0.05 0.05,-0.2 m 3.45,0.45 q -0.2,1 -0.35,1.9 -0.25,1.15 -0.45,2.3 -0.2,0.9 -0.45,1.85 -1.4,6.25 -3.5,12.15 -0.75,2.05 -1.55,4.15 -0.5,1.2 -0.95,2.4 l 46.75,15.9 8,-28.6 0,-32.15 -45.75,0 q -0.1,10.35 -1.75,20.1 m -28.95,-6.5 q 1.05,-6.65 1.25,-13.6 l -56.1,0 0,18.5 q 0,1.35 -0.1,2.65 l 48.05,15.2 q 3.5,-7.75 5.5,-16.15 0.35,-1.25 0.6,-2.5 0.15,-0.75 0.3,-1.55 0.25,-1.3 0.5,-2.55 m -54.85,-35.3 0,17.55 56.1,0 q -0.2,-19.15 -7.2,-35.55 l -49.45,12.1 q 0.55,2.85 0.55,5.9 m -7.9,60.25 q -2.95,3.15 -6.35,5.15 l 28.5,32.95 q 3.65,-2.7 7.25,-5.7 2,-1.8 4,-3.7 l 0.05,-0.05 q 1.75,-1.7 3.45,-3.35 1.4,-1.5 2.85,-3.05 7.7,-8.7 13,-18.35 0.6,-1.15 1.2,-2.25 L 345.1,203.1 q -1.7,7.4 -7.2,13.2 m 56.65,3.9 q -5.2,9.9 -12.85,18.9 l -3.7,3.85 q -1.85,1.9 -3.7,3.7 -5.95,5.6 -12.2,10.35 l 14,16.1 q 8.4,-6.1 16.15,-13.65 l 6.4,-6.45 q 1.7,-1.9 3.3,-3.8 9.3,-11.3 15.3,-23.8 l -22.05,-6.45 q -0.3,0.6 -0.65,1.25 m -66.8,3.05 q -4.55,1.8 -9.85,1.8 l -14.6,0 0,49.2 7.8,0 q 2,-0.6 18.45,-4.75 12.4,-3.7 23.5,-10.45 1.8,-1.1 3.6,-2.3 l -28.9,-33.5 m 64.3,41.15 q -0.85,0.7 -1.6,1.45 -5.95,5.3 -12.25,9.75 -11.05,7.65 -23.2,12.75 l 24.05,49.9 36.95,-21.8 12.75,-13 -36.7,-39.05 m -33.45,-5.05 -0.05,0.1 q -12.05,7.85 -25.75,12.05 -14.35,3.6 -21.2,4.95 l -203.4,0 -4.4,18.35 q 3.8,0.3 7.55,0.3 l 200.8,0 q 9.6,-1.4 27.35,-4.25 17.6,-5.15 33,-15.25 l 0.05,0 -0.05,-0.1 -13.9,-16.15 m -15.55,33.2 q -4.45,1 -10.55,2.05 -11.8,2.15 -19.55,2.7 l -9.65,0 0,38.6 34.05,0 31.3,-8.7 -17.5,-37.3 q -3.95,1.45 -8.1,2.65 m 122.8,-42.4 2.15,-7.65 -47.4,-16.1 q -5.85,12.25 -14.7,23.3 -1.6,1.95 -3.3,3.85 -0.9,1 -1.8,2.05 -1.5,1.6 -2.95,3.1 -1.35,1.45 -2.8,2.8 l 36.7,38.9 14.1,-14.35 20,-35.9 M 244.6,17.1 l 0,35.8 55.7,0 0,-35.8 -55.7,0 m 1.05,59.7 0,50.4 53.55,0 0,-50.4 -53.55,0 m -60.2,-59.7 -57.55,0 0,35.8 57.55,0 0,-35.8 m 4.45,59.7 0,50.4 51.6,0 0,-50.4 -51.6,0 M 57.6,73.6 68.55,88.8 q 10.5,-6.3 22.15,-9.8 2.2,-0.85 6.5,-1.8 2.8,-0.7 5.75,-1.15 L 99.4,57.6 Q 88,59.9 75.5,65 64.9,69.3 57.6,73.6 m 66.15,-56.5 -9.9,0 -28.25,7.4 5.5,32.3 q 12.55,-3.5 23.8,-3.9 l 8.85,0 0,-35.8 m 116.65,35.8 0,-35.8 -50.75,0 0,35.8 50.75,0 M 94,80.3 q -2.3,0.7 -5.85,2.2 -2.05,0.85 -5.9,2.55 l 24.8,42.95 q 3.2,-0.8 6.75,-0.8 l 19.1,0 0,-50.4 -16.6,0 q -8.95,0.5 -16.5,2.1 -3.8,0.75 -5.8,1.4 m -25.6,11.8 0,33.85 22.75,13.5 q 1.3,-1.95 3,-3.75 4.05,-4.25 8.95,-6.3 L 78.5,86.8 q -6.8,3.15 -10.1,5.3 m 34.65,130.8 q -4.85,-2.1 -8.9,-6.25 -2,-2.2 -3.5,-4.5 l -22.25,13 0,32.65 q 5.55,3.5 11.4,6.3 l 23.25,-41.2 M 86,156.05 q 0,-1.75 0.2,-3.4 l -26.5,-9.1 -5,15.7 0,33.15 4.35,16.5 27.1,-9.6 Q 86,197.8 86,196.25 l 0,-40.2 M 59,280.3 q 5.45,3.55 14.25,7.1 12.8,5.2 25.8,6.9 l 5.3,-18.9 -12.65,-3.45 q -13,-4 -20.7,-8.05 l -12,16.4 m 54.8,-55.25 q -3.5,0 -6.7,-0.8 L 83.65,265.8 q 5.05,2.1 10.35,3.7 18.3,4.7 18.45,4.75 l 20.3,0 0,-49.2 -18.95,0 m -2.65,72.25 -0.05,0 q -9.9,0.05 -19.7,-2 l -7.2,32.4 31.3,8.2 8.25,0 0,-38.6 -12.6,0 m 25.8,-23.05 49.6,0 0,-49.2 -49.6,0 0,49.2 m 53.8,0 50.85,0 0,-49.2 -50.85,0 0,49.2 m 55.05,-49.2 0,49.2 53.35,0 0,-49.2 -53.35,0 m -0.3,72.25 0,38.6 53.35,0 0,-38.6 -53.35,0 m -59.45,0 0,38.6 55.3,0 0,-38.6 -55.3,0 m -58.15,0 0,38.6 54,0 0,-38.6 -54,0 m 9.15,-220.5 0,50.4 48.7,0 0,-50.4 -48.7,0"
     id="path8"
     inkscape:connector-curvature="0" />
  <path
     style="fill:#eeeeee;fill-opacity:1;stroke:#000000"
     d="m 351.35,63.2 q -4.1,-1.5 -8.3,-2.8 -7.25,-1.95 -15.75,-3.95 -12.35,-2.9 -18.7,-3.55 l -4.15,0 0,-35.8 33.45,0 31.75,8.4 -18.3,37.7 m 2.05,4.4 q 20.2,8.7 37.1,24.65 l 3.95,3.85 -16.3,11.45 q -1.7,-1.85 -3.55,-3.6 Q 356.1,86 332.8,79 q -2.15,-0.85 -6.5,-1.8 -3.35,-0.8 -11.1,-1.9 -7.2,-0.85 -7.3,-0.9 l -192.25,0 q -0.25,0.05 -8.5,0.95 L 103.5,56.9 q 7.3,-1.2 14.15,-1.2 l 188.2,0 q 13.3,2 24.55,4.55 6,1.35 9.1,2.35 5.35,1.6 10.6,3.6 1.7,0.7 3.3,1.4 m 35.4,53.15 q -4.55,-6.25 -6.9,-9.05 -0.5,-0.55 -0.95,-1.1 l 16.4,-11.45 q 4.55,4.9 8.5,10.15 l 1.25,1.75 q 5.9,8.4 10.3,17.5 l -21.25,4.9 q -3.3,-6.4 -7.2,-12.55 -0.1,-0.1 -0.15,-0.15 m -65.75,-41.8 q 5.4,1 9.25,2.25 13.5,4.35 25.35,12.5 l -30.1,35.2 q -4.5,-1.7 -9.65,-1.7 l -14.55,0 0,-50.4 3.9,0 q 7.3,0.45 15.8,2.15 m 56.7,34.9 q 8.15,9.55 13.25,20.35 l -48.9,11.95 q -2,-5.65 -6.5,-10.45 -2.85,-3.05 -6.15,-4.95 l 29.7,-34.5 q 5.25,3.95 10.2,8.65 2.95,2.85 5.7,5.8 1.4,1.55 2.7,3.15 M 354.7,64.6 l 24.7,-49.75 36.05,21.4 13.95,13.85 -37.95,38 Q 374.55,72.8 354.7,64.6 M 400.4,97 q -0.9,-1 -1.85,-1.95 l -4.1,-4.1 37.9,-37.85 12.65,12.45 20.85,36.45 3.75,14.65 -48.55,11.05 q -3.55,-7.75 -8.3,-14.95 l -3.9,-5.55 q -3.9,-5.25 -8.45,-10.2 m 76.7,76.6 -45.75,0 q -0.45,-22.55 -8.6,-42.05 l 47.9,-10.8 6.45,24.95 0,27.9 m -79.2,-36.25 21.25,-4.95 q 8.05,19.1 8.65,41.2 l -22.6,0 q -0.3,-19.5 -7.3,-36.25 m 28.25,60.05 q -0.05,0.15 -0.05,0.2 -1.8,8.65 -4.6,16.85 -0.85,2.7 -1.85,5.35 -0.4,0.95 -0.7,1.85 L 397,215.1 q 4.1,-10.05 6.5,-20.75 l 0.35,-2.1 q 1.1,-7.05 1.35,-14.5 l 22.6,0 q -0.05,9.3 -1.4,18.15 l -0.25,1.5 M 345.8,156.05 q 0,-3.05 -0.55,-5.9 l 49.45,-12.1 q 7,16.4 7.2,35.55 l -56.1,0 0,-17.55 m 54.85,35.3 q -0.25,1.25 -0.5,2.55 -0.15,0.8 -0.3,1.55 -0.25,1.25 -0.6,2.5 -2,8.4 -5.5,16.15 L 345.7,198.9 q 0.1,-1.3 0.1,-2.65 l 0,-18.5 56.1,0 q -0.2,6.95 -1.25,13.6 m 28.95,6.5 q 1.65,-9.75 1.75,-20.1 l 45.75,0 0,32.15 -8,28.6 -46.75,-15.9 q 0.45,-1.2 0.95,-2.4 0.8,-2.1 1.55,-4.15 2.1,-5.9 3.5,-12.15 0.25,-0.95 0.45,-1.85 0.2,-1.15 0.45,-2.3 0.15,-0.9 0.35,-1.9 m -91.7,18.45 q 5.5,-5.8 7.2,-13.2 l 46.75,14.85 q -0.6,1.1 -1.2,2.25 -5.3,9.65 -13,18.35 -1.45,1.55 -2.85,3.05 -1.7,1.65 -3.45,3.35 L 371.3,245 q -2,1.9 -4,3.7 -3.6,3 -7.25,5.7 l -28.5,-32.95 q 3.4,-2 6.35,-5.15 m 56.65,3.9 q 0.35,-0.65 0.65,-1.25 l 22.05,6.45 q -6,12.5 -15.3,23.8 -1.6,1.9 -3.3,3.8 l -6.4,6.45 Q 384.5,267 376.1,273.1 l -14,-16.1 q 6.25,-4.75 12.2,-10.35 1.85,-1.8 3.7,-3.7 l 3.7,-3.85 q 7.65,-9 12.85,-18.9 m -35.95,39.15 13.9,16.15 0.05,0.1 -0.05,0 q -15.4,10.1 -33,15.25 -17.75,2.85 -27.35,4.25 l -200.8,0 q -3.75,0 -7.55,-0.3 l 4.4,-18.35 203.4,0 q 6.85,-1.35 21.2,-4.95 13.7,-4.2 25.75,-12.05 l 0.05,-0.1 m 33.45,5.05 36.7,39.05 -12.75,13 -36.95,21.8 -24.05,-49.9 q 12.15,-5.1 23.2,-12.75 6.3,-4.45 12.25,-9.75 0.75,-0.75 1.6,-1.45 m -64.3,-41.15 28.9,33.5 q -1.8,1.2 -3.6,2.3 -11.1,6.75 -23.5,10.45 -16.45,4.15 -18.45,4.75 l -7.8,0 0,-49.2 14.6,0 q 5.3,0 9.85,-1.8 m 15.3,69.3 q 4.15,-1.2 8.1,-2.65 l 17.5,37.3 -31.3,8.7 -34.05,0 0,-38.6 9.65,0 q 7.75,-0.55 19.55,-2.7 6.1,-1.05 10.55,-2.05 m 122.8,-42.4 -20,35.9 -14.1,14.35 -36.7,-38.9 q 1.45,-1.35 2.8,-2.8 1.45,-1.5 2.95,-3.1 0.9,-1.05 1.8,-2.05 1.7,-1.9 3.3,-3.85 8.85,-11.05 14.7,-23.3 l 47.4,16.1 -2.15,7.65 M 189.9,76.8 l 51.6,0 0,50.4 -51.6,0 0,-50.4 m -4.45,-59.7 0,35.8 -57.55,0 0,-35.8 57.55,0 m 60.2,59.7 53.55,0 0,50.4 -53.55,0 0,-50.4 m -1.05,-59.7 55.7,0 0,35.8 -55.7,0 0,-35.8 m -4.2,35.8 -50.75,0 0,-35.8 50.75,0 0,35.8 m -116.65,-35.8 0,35.8 -8.85,0 q -11.25,0.4 -23.8,3.9 l -5.5,-32.3 28.25,-7.4 9.9,0 M 57.6,73.6 Q 64.9,69.3 75.5,65 88,59.9 99.4,57.6 l 3.55,18.45 Q 100,76.5 97.2,77.2 92.9,78.15 90.7,79 79.05,82.5 68.55,88.8 L 57.6,73.6 m 10.8,18.5 q 3.3,-2.15 10.1,-5.3 l 24.6,42.6 q -4.9,2.05 -8.95,6.3 -1.7,1.8 -3,3.75 L 68.4,125.95 68.4,92.1 M 94,80.3 q 2,-0.65 5.8,-1.4 7.55,-1.6 16.5,-2.1 l 16.6,0 0,50.4 -19.1,0 q -3.55,0 -6.75,0.8 L 82.25,85.05 Q 86.1,83.35 88.15,82.5 91.7,81 94,80.3 m -8,75.75 0,40.2 q 0,1.55 0.15,3.05 l -27.1,9.6 -4.35,-16.5 0,-33.15 5,-15.7 26.5,9.1 q -0.2,1.65 -0.2,3.4 m 17.05,66.85 -23.25,41.2 q -5.85,-2.8 -11.4,-6.3 l 0,-32.65 22.25,-13 q 1.5,2.3 3.5,4.5 4.05,4.15 8.9,6.25 m 10.75,2.15 18.95,0 0,49.2 -20.3,0 Q 112.3,274.2 94,269.5 88.7,267.9 83.65,265.8 l 23.45,-41.55 q 3.2,0.8 6.7,0.8 M 59,280.3 71,263.9 q 7.7,4.05 20.7,8.05 l 12.65,3.45 -5.3,18.9 q -13,-1.7 -25.8,-6.9 -8.8,-3.55 -14.25,-7.1 m 52.15,17 12.6,0 0,38.6 -8.25,0 -31.3,-8.2 7.2,-32.4 q 9.8,2.05 19.7,2 l 0.05,0 m 16.75,0 54,0 0,38.6 -54,0 0,-38.6 m 58.15,0 55.3,0 0,38.6 -55.3,0 0,-38.6 m 59.45,0 53.35,0 0,38.6 -53.35,0 0,-38.6 m 0.3,-72.25 53.35,0 0,49.2 -53.35,0 0,-49.2 m -55.05,49.2 0,-49.2 50.85,0 0,49.2 -50.85,0 m -53.8,0 0,-49.2 49.6,0 0,49.2 -49.6,0 m 0.1,-197.45 48.7,0 0,50.4 -48.7,0 0,-50.4"
     id="path10"
     inkscape:connector-curvature="0" />
  <path
     style="fill:#000000;fill-opacity:0;stroke:#666666"
     d="m 377.2,4.95 41.45,24.85 31.3,29.95 21.85,38.4 11.5,46 0,66.3 -11.15,41.65 -20.6,36.8 -30.9,32.2 -43.9,26.85 -6,-14.05 -31.5,9.65 -210.9,0 0,9.1 -14.75,0 L 45,334.7 60.75,293.35 Q 55.05,288.95 49.55,284 0.5,239.6 0.5,176.65 0.5,113.75 49.55,69.35 55.15,64.25 61,59.8 L 45,18.45 113.6,0.5 l 14.75,0 0,10.4 46.9,0 0,-10.4 79.55,0 0,10.4 86.2,0 29.65,7.65 6.55,-13.6"
     id="path12"
     inkscape:connector-curvature="0" />
  <path
     style="fill:#eeeeee;fill-opacity:1;stroke:#000000"
     d="m 249.4,14.8 -68.75,0 0,-5.5 68.75,0 0,5.5 M 84.325,16.65 112.5,9.3 l 11.25,0 0,5.5 -10.05,0 -28.425,7.425 -0.95,-5.575 m -5.875,1.9 1.25,5.5 L 54.3,31 52.4,25.7 78.45,18.55 M 66.9,65.7 55.05,32.85 l 25.2,-6.9 7.025,32 0.075,0.3 q -3.944141,1.00703 -7.9,2.35 -1.960547,0.73379 -3.95,1.55 -4.3,1.75 -8.2,3.35 -0.200391,0.1002 -0.4,0.2 m -1.5,28.1 0,34.65 -7.4,10.3 -34.1,-11.925 q 6.509766,-14.22031 16.9,-26.375 0.35,-0.4 0.75,-0.8 0.237695,-0.27734 0.475,-0.55 l 9.275,8.6 q 6.75,-8.1 14.1,-13.9 m -25,4.15 Q 39.7,98.7 39.05,99.5 28.561719,111.91758 22.1,126.2 l -6.15,-2.15 q 6.9,-16 18.45,-29.75 0.55,-0.65 1.1,-1.25 l 5.075,4.7 q -0.09258,0.10254 -0.175,0.2 m 11.9,58.55 -36.325,-5.4 q 1.982031,-9.84297 5.575,-18.85 0.2,-0.6 0.45,-1.05 0.05,-0.2 0.175,-0.55 L 56.8,142.55 52.3,156.5 M 19.8,131.7 q -3.612891,9.13008 -5.6,19.125 L 8.1,149.9 q 2.15,-11.5 6.25,-21.95 l 6.075,2.1 q -0.375,0.9 -0.625,1.65 m -4.725,24.025 36.375,4.625 0,30.4 -36.7,4.85 q -0.05,-0.2 -0.05,-0.35 -0.05,-0.15 -0.05,-0.25 -0.05,-0.3 -0.05,-0.55 -1.15,-8.65 -1.15,-17.9 0,-10.5 1.55,-20.35 0,-0.15 0.075,-0.475 M 13.75,200.4 q 1.9,10.8 5.65,20.55 0.3,0.85 0.65,1.65 0.0334,0.0834 0.075,0.175 l -5.875,2.075 q -4.4,-11.2 -6.5,-23.55 l 6,-0.9 m -0.425,-44.9 q -0.075,0.3 -0.075,0.45 -1.55,9.95 -1.55,20.6 0,9.35 1.15,18.15 0.05,0.4 0.1,0.8 0,0.15 0,0.325 L 7,196.6 q -1.3,-9.7 -1.3,-20.05 0,-11.3 1.6,-21.8 l 6.025,0.75 m 2.2,44.625 36.575,-5.575 4.25,15.35 -34.475,12.25 Q 21.83145,222.0787 21.8,222 q -0.1,-0.25 -0.2,-0.5 -0.25,-0.55 -0.45,-1.1 -3.721094,-9.57578 -5.625,-20.275 m 49.325,21.375 0,34.05 Q 58,250.5 51.75,243.7 l -10.9,9.4 q -0.09668,-0.13086 -0.2,-0.25 -0.25,-0.3 -0.5,-0.55 -0.4,-0.5 -0.8,-1 -9.938672,-11.98633 -16.075,-25.775 L 57.75,213.3 l 7.1,8.2 m -30.5,37.2 q -11.8,-14 -18.75,-30.45 l 5.9,-2.1 q 6.15,13.95 16.1,26.1 0.75,0.95 1.55,1.85 0.113672,0.13438 0.225,0.275 L 34.35,258.7 m 20.7,61.05 11.85,-32.85 q 2.9,1.45 6.35,2.8 7.05,2.85 14.1,4.65 l -7.1,32.3 -25.2,-6.9 m 67.5,23.85 -8.85,0 -31.225,-8.15 1.225,-5.525 31.2,8.175 8.85,0 0,4.3 0,1.2 -1.2,0 m -44.1,-9.25 -26.075,-7.175 1.9,-5.275 25.4,6.95 -1.225,5.5"
     id="path14"
     inkscape:connector-curvature="0" />
  <path
     style="fill:#ffffff;fill-opacity:1;stroke:#000000"
     d="m 245.8,225.05 53.35,0 0,49.2 -53.35,0 0,-49.2"
     id="113"
     inkscape:connector-curvature="0" />
  <path
     style="fill:#ffffff;fill-opacity:1;stroke:#000000"
     d="m 330.45,60.35 q 6,1.35 9.1,2.35 5.35,1.6 10.6,3.6 1.7,0.7 3.3,1.4 20.2,8.7 37.1,24.65 l 3.95,3.85 -16.3,11.45 q -1.7,-1.85 -3.55,-3.6 -18.5,-17.95 -41.8,-24.95 -2.15,-0.85 -6.5,-1.8 -3.35,-0.8 -11.1,-1.9 -7.2,-0.85 -7.3,-0.9 l -192.25,0 q -0.25,0.05 -8.5,0.95 L 103.55,57 q 7.3,-1.2 14.15,-1.2 l 188.2,0 q 13.3,2 24.55,4.55 m 28.2,199.1 13.9,16.15 0.05,0.1 -0.05,0 q -15.4,10.1 -33,15.25 -17.75,2.85 -27.35,4.25 l -200.8,0 q -3.75,0 -7.55,-0.3 l 4.4,-18.35 203.4,0 q 6.85,-1.35 21.2,-4.95 13.7,-4.2 25.75,-12.05 l 0.05,-0.1"
     id="996"
     inkscape:connector-curvature="0" />
  <path
     style="fill:#ffffff;fill-opacity:1;stroke:#000000"
     d="m 337.9,17.1 31.75,8.4 -18.3,37.7 q -4.1,-1.5 -8.3,-2.8 -7.25,-1.95 -15.75,-3.95 -12.35,-2.9 -18.7,-3.55 l -4.15,0 0,-35.8 33.45,0"
     id="306"
     inkscape:connector-curvature="0" />
  <path
     style="fill:#ffffff;fill-opacity:1;stroke:#000000"
     d="m 123.75,17.1 0,35.8 -8.85,0 q -11.25,0.4 -23.8,3.9 l -5.5,-32.3 28.25,-7.4 9.9,0"
     id="302"
     inkscape:connector-curvature="0" />
  <path
     style="fill:#ffffff;fill-opacity:1;stroke:#000000"
     d="m 332.3,81.2 q 13.5,4.35 25.35,12.5 l -30.1,35.2 q -4.5,-1.7 -9.65,-1.7 l -14.55,0 0,-50.4 3.9,0 q 7.3,0.45 15.8,2.15 5.4,1 9.25,2.25"
     id="107"
     inkscape:connector-curvature="0" />
  <path
     style="fill:#ffffff;fill-opacity:1;stroke:#000000"
     d="m 13.35,155.5 q -0.1,0.3 -0.1,0.45 -1.55,9.95 -1.55,20.6 0,9.35 1.15,18.15 0.05,0.4 0.1,0.8 0,0.15 0,0.35 L 7,196.6 q -1.3,-9.7 -1.3,-20.05 0,-11.3 1.6,-21.8 l 6.05,0.75"
     id="2030"
     inkscape:connector-curvature="0" />
  <path
     style="fill:#ffffff;fill-opacity:1;stroke:#000000"
     d="m 116.3,76.8 16.6,0 0,50.4 -19.1,0 q -3.55,0 -6.75,0.8 L 82.25,85.05 q 3.85,-1.7 5.9,-2.55 3.55,-1.5 5.85,-2.2 2,-0.65 5.8,-1.4 7.55,-1.6 16.5,-2.1"
     id="103"
     inkscape:connector-curvature="0" />
  <path
     style="fill:#ffffff;fill-opacity:1;stroke:#000000"
     d="m 181.9,297.3 0,38.6 -54,0 0,-38.6 54,0"
     id="316"
     inkscape:connector-curvature="0" />
  <path
     style="fill:#ffffff;fill-opacity:1;stroke:#000000"
     d="m 99.4,57.6 3.55,18.45 Q 100,76.5 97.2,77.2 92.9,78.15 90.7,79 79.05,82.5 68.55,88.8 L 57.6,73.6 Q 64.9,69.3 75.5,65 88,59.9 99.4,57.6"
     id="207"
     inkscape:connector-curvature="0" />
  <path
     style="fill:#ffffff;fill-opacity:1;stroke:#000000"
     d="m 112.5,9.3 11.25,0 0,5.5 -10.05,0 -28.4,7.45 -0.95,-5.6 28.15,-7.35"
     id="3020"
     inkscape:connector-curvature="0" />
  <path
     style="fill:#ffffff;fill-opacity:1;stroke:#000000"
     d="m 54.3,321.9 25.4,6.95 -1.25,5.5 -26.05,-7.15 1.9,-5.3"
     id="3180"
     inkscape:connector-curvature="0" />
  <path
     style="fill:#ffffff;fill-opacity:1;stroke:#000000"
     d="m 390.45,265.85 q 0.75,-0.75 1.6,-1.45 l 36.7,39.05 -12.75,13 -36.95,21.8 -24.05,-49.9 q 12.15,-5.1 23.2,-12.75 6.3,-4.45 12.25,-9.75"
     id="312"
     inkscape:connector-curvature="0" />
  <path
     style="fill:#ffffff;fill-opacity:1;stroke:#000000"
     d="m 94.15,216.65 q 4.05,4.15 8.9,6.25 L 79.8,264.1 q -5.85,-2.8 -11.4,-6.3 l 0,-32.65 22.25,-13 q 1.5,2.3 3.5,4.5"
     id="117"
     inkscape:connector-curvature="0" />
  <path
     style="fill:#ffffff;fill-opacity:1;stroke:#000000"
     d="m 20.45,130.05 q -0.4,0.9 -0.65,1.65 -3.6,9.15 -5.6,19.15 L 8.1,149.9 q 2.15,-11.5 6.25,-21.95 l 6.1,2.1"
     id="2040"
     inkscape:connector-curvature="0" />
  <path
     style="fill:#ffffff;fill-opacity:1;stroke:#000000"
     d="m 15.1,155.75 36.35,4.6 0,30.4 -36.7,4.85 q -0.05,-0.2 -0.05,-0.35 -0.05,-0.15 -0.05,-0.25 -0.05,-0.3 -0.05,-0.55 -1.15,-8.65 -1.15,-17.9 0,-10.5 1.55,-20.35 0,-0.15 0.1,-0.45"
     id="203"
     inkscape:connector-curvature="0" />
  <path
     style="fill:#ffffff;fill-opacity:1;stroke:#000000"
     d="M 78.45,18.55 79.7,24.05 54.3,31 52.4,25.7 78.45,18.55"
     id="3010"
     inkscape:connector-curvature="0" />
  <path
     style="fill:#ffffff;fill-opacity:1;stroke:#000000"
     d="m 21.5,226.15 q 6.15,13.95 16.1,26.1 0.75,0.95 1.55,1.85 0.1,0.15 0.25,0.3 l -5.05,4.3 q -11.8,-14 -18.75,-30.45 l 5.9,-2.1"
     id="2010"
     inkscape:connector-curvature="0" />
  <path
     style="fill:#ffffff;fill-opacity:1;stroke:#000000"
     d="m 80.25,25.95 7.05,32 0.05,0.3 q -3.95,1 -7.9,2.35 -1.95,0.75 -3.95,1.55 -4.3,1.75 -8.2,3.35 -0.2,0.1 -0.4,0.2 l -11.85,-32.85 25.2,-6.9"
     id="301"
     inkscape:connector-curvature="0" />
  <path
     style="fill:#ffffff;fill-opacity:1;stroke:#000000"
     d="m 244.6,17.1 55.7,0 0,35.8 -55.7,0 0,-35.8"
     id="305"
     inkscape:connector-curvature="0" />
  <path
     style="fill:#ffffff;fill-opacity:1;stroke:#000000"
     d="m 477.1,145.7 0,27.9 -45.75,0 q -0.45,-22.55 -8.6,-42.05 l 47.9,-10.8 6.45,24.95"
     id="309"
     inkscape:connector-curvature="0" />
  <path
     style="fill:#ffffff;fill-opacity:1;stroke:#000000"
     d="m 91.7,271.95 12.65,3.45 -5.3,18.9 q -13,-1.7 -25.8,-6.9 -8.8,-3.55 -14.25,-7.1 l 12,-16.4 q 7.7,4.05 20.7,8.05"
     id="217"
     inkscape:connector-curvature="0" />
  <path
     style="fill:#ffffff;fill-opacity:1;stroke:#000000"
     d="m 377.05,110.7 q 1.4,1.55 2.7,3.15 8.15,9.55 13.25,20.35 l -48.9,11.95 q -2,-5.65 -6.5,-10.45 -2.85,-3.05 -6.15,-4.95 l 29.7,-34.5 q 5.25,3.95 10.2,8.65 2.95,2.85 5.7,5.8"
     id="108"
     inkscape:connector-curvature="0" />
  <path
     style="fill:#ffffff;fill-opacity:1;stroke:#000000"
     d="m 137.05,76.8 48.7,0 0,50.4 -48.7,0 0,-50.4"
     id="104"
     inkscape:connector-curvature="0" />
  <path
     style="fill:#ffffff;fill-opacity:1;stroke:#000000"
     d="m 241.35,297.3 0,38.6 -55.3,0 0,-38.6 55.3,0"
     id="315"
     inkscape:connector-curvature="0" />
  <path
     style="fill:#ffffff;fill-opacity:1;stroke:#000000"
     d="m 7.75,201.3 6,-0.9 q 1.9,10.8 5.65,20.55 0.3,0.85 0.65,1.65 0.05,0.1 0.1,0.2 l -5.9,2.05 q -4.4,-11.2 -6.5,-23.55"
     id="2020"
     inkscape:connector-curvature="0" />
  <path
     style="fill:#ffffff;fill-opacity:1;stroke:#000000"
     d="m 465.85,250.15 -20,35.9 -14.1,14.35 -36.7,-38.9 q 1.45,-1.35 2.8,-2.8 1.45,-1.5 2.95,-3.1 0.9,-1.05 1.8,-2.05 1.7,-1.9 3.3,-3.85 8.85,-11.05 14.7,-23.3 l 47.4,16.1 -2.15,7.65"
     id="311"
     inkscape:connector-curvature="0" />
  <path
     style="fill:#ffffff;fill-opacity:1;stroke:#000000"
     d="m 52.1,194.55 4.25,15.35 -34.45,12.25 q -0.05,-0.05 -0.1,-0.15 -0.1,-0.25 -0.2,-0.5 -0.25,-0.55 -0.45,-1.1 -3.7,-9.6 -5.6,-20.25 l 36.55,-5.6"
     id="202"
     inkscape:connector-curvature="0" />
  <path
     style="fill:#ffffff;fill-opacity:1;stroke:#000000"
     d="m 400.15,193.9 q -0.15,0.8 -0.3,1.55 -0.25,1.25 -0.6,2.5 -2,8.4 -5.5,16.15 L 345.7,198.9 q 0.1,-1.3 0.1,-2.65 l 0,-18.5 56.1,0 q -0.2,6.95 -1.25,13.6 -0.25,1.25 -0.5,2.55"
     id="110"
     inkscape:connector-curvature="0" />
  <path
     style="fill:#ffffff;fill-opacity:1;stroke:#000000"
     d="m 241.6,225.05 0,49.2 -50.85,0 0,-49.2 50.85,0"
     id="114"
     inkscape:connector-curvature="0" />
  <path
     style="fill:#ffffff;fill-opacity:1;stroke:#000000"
     d="m 189.65,17.1 50.75,0 0,35.8 -50.75,0 0,-35.8"
     id="304"
     inkscape:connector-curvature="0" />
  <path
     style="fill:#ffffff;fill-opacity:1;stroke:#000000"
     d="m 428.8,202.05 q 0.2,-1.15 0.45,-2.3 0.15,-0.9 0.35,-1.9 1.65,-9.75 1.75,-20.1 l 45.75,0 0,32.15 -8,28.6 -46.75,-15.9 q 0.45,-1.2 0.95,-2.4 0.8,-2.1 1.55,-4.15 2.1,-5.9 3.5,-12.15 0.25,-0.95 0.45,-1.85"
     id="310"
     inkscape:connector-curvature="0" />
  <path
     style="fill:#ffffff;fill-opacity:1;stroke:#000000"
     d="M 432.35,53.1 445,65.55 465.85,102 l 3.75,14.65 -48.55,11.05 q -3.55,-7.75 -8.3,-14.95 l -3.9,-5.55 q -3.9,-5.25 -8.45,-10.2 -0.9,-1 -1.85,-1.95 l -4.1,-4.1 37.9,-37.85"
     id="308"
     inkscape:connector-curvature="0" />
  <path
     style="fill:#ffffff;fill-opacity:1;stroke:#000000"
     d="m 345.25,150.15 49.45,-12.1 q 7,16.4 7.2,35.55 l -56.1,0 0,-17.55 q 0,-3.05 -0.55,-5.9"
     id="109"
     inkscape:connector-curvature="0" />
  <path
     style="fill:#ffffff;fill-opacity:1;stroke:#000000"
     d="m 241.5,76.8 0,50.4 -51.6,0 0,-50.4 51.6,0"
     id="105"
     inkscape:connector-curvature="0" />
  <path
     style="fill:#ffffff;fill-opacity:1;stroke:#000000"
     d="m 86,156.05 0,40.2 q 0,1.55 0.15,3.05 l -27.1,9.6 -4.35,-16.5 0,-33.15 5,-15.7 26.5,9.1 q -0.2,1.65 -0.2,3.4"
     id="101"
     inkscape:connector-curvature="0" />
  <path
     style="fill:#ffffff;fill-opacity:1;stroke:#000000"
     d="m 426.4,195.9 -0.25,1.5 q -0.05,0.15 -0.05,0.2 -1.8,8.65 -4.6,16.85 -0.85,2.7 -1.85,5.35 -0.4,0.95 -0.7,1.85 L 397,215.1 q 4.1,-10.05 6.5,-20.75 l 0.35,-2.1 q 1.1,-7.05 1.35,-14.5 l 22.6,0 q -0.05,9.3 -1.4,18.15"
     id="210"
     inkscape:connector-curvature="0" />
  <path
     style="fill:#ffffff;fill-opacity:1;stroke:#000000"
     d="m 73.25,289.7 q 7.05,2.85 14.1,4.65 l -7.1,32.3 -25.2,-6.9 11.85,-32.85 q 2.9,1.45 6.35,2.8"
     id="318"
     inkscape:connector-curvature="0" />
  <path
     style="fill:#ffffff;fill-opacity:1;stroke:#000000"
     d="m 245.5,297.3 53.35,0 0,38.6 -53.35,0 0,-38.6"
     id="314"
     inkscape:connector-curvature="0" />
  <path
     style="fill:#ffffff;fill-opacity:1;stroke:#000000"
     d="m 64.85,221.5 0,34.05 Q 58,250.5 51.75,243.7 l -10.9,9.4 q -0.1,-0.15 -0.2,-0.25 -0.25,-0.3 -0.5,-0.55 -0.4,-0.5 -0.8,-1 -9.95,-12 -16.05,-25.75 l 34.45,-12.25 7.1,8.2"
     id="201"
     inkscape:connector-curvature="0" />
  <path
     style="fill:#000000;fill-opacity:0;stroke:#000000"
     d="m 343.05,60.4 q 4.2,1.3 8.3,2.8 l 18.3,-37.7 -31.75,-8.4 -33.45,0 0,35.8 4.15,0 q 6.35,0.65 18.7,3.55 8.5,2 15.75,3.95 m -225.4,-4.7 188.2,0 q 13.3,2 24.55,4.55 6,1.35 9.1,2.35 5.35,1.6 10.6,3.6 1.7,0.7 3.3,1.4 20.2,8.7 37.1,24.65 l 3.95,3.85 -16.3,11.45 q -1.7,-1.85 -3.55,-3.6 Q 356.1,86 332.8,79 q -2.15,-0.85 -6.5,-1.8 -3.35,-0.8 -11.1,-1.9 -7.2,-0.85 -7.3,-0.9 l -192.25,0 q -0.25,0.05 -8.5,0.95 L 103.5,56.9 m 275.9,-42.05 36.05,21.4 13.95,13.85 -37.95,38 Q 374.55,72.8 354.7,64.6 l 24.7,-49.75 m -130,-0.05 -68.75,0 0,-5.5 68.75,0 0,5.5 m 78.15,114.1 30.1,-35.2 Q 345.8,85.55 332.3,81.2 q -3.85,-1.25 -9.25,-2.25 -8.5,-1.7 -15.8,-2.15 l -3.9,0 0,50.4 m -58.75,-74.3 55.7,0 0,-35.8 -55.7,0 0,35.8 m 54.6,74.3 0,-50.4 -53.55,0 0,50.4 m 152.9,-32.15 q 0.95,0.95 1.85,1.95 4.55,4.95 8.45,10.2 l 3.9,5.55 q 4.75,7.2 8.3,14.95 L 469.6,116.65 465.85,102 445,65.55 432.35,53.1 l -37.9,37.85 4.1,4.1 m -67.1,35.7 29.7,-34.5 q 5.25,3.95 10.2,8.65 2.95,2.85 5.7,5.8 1.4,1.55 2.7,3.15 8.15,9.55 13.25,20.35 l -48.9,11.95 m 37.8,-34.45 q 2.35,2.8 6.9,9.05 0.05,0.05 0.15,0.15 3.9,6.15 7.2,12.55 l 21.25,-4.9 q -4.4,-9.1 -10.3,-17.5 l -1.25,-1.75 q -3.95,-5.25 -8.5,-10.15 l -16.4,11.45 q 0.45,0.55 0.95,1.1 m -36.1,61.9 56.1,0 q -0.2,-19.15 -7.2,-35.55 l -49.45,12.1 M 241.5,127.2 l 0,-50.4 -51.6,0 0,50.4 m 232.85,4.35 47.9,-10.8 6.45,24.95 0,27.9 -45.75,0 q -0.45,-22.55 -8.6,-42.05 m 5.05,42.05 q -0.6,-22.1 -8.65,-41.2 l -21.25,4.95 q 7,16.75 7.3,36.25 l 22.6,0 m 49.3,4.15 -45.75,0 q -0.1,10.35 -1.75,20.1 -0.2,1 -0.35,1.9 -0.25,1.15 -0.45,2.3 -0.2,0.9 -0.45,1.85 -1.4,6.25 -3.5,12.15 -0.75,2.05 -1.55,4.15 -0.5,1.2 -0.95,2.4 l 46.75,15.9 8,-28.6 0,-32.15 m -50.7,18.15 -0.25,1.5 q -0.05,0.15 -0.05,0.2 -1.8,8.65 -4.6,16.85 -0.85,2.7 -1.85,5.35 -0.4,0.95 -0.7,1.85 L 397,215.1 q 4.1,-10.05 6.5,-20.75 l 0.35,-2.1 q 1.1,-7.05 1.35,-14.5 l 22.6,0 q -0.05,9.3 -1.4,18.15 m -5.8,30.5 47.4,16.1 -2.15,7.65 -20,35.9 -14.1,14.35 -36.7,-38.9 q 1.45,-1.35 2.8,-2.8 1.45,-1.5 2.95,-3.1 0.9,-1.05 1.8,-2.05 1.7,-1.9 3.3,-3.85 8.85,-11.05 14.7,-23.3 m -4.6,90.05 -36.95,21.8 -24.05,-49.9 q 12.15,-5.1 23.2,-12.75 6.3,-4.45 12.25,-9.75 0.75,-0.75 1.6,-1.45 l 36.7,39.05 -12.75,13 m -70.3,-117.55 48.05,15.2 q 3.5,-7.75 5.5,-16.15 0.35,-1.25 0.6,-2.5 0.15,-0.75 0.3,-1.55 0.25,-1.3 0.5,-2.55 1.05,-6.65 1.25,-13.6 l -56.1,0 m -0.7,25.35 46.75,14.85 q -0.6,1.1 -1.2,2.25 -5.3,9.65 -13,18.35 -1.45,1.55 -2.85,3.05 -1.7,1.65 -3.45,3.35 L 371.3,245 q -2,1.9 -4,3.7 -3.6,3 -7.25,5.7 l -28.5,-32.95 m 63,-1.25 q -5.2,9.9 -12.85,18.9 l -3.7,3.85 q -1.85,1.9 -3.7,3.7 -5.95,5.6 -12.2,10.35 l 14,16.1 q 8.4,-6.1 16.15,-13.65 l 6.4,-6.45 q 1.7,-1.9 3.3,-3.8 9.3,-11.3 15.3,-23.8 l -22.05,-6.45 q -0.3,0.6 -0.65,1.25 m -290.75,74.6 4.4,-18.35 203.4,0 q 6.85,-1.35 21.2,-4.95 13.7,-4.2 25.75,-12.05 l 0.05,-0.1 13.9,16.15 0.05,0.1 -0.05,0 q -15.4,10.1 -33,15.25 -17.75,2.85 -27.35,4.25 l -200.8,0 m 216.4,-71.85 28.9,33.5 q -1.8,1.2 -3.6,2.3 -11.1,6.75 -23.5,10.45 -16.45,4.15 -18.45,4.75 l -7.8,0 0,-49.2 m -112.55,0 0,49.2 50.85,0 0,-49.2 m 4.2,0 0,49.2 53.35,0 0,-49.2 m 4.15,72.25 0,38.6 34.05,0 31.3,-8.7 -17.5,-37.3 q -3.95,1.45 -8.1,2.65 -4.45,1 -10.55,2.05 -11.8,2.15 -19.55,2.7 l -9.65,0 m -57.8,38.6 53.35,0 0,-38.6 -53.35,0 0,38.6 M 52.4,25.7 54.3,31 79.7,24.05 78.45,18.55 52.4,25.7 m 14.5,40 -11.85,-32.85 25.2,-6.9 7.05,32 0.05,0.3 M 99.4,57.6 102.95,76.05 Q 100,76.5 97.2,77.2 92.9,78.15 90.7,79 79.05,82.5 68.55,88.8 L 57.6,73.6 m 45.5,55.8 -24.6,-42.6 q -6.8,3.15 -10.1,5.3 l 0,33.85 22.75,13.5 M 240.4,52.9 l -50.75,0 0,-35.8 50.75,0 0,35.8 m -54.95,-35.8 -57.55,0 0,35.8 57.55,0 0,-35.8 m -61.7,-7.8 -11.25,0 -28.15,7.35 0.95,5.6 28.4,-7.45 10.05,0 0,-5.5 M 91.1,56.8 86.6,30 l -0.95,-5.5 28.2,-7.4 9.9,0 0,35.8 m 9.15,74.3 0,-50.4 -16.6,0 q -8.95,0.5 -16.5,2.1 -3.8,0.75 -5.8,1.4 -2.3,0.7 -5.85,2.2 -2.05,0.85 -5.9,2.55 l 24.8,42.95 m 30,-0.8 0,-50.4 48.7,0 0,50.4 m -48.8,97.85 0,49.2 49.6,0 0,-49.2 m -79.45,-0.8 -23.45,41.55 q 5.05,2.1 10.35,3.7 18.3,4.7 18.45,4.75 l 20.3,0 0,-49.2 m -29.7,-2.15 -23.25,41.2 q -5.85,-2.8 -11.4,-6.3 l 0,-32.65 22.25,-13 M 71,263.9 59,280.3 m 40.05,14 5.3,-18.9 m 6.8,21.9 12.6,0 0,38.6 -8.25,0 -31.3,-8.2 7.2,-32.4 m -8.9,40.15 1.2,-5.5 31.2,8.15 8.85,0 0,4.3 0,1.2 -1.2,0 -8.85,0 -31.2,-8.15 m -15.6,-48.55 -11.85,32.85 25.2,6.9 7.1,-32.3 m 40.55,41.55 54,0 0,-38.6 -54,0 0,38.6 m 58.15,0 55.3,0 0,-38.6 -55.3,0 0,38.6 m -133.65,-8.7 1.9,-5.3 25.4,6.95 -1.25,5.5 -26.05,-7.15"
     id="path55"
     inkscape:connector-curvature="0" />
  <path
     style="fill:#000000;fill-opacity:0;stroke:#000000"
     d="m 103.5,56.9 q 7.3,-1.2 14.15,-1.2 m 185.7,71.5 14.55,0 q 5.15,0 9.65,1.7 m -81.9,-1.7 53.55,0 m 44.9,18.95 q -2,-5.65 -6.5,-10.45 -2.85,-3.05 -6.15,-4.95 m 13.8,19.4 q 0.55,2.85 0.55,5.9 l 0,17.55 m -155.9,-46.4 51.6,0 m 104.3,50.55 0,18.5 q 0,1.35 -0.1,2.65 m -14.15,22.55 q 3.4,-2 6.35,-5.15 5.5,-5.8 7.2,-13.2 m -233.75,92 q -3.75,0 -7.55,-0.3 m 199.5,-69.75 14.6,0 q 5.3,0 9.85,-1.8 m -86.15,1.8 -50.85,0 m 108.4,0 -53.35,0 M 87.35,58.25 q -3.95,1 -7.9,2.35 -1.95,0.75 -3.95,1.55 -4.3,1.75 -8.2,3.35 -0.2,0.1 -0.4,0.2 m -9.3,7.9 Q 64.9,69.3 75.5,65 88,59.9 99.4,57.6 m -8.25,81.85 q 1.3,-1.95 3,-3.75 4.05,-4.25 8.95,-6.3 m -61.05,-30.3 9.25,8.6 q 6.75,-8.1 14.1,-13.9 l 0,34.65 -7.4,10.3 -34.1,-11.9 q 6.5,-14.25 16.9,-26.4 0.35,-0.4 0.75,-0.8 0.25,-0.3 0.5,-0.55 M 40.4,97.95 q 0.1,-0.1 0.2,-0.2 l -5.1,-4.7 q -0.55,0.6 -1.1,1.25 -11.55,13.75 -18.45,29.75 l 6.15,2.15 Q 28.55,111.9 39.05,99.5 39.7,98.7 40.4,97.95 M 22,131.2 q 0.05,-0.2 0.2,-0.55 l 34.6,11.9 -4.5,13.95 -36.3,-5.4 q 1.95,-9.85 5.55,-18.85 0.2,-0.6 0.45,-1.05 m -2.2,0.5 q -3.6,9.15 -5.6,19.15 L 8.1,149.9 q 2.15,-11.5 6.25,-21.95 l 6.1,2.1 q -0.4,0.9 -0.65,1.65 M 7.3,154.75 q -1.6,10.5 -1.6,21.8 0,10.35 1.3,20.05 l 5.95,-0.75 q 0,-0.2 0,-0.35 -0.05,-0.4 -0.1,-0.8 -1.15,-8.8 -1.15,-18.15 0,-10.65 1.55,-20.6 0,-0.15 0.1,-0.45 L 7.3,154.75 m 7.8,1 36.35,4.6 0,30.4 -36.7,4.85 q -0.05,-0.2 -0.05,-0.35 -0.05,-0.15 -0.05,-0.25 -0.05,-0.3 -0.05,-0.55 -1.15,-8.65 -1.15,-17.9 0,-10.5 1.55,-20.35 0,-0.15 0.1,-0.45 m 44.6,-12.2 26.5,9.1 q -0.2,1.65 -0.2,3.4 l 0,40.2 q 0,1.55 0.15,3.05 l -27.1,9.6 -4.35,-16.5 0,-33.15 5,-15.7 m 64.05,-90.65 -8.85,0 q -11.25,0.4 -23.8,3.9 m 15.95,71.2 q 3.2,-0.8 6.75,-0.8 l 19.1,0 m 52.85,0 -48.7,0 m 49.5,97.85 -49.6,0 m -4.2,0 -18.95,0 q -3.5,0 -6.7,-0.8 m -16.45,-12.1 q 1.5,2.3 3.5,4.5 4.05,4.15 8.9,6.25 m 1.3,52.5 -12.65,-3.45 q -13,-4 -20.7,-8.05 m -12,16.4 q 5.45,3.55 14.25,7.1 12.8,5.2 25.8,6.9 m -7.65,1 q 9.8,2.05 19.7,2 l 0.05,0 m -23.8,-2.95 q -7.05,-1.8 -14.1,-4.65 -3.45,-1.35 -6.35,-2.8 m -10.55,-77 -34.45,12.25 q -0.05,-0.05 -0.1,-0.15 -0.1,-0.25 -0.2,-0.5 -0.25,-0.55 -0.45,-1.1 -3.7,-9.6 -5.6,-20.25 l 36.55,-5.6 4.25,15.35 m 8.5,11.6 0,34.05 Q 58,250.5 51.75,243.7 l -10.9,9.4 q -0.1,-0.15 -0.2,-0.25 -0.25,-0.3 -0.5,-0.55 -0.4,-0.5 -0.8,-1 -9.95,-12 -16.05,-25.75 l 34.45,-12.25 7.1,8.2 m -50.6,3.35 5.9,-2.05 q -0.05,-0.1 -0.1,-0.2 -0.35,-0.8 -0.65,-1.65 -3.75,-9.75 -5.65,-20.55 l -6,0.9 q 2.1,12.35 6.5,23.55 m 7.25,1.3 -5.9,2.1 q 6.95,16.45 18.75,30.45 l 5.05,-4.3 q -0.15,-0.15 -0.25,-0.3 -0.8,-0.9 -1.55,-1.85 -9.95,-12.15 -16.1,-26.1"
     id="path57"
     inkscape:connector-curvature="0" />
  <path
     style="fill:#ffffff;fill-opacity:1;stroke:none"
     d="m 329.65,184.7 0,-18.55 5.85,0 0,18.55 -5.85,0 5.85,0 0,-18.55 -5.85,0 0,-2.2 0,-27 0,27 -4.95,0 q -0.65,0.75 -1.25,2.5 -0.95,2.85 -1.2,6.9 l -0.05,1.3 q 0,0.6 0,1.3 0,0.15 0,0.35 l 0,1.35 q 0.2,4.55 1.25,7.1 0.6,1.7 1.25,2 l 4.95,0.1 0,-2.15 m 0,2.15 0,28.2 0,-28.2 m -8.05,-35.5 q 0,-5.75 -4,-9.95 -4.1,-4 -9.8,-4 -5.85,0 -9.9,4 -4.05,4.2 -4.05,9.95 0,5.7 4.05,9.7 4.05,4.15 9.9,4.15 5.7,0 9.8,-4.15 4,-4 4,-9.7 0,5.7 -4,9.7 -4.1,4.15 -9.8,4.15 -5.85,0 -9.9,-4.15 -4.05,-4 -4.05,-9.7 0,-5.75 4.05,-9.95 4.05,-4 9.9,-4 5.7,0 9.8,4 4,4.2 4,9.95 m 19.05,6.15 0,37.3 q 0,10.85 -7.55,18.6 -7.95,8.1 -19.2,8.1 l -63.2,0 -65,0 -67.85,0 q -11.05,0 -18.95,-7.8 -7.75,-8.2 -7.75,-18.9 l 0,-37.3 q 0,-10.75 7.75,-18.95 7.9,-7.9 18.95,-7.9 l 67.85,0 65,0 63.2,0 q 11.1,0 18.9,7.9 7.85,8.2 7.85,18.95 m -19.05,42.95 q 0,-5.85 -4,-9.9 -4.1,-4 -9.8,-4 -5.85,0 -9.9,4 -4.05,4.05 -4.05,9.9 0,5.75 4.05,9.75 4.05,4.1 9.9,4.1 5.7,0 9.8,-4.1 4,-4 4,-9.75 0,5.75 -4,9.75 -4.1,4.1 -9.8,4.1 -5.85,0 -9.9,-4.1 -4.05,-4 -4.05,-9.75 0,-5.85 4.05,-9.9 4.05,-4 9.9,-4 5.7,0 9.8,4 4,4.05 4,9.9 M 123.9,137.4 q 5.7,0 9.85,4 4,4.2 4,9.95 0,5.7 -4,9.7 -4.15,4.15 -9.85,4.15 -5.75,0 -9.75,-4.15 -4.1,-4 -4.1,-9.7 0,-5.75 4.1,-9.95 4,-4 9.75,-4 -5.75,0 -9.75,4 -4.1,4.2 -4.1,9.95 0,5.7 4.1,9.7 4,4.15 9.75,4.15 5.7,0 9.85,-4.15 4,-4 4,-9.7 0,-5.75 -4,-9.95 -4.15,-4 -9.85,-4 m 0.3,15.8 q 0.6,0 1.15,-0.5 0.4,-0.55 0.4,-1.15 0,-0.65 -0.4,-1.1 -0.55,-0.55 -1.15,-0.55 -0.75,0 -1,0.55 -0.55,0.45 -0.55,1.1 0,0.6 0.55,1.15 0.25,0.5 1,0.5 m -21.9,10.75 0,-27 0,27 0,2.2 0,18.55 0,2.15 4.85,-0.1 q 0.7,-0.3 1.35,-2 1.05,-2.55 1.25,-7.1 l 0,-1.35 q 0,-0.2 0,-0.35 0,-0.7 0,-1.3 l -0.05,-1.3 q -0.15,-4.05 -1.2,-6.9 -0.65,-1.75 -1.35,-2.5 l -4.85,0 m 0,22.9 0,28.2 0,-28.2 m 21.6,-0.3 q 5.7,0 9.85,4 4,4.05 4,9.9 0,5.75 -4,9.75 -4.15,4.1 -9.85,4.1 -5.75,0 -9.75,-4.1 -4.1,-4 -4.1,-9.75 0,-5.85 4.1,-9.9 4,-4 9.75,-4 -5.75,0 -9.75,4 -4.1,4.05 -4.1,9.9 0,5.75 4.1,9.75 4,4.1 9.75,4.1 5.7,0 9.85,-4.1 4,-4 4,-9.75 0,-5.85 -4,-9.9 -4.15,-4 -9.85,-4 m -21.6,-1.85 -5.85,0 0,-18.55 5.85,0 -5.85,0 0,18.55 5.85,0 m 21.9,17.6 q 0.6,0 1.15,-0.5 0.4,-0.45 0.4,-1.15 0,-0.55 -0.4,-1.1 -0.55,-0.5 -1.15,-0.5 -0.75,0 -1,0.5 -0.55,0.55 -0.55,1.1 0,0.7 0.55,1.15 0.25,0.5 1,0.5 m 183.25,-49.1 q 0.65,0 1.2,-0.5 0.4,-0.55 0.4,-1.15 0,-0.65 -0.4,-1.1 -0.55,-0.55 -1.2,-0.55 -0.6,0 -1.1,0.55 -0.55,0.45 -0.55,1.1 0,0.6 0.55,1.15 0.5,0.5 1.1,0.5 m -72.05,-7.85 q 0,-0.6 -0.4,-1.05 -0.6,-0.45 -1.15,-0.45 -0.75,0 -1.05,0.45 -0.55,0.45 -0.55,1.05 0,0.75 0.55,1.25 0.3,0.45 1.05,0.45 0.55,0 1.15,-0.45 0.4,-0.5 0.4,-1.25 M 235,206.3 q -0.6,-0.5 -1.15,-0.5 -0.75,0 -1.05,0.5 -0.55,0.5 -0.55,1.05 0,0.7 0.55,1.05 0.3,0.65 1.05,0.65 0.55,0 1.15,-0.65 0.4,-0.35 0.4,-1.05 0,-0.55 -0.4,-1.05 m 72.45,-4 q 0.65,0 1.2,-0.5 0.4,-0.45 0.4,-1.15 0,-0.55 -0.4,-1.1 -0.55,-0.5 -1.2,-0.5 -0.6,0 -1.1,0.5 -0.55,0.55 -0.55,1.1 0,0.7 0.55,1.15 0.5,0.5 1.1,0.5 m -56.75,-71.65 0,90.85 0,-90.85 m -46.35,14.7 q 0,-0.6 -0.5,-1.05 -0.5,-0.45 -1,-0.45 -0.8,0 -1.1,0.45 -0.7,0.45 -0.7,1.05 0,0.75 0.7,1.25 0.3,0.45 1.1,0.45 0.5,0 1,-0.45 0.5,-0.5 0.5,-1.25 m 14.15,33.2 0.1,0 q 0.4,0 0.75,-0.25 0.35,-0.35 0.35,-0.95 0,-0.4 -0.35,-0.75 -0.35,-0.35 -0.75,-0.35 l -0.1,0 0,-12.7 q -0.15,0 -0.3,0 -5.5,0.1 -9.4,4.1 -4.1,4 -4.1,9.8 0,5.8 4.1,9.9 3.9,3.85 9.4,4 0.15,0 0.3,0 l 0,-12.8 0,12.8 q -0.15,0 -0.3,0 -5.5,-0.15 -9.4,-4 -4.1,-4.1 -4.1,-9.9 0,-5.8 4.1,-9.8 3.9,-4 9.4,-4.1 0.15,0 0.3,0 l 0,12.7 -0.05,0 q -0.55,0 -0.9,0.35 -0.25,0.25 -0.25,0.7 l 0,0.25 0.05,0.1 0,0.225 q 0.0594,0.19063 0.2,0.425 0.15,0.1 0.5,0.25 l 0.45,0 m 0,12.8 0,29.15 0,-29.15 q 0.1,0 0.25,0 5.5,-0.15 9.45,-4 4.05,-4.1 4.05,-9.9 0,-5.8 -4.05,-9.8 -3.95,-4 -9.45,-4.1 -0.15,0 -0.25,0 0.1,0 0.25,0 5.5,0.1 9.45,4.1 4.05,4 4.05,9.8 0,5.8 -4.05,9.9 -3.95,3.85 -9.45,4 -0.15,0 -0.25,0 m 0,-59.85 0,32.05 0,-32.05 m -15.65,74.3 q -0.8,0 -1.1,0.5 -0.7,0.5 -0.7,1.05 0,0.7 0.7,1.05 0.3,0.65 1.1,0.65 0.5,0 1,-0.65 0.5,-0.35 0.5,-1.05 0,-0.55 -0.5,-1.05 -0.5,-0.5 -1,-0.5 m -17.15,-75.15 0,90.85 0,-90.85"
     id="path59"
     inkscape:connector-curvature="0" />
  <path
     style="fill:#b9b9ff;fill-opacity:1;stroke:none"
     d="m 329.65,166.15 0,18.55 0,2.15 -4.95,-0.1 q -0.65,-0.3 -1.25,-2 -1.05,-2.55 -1.25,-7.1 l 0,-1.35 q 0,-0.2 0,-0.35 0,-0.7 0,-1.3 l 0.05,-1.3 q 0.25,-4.05 1.2,-6.9 0.6,-1.75 1.25,-2.5 l 4.95,0 0,2.2 m -227.35,20.7 0,-2.15 0,-18.55 0,-2.2 4.85,0 q 0.7,0.75 1.35,2.5 1.05,2.85 1.2,6.9 l 0.05,1.3 q 0,0.6 0,1.3 0,0.15 0,0.35 l 0,1.35 q -0.2,4.55 -1.25,7.1 -0.65,1.7 -1.35,2 l -4.85,0.1"
     id="path61"
     inkscape:connector-curvature="0" />
  <path
     style="fill:#ff0000;fill-opacity:1;stroke:none"
     d="m 124.2,153.2 q -0.75,0 -1,-0.5 -0.55,-0.55 -0.55,-1.15 0,-0.65 0.55,-1.1 0.25,-0.55 1,-0.55 0.6,0 1.15,0.55 0.4,0.45 0.4,1.1 0,0.6 -0.4,1.15 -0.55,0.5 -1.15,0.5 m 0,49.1 q -0.75,0 -1,-0.5 -0.55,-0.45 -0.55,-1.15 0,-0.55 0.55,-1.1 0.25,-0.5 1,-0.5 0.6,0 1.15,0.5 0.4,0.55 0.4,1.1 0,0.7 -0.4,1.15 -0.55,0.5 -1.15,0.5 m 183.25,0 q -0.6,0 -1.1,-0.5 -0.55,-0.45 -0.55,-1.15 0,-0.55 0.55,-1.1 0.5,-0.5 1.1,-0.5 0.65,0 1.2,0.5 0.4,0.55 0.4,1.1 0,0.7 -0.4,1.15 -0.55,0.5 -1.2,0.5 m -72.45,4 q 0.4,0.5 0.4,1.05 0,0.7 -0.4,1.05 -0.6,0.65 -1.15,0.65 -0.75,0 -1.05,-0.65 -0.55,-0.35 -0.55,-1.05 0,-0.55 0.55,-1.05 0.3,-0.5 1.05,-0.5 0.55,0 1.15,0.5 m 0.4,-60.95 q 0,0.75 -0.4,1.25 -0.6,0.45 -1.15,0.45 -0.75,0 -1.05,-0.45 -0.55,-0.5 -0.55,-1.25 0,-0.6 0.55,-1.05 0.3,-0.45 1.05,-0.45 0.55,0 1.15,0.45 0.4,0.45 0.4,1.05 m 72.05,7.85 q -0.6,0 -1.1,-0.5 -0.55,-0.55 -0.55,-1.15 0,-0.65 0.55,-1.1 0.5,-0.55 1.1,-0.55 0.65,0 1.2,0.55 0.4,0.45 0.4,1.1 0,0.6 -0.4,1.15 -0.55,0.5 -1.2,0.5 m -103.1,-7.85 q 0,0.75 -0.5,1.25 -0.5,0.45 -1,0.45 -0.8,0 -1.1,-0.45 -0.7,-0.5 -0.7,-1.25 0,-0.6 0.7,-1.05 0.3,-0.45 1.1,-0.45 0.5,0 1,0.45 0.5,0.45 0.5,1.05 m 13.7,33.2 q -0.2,-0.15 -0.4,-0.25 -0.23438,-0.23437 -0.3,-0.425 l 0,-0.225 -0.05,-0.1 0,-0.25 q 0.05,-0.45 0.35,-0.7 0.25,-0.3 0.8,-0.35 l 0.05,0 0.1,0 q 0.4,0 0.75,0.35 0.35,0.35 0.35,0.75 0,0.6 -0.35,0.95 -0.35,0.25 -0.75,0.25 l -0.1,0 -0.45,0 m -15.2,27.25 q 0.5,0 1,0.5 0.5,0.5 0.5,1.05 0,0.7 -0.5,1.05 -0.5,0.65 -1,0.65 -0.8,0 -1.1,-0.65 -0.7,-0.35 -0.7,-1.05 0,-0.55 0.7,-1.05 0.3,-0.5 1.1,-0.5"
     id="path63"
     inkscape:connector-curvature="0" />
  <path
     style="fill:#000000;fill-opacity:0;stroke:#ff0000"
     d="m 329.65,163.95 0,-27 m 0,27 0,2.2 0,18.55 0,2.15 0,28.2 m -8.05,-63.7 q 0,-5.75 -4,-9.95 -4.1,-4 -9.8,-4 -5.85,0 -9.9,4 -4.05,4.2 -4.05,9.95 0,5.7 4.05,9.7 4.05,4.15 9.9,4.15 5.7,0 9.8,-4.15 4,-4 4,-9.7 m 0,49.1 q 0,-5.85 -4,-9.9 -4.1,-4 -9.8,-4 -5.85,0 -9.9,4 -4.05,4.05 -4.05,9.9 0,5.75 4.05,9.75 4.05,4.1 9.9,4.1 5.7,0 9.8,-4.1 4,-4 4,-9.75 M 123.9,137.4 q 5.7,0 9.85,4 4,4.2 4,9.95 0,5.7 -4,9.7 -4.15,4.15 -9.85,4.15 -5.75,0 -9.75,-4.15 -4.1,-4 -4.1,-9.7 0,-5.75 4.1,-9.95 4,-4 9.75,-4 m -21.6,26.55 0,2.2 0,18.55 0,2.15 0,28.2 m 0,-51.1 0,-27 m 21.6,49.6 q 5.7,0 9.85,4 4,4.05 4,9.9 0,5.75 -4,9.75 -4.15,4.1 -9.85,4.1 -5.75,0 -9.75,-4.1 -4.1,-4 -4.1,-9.75 0,-5.85 4.1,-9.9 4,-4 9.75,-4 m 94.6,-10.3 0,-12.7 q -0.15,0 -0.3,0 -5.5,0.1 -9.4,4.1 -4.1,4 -4.1,9.8 0,5.8 4.1,9.9 3.9,3.85 9.4,4 0.15,0 0.3,0 l 0,-12.8 m 0,12.8 q 0.1,0 0.25,0 5.5,-0.15 9.45,-4 4.05,-4.1 4.05,-9.9 0,-5.8 -4.05,-9.8 -3.95,-4 -9.45,-4.1 -0.15,0 -0.25,0 m 0,-32.05 0,32.05 m 0,27.8 0,29.15"
     id="path65"
     inkscape:connector-curvature="0" />
  <path
     style="fill:#000000;fill-opacity:0;stroke:#000000"
     d="m 329.65,166.15 5.85,0 0,18.55 -5.85,0 m -227.35,0 -5.85,0 0,-18.55 5.85,0"
     id="path67"
     inkscape:connector-curvature="0" />
  <path
     style="fill:#000000;fill-opacity:0;stroke:#000000"
     d="m 340.65,157.5 0,37.3 q 0,10.85 -7.55,18.6 -7.95,8.1 -19.2,8.1 l -63.2,0 -65,0 -67.85,0 q -11.05,0 -18.95,-7.8 -7.75,-8.2 -7.75,-18.9 l 0,-37.3 q 0,-10.75 7.75,-18.95 7.9,-7.9 18.95,-7.9 l 67.85,0 65,0 63.2,0 q 11.1,0 18.9,7.9 7.85,8.2 7.85,18.95"
     id="path69"
     inkscape:connector-curvature="0" />
  <path
     style="fill:#000000;fill-opacity:0;stroke:#8080ff"
     d="m 250.7,130.65 0,90.85 m -65,-90.85 0,90.85"
     id="path71"
     inkscape:connector-curvature="0" />
  <path
     style="fill:#ffffff;fill-opacity:1;stroke:#000000"
     d="m 65.4,93.8 0,34.65 -7.4,10.3 -34.1,-11.9 q 6.5,-14.25 16.9,-26.4 0.35,-0.4 0.75,-0.8 0.25,-0.3 0.5,-0.55 l 9.25,8.6 q 6.75,-8.1 14.1,-13.9"
     id="205"
     inkscape:connector-curvature="0" />
  <path
     style="fill:#ffffff;fill-opacity:1;stroke:#000000"
     d="m 186.55,225.05 0,49.2 -49.6,0 0,-49.2 49.6,0"
     id="115"
     inkscape:connector-curvature="0" />
  <path
     style="fill:#ffffff;fill-opacity:1;stroke:#000000"
     d="m 397.9,137.35 21.25,-4.95 q 8.05,19.1 8.65,41.2 l -22.6,0 q -0.3,-19.5 -7.3,-36.25"
     id="209"
     inkscape:connector-curvature="0" />
  <path
     style="fill:#ffffff;fill-opacity:1;stroke:#000000"
     d="m 390.65,220.2 q -5.3,9.65 -13,18.35 -1.45,1.55 -2.85,3.05 -1.7,1.65 -3.45,3.35 L 371.3,245 q -2,1.9 -4,3.7 -3.6,3 -7.25,5.7 l -28.5,-32.95 q 3.4,-2 6.35,-5.15 5.5,-5.8 7.2,-13.2 l 46.75,14.85 q -0.6,1.1 -1.2,2.25"
     id="111"
     inkscape:connector-curvature="0" />
  <path
     style="fill:#ffffff;fill-opacity:1;stroke:#000000"
     d="m 429.4,50.1 -37.95,38 Q 374.55,72.8 354.7,64.6 l 24.7,-49.75 36.05,21.4 13.95,13.85"
     id="307"
     inkscape:connector-curvature="0" />
  <path
     style="fill:#ffffff;fill-opacity:1;stroke:#000000"
     d="m 185.45,17.1 0,35.8 -57.55,0 0,-35.8 57.55,0"
     id="303"
     inkscape:connector-curvature="0" />
  <path
     style="fill:#ffffff;fill-opacity:1;stroke:#000000"
     d="m 245.65,76.8 53.55,0 0,50.4 -53.55,0 0,-50.4"
     id="106"
     inkscape:connector-curvature="0" />
  <path
     style="fill:#ffffff;fill-opacity:1;stroke:#000000"
     d="m 83.7,329.95 31.2,8.15 8.85,0 0,4.3 0,1.2 -1.2,0 -8.85,0 -31.2,-8.15 1.2,-5.5"
     id="3170"
     inkscape:connector-curvature="0" />
  <path
     style="fill:#ffffff;fill-opacity:1;stroke:#000000"
     d="m 40.6,97.75 q -0.1,0.1 -0.2,0.2 -0.7,0.75 -1.35,1.55 -10.5,12.4 -16.95,26.7 l -6.15,-2.15 q 6.9,-16 18.45,-29.75 0.55,-0.65 1.1,-1.25 l 5.1,4.7"
     id="2050"
     inkscape:connector-curvature="0" />
  <path
     style="fill:#ffffff;fill-opacity:1;stroke:#000000"
     d="m 68.4,92.1 q 3.3,-2.15 10.1,-5.3 l 24.6,42.6 q -4.9,2.05 -8.95,6.3 -1.7,1.8 -3,3.75 l -22.75,-13.5 0,-33.85"
     id="102"
     inkscape:connector-curvature="0" />
  <path
     style="fill:#ffffff;fill-opacity:1;stroke:#000000"
     d="m 405.85,109.3 1.25,1.75 q 5.9,8.4 10.3,17.5 l -21.25,4.9 q -3.3,-6.4 -7.2,-12.55 -0.1,-0.1 -0.15,-0.15 -4.55,-6.25 -6.9,-9.05 -0.5,-0.55 -0.95,-1.1 l 16.4,-11.45 q 4.55,4.9 8.5,10.15"
     id="208"
     inkscape:connector-curvature="0" />
  <path
     style="fill:#ffffff;fill-opacity:1;stroke:#000000"
     d="m 123.75,297.3 0,38.6 -8.25,0 -31.3,-8.2 7.2,-32.4 q 9.8,2.05 19.7,2 l 0.05,0 12.6,0"
     id="317"
     inkscape:connector-curvature="0" />
  <path
     style="fill:#ffffff;fill-opacity:1;stroke:#000000"
     d="m 395.2,218.95 22.05,6.45 q -6,12.5 -15.3,23.8 -1.6,1.9 -3.3,3.8 l -6.4,6.45 Q 384.5,267 376.1,273.1 l -14,-16.1 q 6.25,-4.75 12.2,-10.35 1.85,-1.8 3.7,-3.7 l 3.7,-3.85 q 7.65,-9 12.85,-18.9 0.35,-0.65 0.65,-1.25"
     id="211"
     inkscape:connector-curvature="0" />
  <path
     style="fill:#ffffff;fill-opacity:1;stroke:#000000"
     d="m 343.05,292.55 q 4.15,-1.2 8.1,-2.65 l 17.5,37.3 -31.3,8.7 -34.05,0 0,-38.6 9.65,0 q 7.75,-0.55 19.55,-2.7 6.1,-1.05 10.55,-2.05"
     id="313"
     inkscape:connector-curvature="0" />
  <path
     style="fill:#ffffff;fill-opacity:1;stroke:#000000"
     d="m 180.65,9.3 68.75,0 0,5.5 -68.75,0 0,-5.5"
     id="3040"
     inkscape:connector-curvature="0" />
  <path
     style="fill:#ffffff;fill-opacity:1;stroke:#000000"
     d="m 22,131.2 q 0.05,-0.2 0.2,-0.55 l 34.6,11.9 -4.5,13.95 -36.3,-5.4 q 1.95,-9.85 5.55,-18.85 0.2,-0.6 0.45,-1.05"
     id="204"
     inkscape:connector-curvature="0" />
  <path
     style="fill:#ffffff;fill-opacity:1;stroke:#000000"
     d="m 113.8,225.05 18.95,0 0,49.2 -20.3,0 Q 112.3,274.2 94,269.5 88.7,267.9 83.65,265.8 l 23.45,-41.55 q 3.2,0.8 6.7,0.8"
     id="116"
     inkscape:connector-curvature="0" />
  <path
     style="fill:#ffffff;fill-opacity:1;stroke:#000000"
     d="m 317.9,225.05 q 5.3,0 9.85,-1.8 l 28.9,33.5 q -1.8,1.2 -3.6,2.3 -11.1,6.75 -23.5,10.45 -16.45,4.15 -18.45,4.75 l -7.8,0 0,-49.2 14.6,0"
     id="112"
     inkscape:connector-curvature="0" />
  <text
     style="font-size:17.52960014px;font-weight:bold;text-anchor:start;fill:#000000;stroke:none;font-family:Arial"
     x="142.07852"
     y="34.363182"
     font="10px &quot;Arial&quot;"
     font-weight="bold"
     font-size="16px"
     id="text91">
    <tspan
       dy="5.9999995"
       id="tspan93">303</tspan>
  </text>
  <text
     style="font-size:17.52960014px;font-weight:bold;text-anchor:start;fill:#000000;stroke:none;font-family:Arial"
     x="200.67851"
     y="34.363182"
     font="10px &quot;Arial&quot;"
     font-weight="bold"
     font-size="16px"
     id="text95">
    <tspan
       dy="5.9999995"
       id="tspan97">304</tspan>
  </text>
  <text
     style="font-size:17.52960014px;font-weight:bold;text-anchor:start;fill:#000000;stroke:none;font-family:Arial"
     x="257.37851"
     y="34.363182"
     font="10px &quot;Arial&quot;"
     font-weight="bold"
     font-size="16px"
     id="text99">
    <tspan
       dy="5.9999995"
       id="tspan101">305</tspan>
  </text>
  <text
     style="font-size:17.52960014px;font-weight:bold;text-anchor:start;fill:#000000;stroke:none;font-family:Arial"
     x="317.62851"
     y="36.813187"
     font="10px &quot;Arial&quot;"
     font-weight="bold"
     font-size="16px"
     id="text103">
    <tspan
       dy="5.9999995"
       id="tspan105">306</tspan>
  </text>
  <text
     style="font-size:17.52960014px;font-weight:bold;text-anchor:start;fill:#000000;stroke:none;font-family:Arial"
     x="376.5285"
     y="51.313187"
     font="10px &quot;Arial&quot;"
     font-weight="bold"
     font-size="16px"
     id="text107">
    <tspan
       dy="5.9999995"
       id="tspan109">307</tspan>
  </text>
  <text
     style="font-size:15.33839989px;font-weight:bold;text-anchor:start;fill:#000000;stroke:none;font-family:Arial"
     x="92.478516"
     y="36.717583"
     font="10px &quot;Arial&quot;"
     font-weight="bold"
     font-size="14px"
     id="text111">
    <tspan
       dy="5.4999995"
       id="tspan113">302</tspan>
  </text>
  <text
     style="font-size:10.95600033px;font-weight:bold;text-anchor:start;fill:#000000;stroke:none;font-family:Arial"
     x="62.32851"
     y="45.176483"
     font="10px &quot;Arial&quot;"
     font-weight="bold"
     font-size="10px"
     id="text115">
    <tspan
       dy="3.9999995"
       id="tspan117">301</tspan>
  </text>
  <text
     style="font-size:12.05160046px;font-weight:bold;text-anchor:start;fill:#000000;stroke:none;font-family:Arial"
     x="71.478516"
     y="72.874176"
     font="10px &quot;Arial&quot;"
     font-weight="bold"
     font-size="11px"
     id="text119">
    <tspan
       dy="3.9999995"
       id="tspan121">207</tspan>
  </text>
  <text
     style="font-size:13.14719963px;font-weight:bold;text-anchor:start;fill:#000000;stroke:none;font-family:Arial"
     x="209.62852"
     y="65.021988"
     font="10px &quot;Arial&quot;"
     font-weight="bold"
     font-size="12px"
     id="text123">
    <tspan
       dy="4.5000005"
       id="tspan125">SUITES</tspan>
  </text>
  <text
     style="font-size:10.95600033px;font-weight:bold;text-anchor:start;fill:#000000;stroke:none;font-family:Arial"
     x="390.08765"
     y="117.87648"
     font="10px &quot;Arial&quot;"
     font-weight="bold"
     font-size="10px"
     id="text127">
    <tspan
       dy="3.9999995"
       id="tspan129">208</tspan>
  </text>
  <text
     style="font-size:10.95600033px;font-weight:bold;text-anchor:start;fill:#000000;stroke:none;font-family:Arial"
     x="405.43762"
     y="154.87648"
     font="10px &quot;Arial&quot;"
     font-weight="bold"
     font-size="10px"
     id="text131">
    <tspan
       dy="3.9999995"
       id="tspan133">209</tspan>
  </text>
  <text
     style="font-size:17.52960014px;font-weight:bold;text-anchor:start;fill:#000000;stroke:none;font-family:Arial"
     x="308.7785"
     y="104.26318"
     font="10px &quot;Arial&quot;"
     font-weight="bold"
     font-size="16px"
     id="text135">
    <tspan
       dy="5.9999995"
       id="tspan137">107</tspan>
  </text>
  <text
     style="font-size:17.52960014px;font-weight:bold;text-anchor:start;fill:#000000;stroke:none;font-family:Arial"
     x="343.6785"
     y="125.86319"
     font="10px &quot;Arial&quot;"
     font-weight="bold"
     font-size="16px"
     id="text139">
    <tspan
       dy="5.9999995"
       id="tspan141">108</tspan>
  </text>
  <text
     style="font-size:17.52960014px;font-weight:bold;text-anchor:start;fill:#000000;stroke:none;font-family:Arial"
     x="356.5285"
     y="158.71318"
     font="10px &quot;Arial&quot;"
     font-weight="bold"
     font-size="16px"
     id="text143">
    <tspan
       dy="5.9999995"
       id="tspan145">109</tspan>
  </text>
  <text
     style="font-size:17.52960014px;font-weight:bold;text-anchor:start;fill:#000000;stroke:none;font-family:Arial"
     x="256.87851"
     y="101.01318"
     font="10px &quot;Arial&quot;"
     font-weight="bold"
     font-size="16px"
     id="text147">
    <tspan
       dy="5.9999995"
       id="tspan149">106</tspan>
  </text>
  <text
     style="font-size:17.52960014px;font-weight:bold;text-anchor:start;fill:#000000;stroke:none;font-family:Arial"
     x="200.37852"
     y="101.01318"
     font="10px &quot;Arial&quot;"
     font-weight="bold"
     font-size="16px"
     id="text151">
    <tspan
       dy="5.9999995"
       id="tspan153">105</tspan>
  </text>
  <text
     style="font-size:17.52960014px;font-weight:bold;text-anchor:start;fill:#000000;stroke:none;font-family:Arial"
     x="145.67851"
     y="101.01318"
     font="10px &quot;Arial&quot;"
     font-weight="bold"
     font-size="16px"
     id="text155">
    <tspan
       dy="5.9999995"
       id="tspan157">104</tspan>
  </text>
  <text
     style="font-size:17.52960014px;font-weight:bold;text-anchor:start;fill:#000000;stroke:none;font-family:Arial"
     x="99.028526"
     y="104.26318"
     font="10px &quot;Arial&quot;"
     font-weight="bold"
     font-size="16px"
     id="text159">
    <tspan
       dy="5.9999995"
       id="tspan161">103</tspan>
  </text>
  <text
     style="font-size:13.14719963px;font-weight:bold;text-anchor:start;fill:#000000;stroke:none;font-family:Arial"
     x="70.17852"
     y="119.22198"
     font="10px &quot;Arial&quot;"
     font-weight="bold"
     font-size="12px"
     id="text163">
    <tspan
       dy="4.5000005"
       id="tspan165">102</tspan>
  </text>
  <text
     style="font-size:17.52960014px;font-weight:bold;text-anchor:start;fill:#000000;stroke:none;font-family:Arial"
     x="417.32849"
     y="94.86319"
     font="10px &quot;Arial&quot;"
     font-weight="bold"
     font-size="16px"
     id="text167">
    <tspan
       dy="5.9999995"
       id="tspan169">308</tspan>
  </text>
  <text
     style="font-size:17.52960014px;font-weight:bold;text-anchor:start;fill:#000000;stroke:none;font-family:Arial"
     x="438.12851"
     y="150.46318"
     font="10px &quot;Arial&quot;"
     font-weight="bold"
     font-size="16px"
     id="text171">
    <tspan
       dy="5.9999995"
       id="tspan173">309</tspan>
  </text>
  <text
     style="font-size:17.52960014px;font-weight:bold;text-anchor:start;fill:#000000;stroke:none;font-family:Arial"
     x="438.12851"
     y="203.36319"
     font="10px &quot;Arial&quot;"
     font-weight="bold"
     font-size="16px"
     id="text175">
    <tspan
       dy="5.9999995"
       id="tspan177">310</tspan>
  </text>
  <text
     style="font-size:10.95600033px;font-weight:bold;text-anchor:start;fill:#000000;stroke:none;font-family:Arial"
     x="404.57849"
     y="197.8765"
     font="10px &quot;Arial&quot;"
     font-weight="bold"
     font-size="10px"
     id="text179">
    <tspan
       dy="3.9999995"
       id="tspan181">210</tspan>
  </text>
  <text
     style="font-size:10.95600033px;font-weight:bold;text-anchor:start;fill:#000000;stroke:none;font-family:Arial"
     x="381.57849"
     y="245.52649"
     font="10px &quot;Arial&quot;"
     font-weight="bold"
     font-size="10px"
     id="text183">
    <tspan
       dy="3.9999995"
       id="tspan185">211</tspan>
  </text>
  <text
     style="font-size:17.52960014px;font-weight:bold;text-anchor:start;fill:#000000;stroke:none;font-family:Arial"
     x="357.57849"
     y="191.01318"
     font="10px &quot;Arial&quot;"
     font-weight="bold"
     font-size="16px"
     id="text187">
    <tspan
       dy="5.9999995"
       id="tspan189">110</tspan>
  </text>
  <text
     style="font-size:17.52960014px;font-weight:bold;text-anchor:start;fill:#000000;stroke:none;font-family:Arial"
     x="343.12851"
     y="223.31317"
     font="10px &quot;Arial&quot;"
     font-weight="bold"
     font-size="16px"
     id="text191">
    <tspan
       dy="5.9999995"
       id="tspan193">111</tspan>
  </text>
  <text
     style="font-size:17.52960014px;font-weight:bold;text-anchor:start;fill:#000000;stroke:none;font-family:Arial"
     x="417.0285"
     y="256.4632"
     font="10px &quot;Arial&quot;"
     font-weight="bold"
     font-size="16px"
     id="text195">
    <tspan
       dy="5.9999995"
       id="tspan197">311</tspan>
  </text>
  <text
     style="font-size:17.52960014px;font-weight:bold;text-anchor:start;fill:#000000;stroke:none;font-family:Arial"
     x="375.4285"
     y="298.11319"
     font="10px &quot;Arial&quot;"
     font-weight="bold"
     font-size="16px"
     id="text199">
    <tspan
       dy="5.9999995"
       id="tspan201">312</tspan>
  </text>
  <text
     style="font-size:17.52960014px;font-weight:bold;text-anchor:start;fill:#000000;stroke:none;font-family:Arial"
     x="307.47852"
     y="246.36319"
     font="10px &quot;Arial&quot;"
     font-weight="bold"
     font-size="16px"
     id="text203">
    <tspan
       dy="5.9999995"
       id="tspan205">112</tspan>
  </text>
  <text
     style="font-size:17.52960014px;font-weight:bold;text-anchor:start;fill:#000000;stroke:none;font-family:Arial"
     x="255.82851"
     y="248.56317"
     font="10px &quot;Arial&quot;"
     font-weight="bold"
     font-size="16px"
     id="text207">
    <tspan
       dy="5.9999995"
       id="tspan209">113</tspan>
  </text>
  <text
     style="font-size:17.52960014px;font-weight:bold;text-anchor:start;fill:#000000;stroke:none;font-family:Arial"
     x="200.37852"
     y="248.56317"
     font="10px &quot;Arial&quot;"
     font-weight="bold"
     font-size="16px"
     id="text211">
    <tspan
       dy="5.9999995"
       id="tspan213">114</tspan>
  </text>
  <text
     style="font-size:17.52960014px;font-weight:bold;text-anchor:start;fill:#000000;stroke:none;font-family:Arial"
     x="145.92851"
     y="248.56317"
     font="10px &quot;Arial&quot;"
     font-weight="bold"
     font-size="16px"
     id="text215">
    <tspan
       dy="5.9999995"
       id="tspan217">115</tspan>
  </text>
  <text
     style="font-size:17.52960014px;font-weight:bold;text-anchor:start;fill:#000000;stroke:none;font-family:Arial"
     x="318.4285"
     y="314.66318"
     font="10px &quot;Arial&quot;"
     font-weight="bold"
     font-size="16px"
     id="text219">
    <tspan
       dy="5.9999995"
       id="tspan221">313</tspan>
  </text>
  <text
     style="font-size:17.52960014px;font-weight:bold;text-anchor:start;fill:#000000;stroke:none;font-family:Arial"
     x="257.12851"
     y="316.01318"
     font="10px &quot;Arial&quot;"
     font-weight="bold"
     font-size="16px"
     id="text223">
    <tspan
       dy="5.9999995"
       id="tspan225">314</tspan>
  </text>
  <text
     style="font-size:17.52960014px;font-weight:bold;text-anchor:start;fill:#000000;stroke:none;font-family:Arial"
     x="199.32852"
     y="316.01318"
     font="10px &quot;Arial&quot;"
     font-weight="bold"
     font-size="16px"
     id="text227">
    <tspan
       dy="5.9999995"
       id="tspan229">315</tspan>
  </text>
  <text
     style="font-size:17.52960014px;font-weight:bold;text-anchor:start;fill:#000000;stroke:none;font-family:Arial"
     x="139.87852"
     y="316.01318"
     font="10px &quot;Arial&quot;"
     font-weight="bold"
     font-size="16px"
     id="text231">
    <tspan
       dy="5.9999995"
       id="tspan233">316</tspan>
  </text>
  <text
     style="font-size:15.33839989px;font-weight:bold;text-anchor:start;fill:#000000;stroke:none;font-family:Arial"
     x="91.67852"
     y="313.41757"
     font="10px &quot;Arial&quot;"
     font-weight="bold"
     font-size="14px"
     id="text235">
    <tspan
       dy="5.4999995"
       id="tspan237">317</tspan>
  </text>
  <text
     style="font-size:12.05160046px;font-weight:bold;text-anchor:start;fill:#000000;stroke:none;font-family:Arial"
     x="72.278519"
     y="278.77417"
     font="10px &quot;Arial&quot;"
     font-weight="bold"
     font-size="11px"
     id="text239">
    <tspan
       dy="3.9999995"
       id="tspan241">217</tspan>
  </text>
  <text
     style="font-size:17.52960014px;font-weight:bold;text-anchor:start;fill:#000000;stroke:none;font-family:Arial"
     x="98.528526"
     y="246.36319"
     font="10px &quot;Arial&quot;"
     font-weight="bold"
     font-size="16px"
     id="text243">
    <tspan
       dy="5.9999995"
       id="tspan245">116</tspan>
  </text>
  <text
     style="font-size:13.14719963px;font-weight:bold;text-anchor:start;fill:#000000;stroke:none;font-family:Arial"
     x="70.67852"
     y="233.22198"
     font="10px &quot;Arial&quot;"
     font-weight="bold"
     font-size="12px"
     id="text247">
    <tspan
       dy="4.5000005"
       id="tspan249">117</tspan>
  </text>
  <text
     style="font-size:10.95600033px;font-weight:bold;text-anchor:start;fill:#000000;stroke:none;font-family:Arial"
     x="62.278515"
     y="308.1265"
     font="10px &quot;Arial&quot;"
     font-weight="bold"
     font-size="10px"
     id="text251">
    <tspan
       dy="3.9999995"
       id="tspan253">318</tspan>
  </text>
  <text
     style="font-size:15.33839989px;font-weight:bold;text-anchor:start;fill:#000000;stroke:none;font-family:Arial"
     x="19.278503"
     y="174.61758"
     font="10px &quot;Arial&quot;"
     font-weight="bold"
     font-size="14px"
     id="text255">
    <tspan
       dy="5.4999995"
       id="tspan257">203</tspan>
  </text>
  <text
     style="font-size:10.95600033px;font-weight:bold;text-anchor:start;fill:#000000;stroke:none;font-family:Arial"
     x="25.828499"
     y="145.02649"
     font="10px &quot;Arial&quot;"
     font-weight="bold"
     font-size="10px"
     id="text259">
    <tspan
       dy="3.9999995"
       id="tspan261">204</tspan>
  </text>
  <text
     style="font-size:15.33839989px;font-weight:bold;text-anchor:start;fill:#000000;stroke:none;font-family:Arial"
     x="34.178493"
     y="120.31758"
     font="10px &quot;Arial&quot;"
     font-weight="bold"
     font-size="14px"
     id="text263">
    <tspan
       dy="5.4999995"
       id="tspan265">205</tspan>
  </text>
  <text
     style="font-size:10.95600033px;font-weight:bold;text-anchor:start;fill:#000000;stroke:none;font-family:Arial"
     x="26.128498"
     y="206.72647"
     font="10px &quot;Arial&quot;"
     font-weight="bold"
     font-size="10px"
     id="text267">
    <tspan
       dy="3.9999995"
       id="tspan269">202</tspan>
  </text>
  <text
     style="font-size:15.33839989px;font-weight:bold;text-anchor:start;fill:#000000;stroke:none;font-family:Arial"
     x="34.428493"
     y="230.96759"
     font="10px &quot;Arial&quot;"
     font-weight="bold"
     font-size="14px"
     id="text271">
    <tspan
       dy="5.4999995"
       id="tspan273">201</tspan>
  </text>
  <text
     style="font-size:13.14719963px;font-weight:bold;text-anchor:start;fill:#000000;stroke:none;font-family:Arial"
     x="209.62852"
     y="285.22198"
     font="10px &quot;Arial&quot;"
     font-weight="bold"
     font-size="12px"
     id="text275">
    <tspan
       dy="4.5000005"
       id="tspan277">SUITES</tspan>
  </text>
  <text
     style="font-size:13.14719963px;font-weight:bold;text-anchor:start;fill:#000000;stroke:none;font-family:Arial"
     x="58.628513"
     y="174.57198"
     font="10px &quot;Arial&quot;"
     font-weight="bold"
     font-size="12px"
     id="text279">
    <tspan
       dy="4.5000005"
       id="tspan281">101</tspan>
  </text>
  <text
     style="font-size:5.47807741px;font-weight:bold;text-anchor:start;fill:#000000;stroke:none;font-family:Arial"
     x="-83.388664"
     y="82.732445"
     font="10px &quot;Arial&quot;"
     transform="matrix(0.54444284,-0.83879794,0.83879794,0.54444284,0,0)"
     font-weight="bold"
     font-size="5px"
     id="text283">
    <tspan
       dy="1.8755833"
       id="tspan285">205S</tspan>
  </text>
  <text
     style="font-size:5.47782803px;font-weight:bold;text-anchor:start;fill:#000000;stroke:none;font-family:Arial"
     x="-136.20038"
     y="52.969944"
     font="10px &quot;Arial&quot;"
     transform="matrix(0.2847844,-0.95859159,0.95859159,0.2847844,0,0)"
     font-weight="bold"
     font-size="5px"
     id="text287">
    <tspan
       dy="1.8754126"
       id="tspan289">204S</tspan>
  </text>
  <text
     style="font-size:5.47800398px;font-weight:bold;text-anchor:start;fill:#000000;stroke:none;font-family:Arial"
     x="-182.4814"
     y="9.0450258"
     font="10px &quot;Arial&quot;"
     transform="matrix(0.00118656,-0.9999993,0.9999993,0.00118656,0,0)"
     font-weight="bold"
     font-size="5px"
     id="text291">
    <tspan
       dy="1.8755329"
       id="tspan293">203S</tspan>
  </text>
  <text
     style="font-size:5.4778018px;font-weight:bold;text-anchor:start;fill:#000000;stroke:none;font-family:Arial"
     x="202.33829"
     y="45.568314"
     font="10px &quot;Arial&quot;"
     transform="matrix(0.27474524,0.96151706,-0.96151706,0.27474524,0,0)"
     font-weight="bold"
     font-size="5px"
     id="text295">
    <tspan
       dy="1.8753945"
       id="tspan297">202S</tspan>
  </text>
  <text
     style="font-size:5.47784138px;font-weight:bold;text-anchor:start;fill:#000000;stroke:none;font-family:Arial"
     x="216.13687"
     y="101.76947"
     font="10px &quot;Arial&quot;"
     transform="matrix(0.51334091,0.85818478,-0.85818478,0.51334091,0,0)"
     font-weight="bold"
     font-size="5px"
     id="text299">
    <tspan
       dy="1.8754218"
       id="tspan301">201S</tspan>
  </text>
  <text
     style="font-size:5.47800016px;font-weight:bold;text-anchor:start;fill:#000000;stroke:none;font-family:Arial"
     x="207.42851"
     y="11.937485"
     font="10px &quot;Arial&quot;"
     font-weight="bold"
     font-size="5px"
     id="text303">
    <tspan
       dy="1.8755302"
       id="tspan305">304S</tspan>
  </text>
  <text
     style="font-size:5.47752428px;font-weight:bold;text-anchor:start;fill:#000000;stroke:none;font-family:Arial"
     x="86.171043"
     y="40.588539"
     font="10px &quot;Arial&quot;"
     transform="matrix(0.96649503,-0.25668531,0.25668531,0.96649503,0,0)"
     font-weight="bold"
     font-size="5px"
     id="text307">
    <tspan
       dy="1.8752046"
       id="tspan309">302S</tspan>
  </text>
  <text
     style="font-size:5.47752428px;font-weight:bold;text-anchor:start;fill:#000000;stroke:none;font-family:Arial"
     x="51.528633"
     y="40.907021"
     font="10px &quot;Arial&quot;"
     transform="matrix(0.96649503,-0.25668531,0.25668531,0.96649503,0,0)"
     font-weight="bold"
     font-size="5px"
     id="text311">
    <tspan
       dy="1.8752046"
       id="tspan313">301S</tspan>
  </text>
  <text
     style="font-size:5.47763014px;font-weight:bold;text-anchor:start;fill:#000000;stroke:none;font-family:Arial"
     x="146.28951"
     y="298.01208"
     font="10px &quot;Arial&quot;"
     transform="matrix(0.96319026,0.26882063,-0.26882063,0.96319026,0,0)"
     font-weight="bold"
     font-size="5px"
     id="text315">
    <tspan
       dy="1.8752769"
       id="tspan317">318S</tspan>
  </text>
  <text
     style="font-size:5.47763014px;font-weight:bold;text-anchor:start;fill:#000000;stroke:none;font-family:Arial"
     x="181.45737"
     y="297.54089"
     font="10px &quot;Arial&quot;"
     transform="matrix(0.96319026,0.26882063,-0.26882063,0.96319026,0,0)"
     font-weight="bold"
     font-size="5px"
     id="text319">
    <tspan
       dy="1.8752769"
       id="tspan321">317S</tspan>
  </text>
</svg>
