<svg height="500" version="1.1" width="500" xmlns="http://www.w3.org/2000/svg" style="overflow: hidden; position: relative;" viewBox="0 0 500 500" preserveAspectRatio="xMinYMin"><desc style="-webkit-tap-highlight-color: rgba(0, 0, 0, 0);">Created with Raphaël 2.1.0</desc><defs style="-webkit-tap-highlight-color: rgba(0, 0, 0, 0);"></defs><path fill="#eeeeee" stroke="#000000" d="M271.35,477.65L226.35,477.65L226.35,432.65L271.35,432.65L271.35,477.65" transform="matrix(1,0,0,1,0,0)" fill-opacity="1" style="-webkit-tap-highlight-color: rgba(0, 0, 0, 0); fill-opacity: 1;"></path><path fill="#ffffff" stroke="none" d="M413.52453,105.82265L424.52453,259.07265L87.97452700000002,288.07265L76.97452700000002,134.82265L413.52453,105.82265000000001" transform="matrix(1,0,0,1,0,0)" fill-opacity="1" id="1000" style="-webkit-tap-highlight-color: rgba(0, 0, 0, 0); fill-opacity: 1;"></path><path fill="#000000" stroke="#999999" d="M424.67966,259.36864L88.129661,288.36864L77.129661,135.11864000000003L413.67966,106.11864000000003L424.67966,259.36864M271.35,477.65L226.35000000000002,477.65L226.35000000000002,432.65L271.35,432.65L271.35,477.65" transform="matrix(1,0,0,1,0,0)" fill-opacity="0" style="-webkit-tap-highlight-color: rgba(0, 0, 0, 0); fill-opacity: 0;"></path><path fill="#000000" stroke="#999999" d="M472.325,154.95L467.2,90.4L19.45,127.55L24.625,192.65L24.675,193.15Q35.234766,193.33359,42.85,200.9Q50.65,208.7,50.65,219.7Q50.65,230.7,42.85,238.45Q36.801563,244.49844,28.825,245.875L33.5,304.75L481.25,267.55L476.425,206.65Q467.88789,205.48789,461.5,199.1Q453.75,191.35,453.75,180.35Q453.75,169.35,461.5,161.55Q466.30273,156.77812,472.325,154.95" transform="matrix(1,0,0,1,0,0)" fill-opacity="0" style="-webkit-tap-highlight-color: rgba(0, 0, 0, 0); fill-opacity: 0;"></path><path fill="#ffffff" stroke="#000000" d="M22.5,22.5L-22.5,22.5L-22.5,-22.5L22.5,-22.5L22.5,22.5" transform="matrix(1,0,0,1,248.85,455.15)" fill-opacity="1" id="996" style="-webkit-tap-highlight-color: rgba(0, 0, 0, 0); fill-opacity: 1;"></path><path fill="#333333" stroke="none" d="M343.03178,202.36672L348.35831,220.30739999999997L348.35831,202.36672L352.38572,202.36672L352.38572,229.08547L348.05985,229.08547L342.52,211.97609999999997L342.52,229.08547L338.49350999999996,229.08547L338.49350999999996,202.36672ZM329.3364,202.0472C331.11191,202.04723,332.62115,202.67223,333.86414,203.9222C335.10711000000003,205.17223,335.72860000000003,206.67796,335.72861,208.43942L335.72861,223.01278000000002C335.72860000000003,224.78830000000002,335.10360000000003,226.29754000000003,333.85361,227.54052000000001C332.60360000000003,228.7835,331.09787,229.40499000000003,329.3364,229.40499000000003C327.56088000000005,229.40499000000003,326.05530000000005,228.77999000000003,324.81965,227.52999000000003C323.58399000000003,226.28000000000003,322.96616,224.77426000000003,322.96616,223.01278000000002L322.96616,208.43942C322.96616,206.66393000000002,323.59116,205.15468,324.84116,203.91168000000002C326.09116,202.66872,327.58957,202.04723,329.3364,202.04720000000003ZM331.53092000000004,208.35427C331.53091000000006,207.71465,331.30722000000003,207.17113,330.85984,206.72372000000001C330.41244,206.27635,329.86923,206.05266,329.2302,206.05264000000003C328.59116,206.05266000000003,328.04428,206.27635000000004,327.58958,206.72372000000001C327.13486,207.17113,326.9075,207.71465,326.90751,208.35427L326.90751,222.97067C326.9075,223.60971,327.13486,224.15292000000002,327.58958,224.60031C328.04428,225.04770000000002,328.59116,225.27139,329.2302,225.27139C329.86923,225.27139,330.41244,225.0477,330.85984,224.60031C331.30722000000003,224.15292,331.53091,223.60971,331.53092000000004,222.97067ZM320.19578,229.08547000000002L316.16929,229.08547000000002L316.16929,202.38778000000002L320.19578,202.38778000000002ZM313.37235000000004,222.43783000000002C313.40105000000005,224.29880000000003,312.91824,225.88968000000003,311.92399000000006,227.21047000000002C311.27029000000005,228.10525,310.34683000000007,228.73727000000002,309.15360000000004,229.10653000000002C308.51455000000004,229.30551000000003,307.76901000000004,229.40499000000003,306.91697000000005,229.40499000000003C305.33981000000006,229.40499000000003,304.03275,229.01437,302.99577000000005,228.23312C302.12967000000003,227.59408000000002,301.44440000000003,226.72418000000002,300.93995000000007,225.62341C300.4354900000001,224.52264,300.1408400000001,223.26181,300.0560100000001,221.84091L303.8911500000001,221.56442C304.0614300000001,223.11227000000002,304.4734200000001,224.23440000000002,305.1271100000001,224.93081C305.60989000000006,225.45633,306.16379000000006,225.70474000000002,306.7888000000001,225.67605C307.6695200000001,225.64795,308.3726500000001,225.21493,308.8981700000001,224.37692C309.1679400000001,223.96493,309.3028200000001,223.37534000000002,309.3028300000001,222.60812C309.3028200000001,221.50034000000002,308.7986700000001,220.39957,307.7903800000001,219.30581C306.99448000000007,218.55265,305.80124000000006,217.42319,304.2106700000001,215.91744C302.8752200000001,214.62534,301.9307000000001,213.46781,301.37711000000013,212.44485C300.7801900000001,211.29435,300.48173000000014,210.04436,300.48173000000014,208.69485C300.48173000000014,206.26567,301.29868000000016,204.42607,302.9325900000001,203.17605C303.94089000000014,202.42351,305.19089000000014,202.04723,306.6825900000001,202.0472C308.11691000000013,202.04723,309.3455500000001,202.36675,310.36851000000013,203.00576C311.16378000000014,203.50322,311.80648000000014,204.19933,312.2966100000001,205.09408000000002C312.7867100000001,205.98888000000002,313.0815100000001,207.01854000000003,313.18101000000013,208.18307000000001L309.3238900000001,208.88619000000003C309.2103500000001,207.79247000000004,308.8978600000001,206.94042000000002,308.3863900000001,206.33004000000003C308.01712000000015,205.88939000000002,307.48459000000014,205.66905000000003,306.7888000000001,205.66903000000002C306.0502600000001,205.66905000000003,305.4890500000001,205.99590000000003,305.1051400000001,206.64956C304.79263000000014,207.17510000000001,304.63638000000014,207.82848,304.6363900000001,208.6097C304.63638000000014,209.83104,305.1622000000001,211.07402,306.2138400000001,212.33865C306.6111800000001,212.82145,307.2074900000001,213.38938,308.00278000000014,214.04244C308.94027000000017,214.82371,309.55825000000016,215.37058,309.85673000000014,215.68307C310.85098000000016,216.67794999999998,311.61819000000014,217.65818,312.15836000000013,218.62374C312.41409000000016,219.07846,312.62008000000014,219.49747,312.7763400000001,219.88076C313.1596300000001,220.83231,313.3583000000001,221.68466,313.3723500000001,222.43783000000002ZM297.25907000000007,222.43783000000002C297.2877700000001,224.29880000000003,296.80496000000005,225.88968000000003,295.8107100000001,227.21047000000002C295.15701000000007,228.10525,294.2335500000001,228.73727000000002,293.04032000000007,229.10653000000002C292.40127000000007,229.30551000000003,291.65573000000006,229.40499000000003,290.8036900000001,229.40499000000003C289.2265300000001,229.40499000000003,287.91947000000005,229.01437,286.8824800000001,228.23312C286.0163900000001,227.59408000000002,285.3311200000001,226.72418000000002,284.8266700000001,225.62341C284.3222100000001,224.52264,284.0275600000001,223.26181,283.9427300000001,221.84091L287.7778700000001,221.56442C287.9481500000001,223.11227000000002,288.3601400000001,224.23440000000002,289.0138300000001,224.93081C289.4966100000001,225.45633,290.0505100000001,225.70474000000002,290.6755100000001,225.67605C291.5562400000001,225.64795,292.2593700000001,225.21493,292.7848900000001,224.37692C293.0546500000001,223.96493,293.1895400000001,223.37534000000002,293.18955000000005,222.60812C293.1895400000001,221.50034000000002,292.68539000000004,220.39957,291.67710000000005,219.30581C290.88119000000006,218.55265,289.68796000000003,217.42319,288.0973900000001,215.91744C286.7619400000001,214.62534,285.8174200000001,213.46781,285.2638300000001,212.44485C284.6669100000001,211.29435,284.3684400000001,210.04436,284.3684500000001,208.69485C284.36844000000013,206.26567,285.18540000000013,204.42607,286.8193100000001,203.17605C287.8276100000001,202.42351,289.0776100000001,202.04723,290.5693100000001,202.0472C292.0036300000001,202.04723,293.2322700000001,202.36675,294.2552300000001,203.00576C295.0505000000001,203.50322,295.6932000000001,204.19933,296.18333000000007,205.09408000000002C296.6734200000001,205.98888000000002,296.9682200000001,207.01854000000003,297.0677300000001,208.18307000000001L293.2106100000001,208.88619000000003C293.0970700000001,207.79247000000004,292.7845700000001,206.94042000000002,292.2731100000001,206.33004000000003C291.9038400000001,205.88939000000002,291.3713100000001,205.66905000000003,290.6755100000001,205.66903000000002C289.93698000000006,205.66905000000003,289.37576000000007,205.99590000000003,288.9918600000001,206.64956C288.6793500000001,207.17510000000001,288.5231000000001,207.82848,288.5231100000001,208.6097C288.5231000000001,209.83104,289.04892000000007,211.07402,290.1005600000001,212.33865C290.4978900000001,212.82145,291.0942100000001,213.38938,291.8895000000001,214.04244C292.82699000000014,214.82371,293.4449700000001,215.37058,293.7434500000001,215.68307C294.73770000000013,216.67794999999998,295.5049100000001,217.65818,296.0450800000001,218.62374C296.3008100000001,219.07846,296.5068000000001,219.49747,296.6630600000001,219.88076C297.0463500000001,220.83231,297.24502000000007,221.68466,297.25907000000007,222.43783000000002ZM281.1723400000001,229.08547000000002L277.14585000000005,229.08547000000002L277.14585000000005,202.38778000000002L281.1723400000001,202.38778000000002ZM259.72703000000007,229.08547000000002L255.70054000000007,229.08547000000002L255.70054000000007,202.36672000000002L261.4747700000001,202.36672000000002L265.2247700000001,221.52139000000003L268.8255400000001,202.36672000000002L274.3864500000001,202.36672000000002L274.3864500000001,229.08547000000002L270.3590500000001,229.08547000000002L270.3590500000001,212.29562L266.8653900000001,229.08547000000002L263.6262600000001,229.08547000000002L259.7270300000001,212.33865000000003ZM252.94663000000008,222.69326C252.94662000000008,224.45474000000002,252.3286400000001,225.96048000000002,251.0926900000001,227.21047000000002C249.85672000000008,228.46047000000002,248.36532000000008,229.08547000000002,246.6185100000001,229.08547000000002L240.2903800000001,229.08547000000002L240.2903800000001,202.36672000000002L246.6185100000001,202.36672000000002C248.3799700000001,202.36675000000002,249.8750300000001,202.99175000000002,251.1036800000001,204.24172000000002C252.33230000000012,205.49175000000002,252.9466200000001,206.99046,252.9466300000001,208.73788000000002ZM244.31687000000008,225.1011L246.74577000000008,225.1011C247.3854100000001,225.1011,247.92541000000008,224.87024,248.3657900000001,224.4085C248.8061500000001,223.94678,249.0263300000001,223.40341,249.0263400000001,222.77841L249.0263400000001,208.80105C249.0263300000001,208.16203000000002,248.8024900000001,207.61531,248.3548000000001,207.16088C247.9071000000001,206.7065,247.3707600000001,206.4793,246.7457700000001,206.47926999999999L244.3168700000001,206.47926999999999ZM228.1239400000001,222.94869L227.1434100000001,229.08547L222.9466300000001,229.08547L227.48490000000012,202.38778L233.02476000000013,202.38778L237.49894000000012,229.08547L233.28019000000012,229.08547L232.3216300000001,222.94869ZM230.2333100000001,208.5035L228.7419200000001,219.02841L231.7247100000001,219.02841ZM217.3957900000001,229.08547L206.4231900000001,229.08547L206.4231900000001,202.38778L210.4496800000001,202.38778L210.4496800000001,225.08004L217.3957900000001,225.08004ZM194.2567500000001,222.94869L193.2762200000001,229.08547L189.07944000000012,229.08547L193.61771000000013,202.38778L199.15757000000013,202.38778L203.63175000000012,229.08547L199.41300000000012,229.08547L198.45444000000012,222.94869ZM196.36613000000008,208.5035L194.87473000000008,219.02841L197.85752000000008,219.02841ZM179.13956000000007,202.38778C181.38382000000007,202.38781,183.03146000000007,203.00579,184.08250000000007,204.24172C185.00594000000007,205.32145999999997,185.46768000000006,206.82719999999998,185.46769000000006,208.75894L185.46769000000006,212.63619C185.46768000000006,214.52586,184.75021000000007,216.12406,183.31528000000006,217.43081L186.29899000000006,229.08547000000002L181.95206000000007,229.08547000000002L179.50211000000007,219.00735C179.38797000000008,219.02135,179.26712000000006,219.02845,179.13956000000007,219.02845L176.81687000000008,219.02845L176.81687000000008,229.08551L172.79038000000008,229.08551L172.79038000000008,202.38782ZM181.54740000000007,208.82301999999999C181.54739000000006,207.27458,180.78018000000006,206.50035,179.24577000000008,206.50033L176.81687000000008,206.50033L176.81687000000008,215.04403L179.24577000000008,215.04403C179.8854100000001,215.04405,180.4289200000001,214.81683999999998,180.87632000000008,214.36242C181.3237000000001,213.90803,181.54739000000006,213.36130999999997,181.54740000000007,212.72224999999997ZM158.55210000000005,229.08547L158.55210000000005,202.36672L170.01450000000006,202.36672L170.01450000000006,206.39413L162.57859000000005,206.39413L162.57859000000005,213.70186999999999L168.01225000000005,213.70186999999999L168.01225000000005,217.75033L162.57859000000005,217.75033L162.57859000000005,225.05807L170.01450000000006,225.05807L170.01450000000006,229.08547ZM146.44975000000005,202.36672L151.77628000000004,220.30739999999997L151.77628000000004,202.36672L155.80369000000005,202.36672L155.80369000000005,229.08547L151.47782000000004,229.08547L145.93797000000004,211.97609999999997L145.93797000000004,229.08547L141.91148000000004,229.08547L141.91148000000004,202.36672ZM127.67319000000005,229.08547L127.67319000000005,202.36672L139.13560000000004,202.36672L139.13560000000004,206.39413L131.69968000000003,206.39413L131.69968000000003,213.70186999999999L137.13334000000003,213.70186999999999L137.13334000000003,217.75033L131.69968000000003,217.75033L131.69968000000003,225.05807L139.13560000000004,225.05807L139.13560000000004,229.08547ZM118.53806000000004,229.42604999999998C116.76193000000005,229.42604999999998,115.25254000000004,228.80104999999998,114.00986000000005,227.55104999999998C112.76719000000004,226.30104999999998,112.14585000000005,224.80263999999997,112.14585000000005,223.05580999999998L112.14585000000005,208.48153C112.14585000000005,206.70604,112.77085000000005,205.1968,114.02085000000005,203.95379C115.27085000000005,202.71084,116.77658000000005,202.08935,118.53806000000006,202.08932C120.31357000000006,202.08935,121.81915000000006,202.71435,123.05482000000006,203.96432C124.29046000000007,205.21434,124.90829000000006,206.72008,124.90830000000007,208.48153L124.90830000000007,211.52840999999998L120.73258000000007,211.52840999999998L120.73258000000007,208.39638999999997C120.73257000000007,207.75736999999998,120.50522000000007,207.21049999999997,120.05051000000007,206.75575999999998C119.59579000000008,206.30106999999998,119.04892000000008,206.07371999999998,118.40989000000008,206.07368999999997C117.77084000000008,206.07371999999998,117.22748000000007,206.30106999999998,116.77979000000008,206.75575999999998C116.33209000000008,207.21049999999997,116.10825000000008,207.75736999999998,116.10825000000008,208.39638999999997L116.10825000000008,223.01277999999996C116.10825000000008,223.65243999999996,116.33209000000008,224.19594999999995,116.77979000000008,224.64333999999997C117.22748000000007,225.09072999999998,117.77084000000008,225.31441999999996,118.40989000000008,225.31441999999996C119.04892000000008,225.31441999999996,119.59579000000008,225.09072999999995,120.05051000000007,224.64333999999997C120.50522000000008,224.19594999999995,120.73257000000008,223.65243999999996,120.73258000000007,223.01277999999996L120.73258000000007,217.75032999999996L118.49503000000007,217.75032999999996L118.49503000000007,213.72292999999996L124.90830000000007,213.72292999999996L124.90830000000007,223.05580999999995C124.90829000000006,224.83132999999995,124.28329000000006,226.33690999999996,123.03330000000007,227.57256999999996C121.78329000000006,228.80821999999995,120.28488000000007,229.42604999999995,118.53806000000007,229.42604999999995Z" transform="matrix(0.9962,-0.0871,0.0871,0.9962,0,0)" style="-webkit-tap-highlight-color: rgba(0, 0, 0, 0);"></path><text x="0" y="0" text-anchor="middle" font="10px &quot;Arial&quot;" stroke="none" fill="#000000" style="-webkit-tap-highlight-color: rgba(0, 0, 0, 0); text-anchor: middle; font-style: normal; font-variant: normal; font-weight: bold; font-stretch: normal; font-size: 9px; line-height: normal; font-family: Arial;" transform="matrix(1,0,0,1,248.65,444.55)" font-weight="bold" font-size="9px" font-family="Arial"><tspan dy="3" style="-webkit-tap-highlight-color: rgba(0, 0, 0, 0);">SUITES</tspan></text><text x="0" y="0" text-anchor="middle" font="10px &quot;Arial&quot;" stroke="none" fill="#000000" style="-webkit-tap-highlight-color: rgba(0, 0, 0, 0); text-anchor: middle; font-style: normal; font-variant: normal; font-weight: bold; font-stretch: normal; font-size: 9px; line-height: normal; font-family: Arial;" transform="matrix(1,0,0,1,248.65,453.55)" font-weight="bold" font-size="9px" font-family="Arial"><tspan dy="3" style="-webkit-tap-highlight-color: rgba(0, 0, 0, 0);">&amp;</tspan></text><text x="0" y="0" text-anchor="middle" font="10px &quot;Arial&quot;" stroke="none" fill="#000000" style="-webkit-tap-highlight-color: rgba(0, 0, 0, 0); text-anchor: middle; font-style: normal; font-variant: normal; font-weight: bold; font-stretch: normal; font-size: 9px; line-height: normal; font-family: Arial;" transform="matrix(1,0,0,1,248.65,462.55)" font-weight="bold" font-size="9px" font-family="Arial"><tspan dy="3" style="-webkit-tap-highlight-color: rgba(0, 0, 0, 0);">BOXES</tspan></text><text x="76.75" y="349" text-anchor="start" font="10px &quot;Arial&quot;" stroke="none" fill="#333333" style="-webkit-tap-highlight-color: rgba(0, 0, 0, 0); text-anchor: start; font-style: normal; font-variant: normal; font-weight: bold; font-stretch: normal; font-size: 14px; line-height: normal; font-family: Arial;" transform="matrix(1,0,0,1,0,0)" font-weight="bold" font-size="14px" font-family="Arial"><tspan dy="5" style="-webkit-tap-highlight-color: rgba(0, 0, 0, 0);">Tickets to this event are General Admission Tickets.</tspan></text><text x="49.368652" y="364.30615" text-anchor="start" font="10px &quot;Arial&quot;" stroke="none" fill="#333333" style="-webkit-tap-highlight-color: rgba(0, 0, 0, 0); text-anchor: start; font-style: normal; font-variant: normal; font-weight: normal; font-stretch: normal; font-size: 14px; line-height: normal; font-family: Arial;" transform="matrix(1,0,0,1,0,0)" font-weight="normal" font-size="14px" font-family="Arial"><tspan dy="5.001462500000002" style="-webkit-tap-highlight-color: rgba(0, 0, 0, 0);">Whether you choose to get a close up of the artist, or hang in the</tspan></text><text x="48.883301" y="381" text-anchor="start" font="10px &quot;Arial&quot;" stroke="none" fill="#333333" style="-webkit-tap-highlight-color: rgba(0, 0, 0, 0); text-anchor: start; font-style: normal; font-variant: normal; font-weight: normal; font-stretch: normal; font-size: 14px; line-height: normal; font-family: Arial;" transform="matrix(1,0,0,1,0,0)" font-weight="normal" font-size="14px" font-family="Arial"><tspan dy="5" style="-webkit-tap-highlight-color: rgba(0, 0, 0, 0);">back of the crowd, General Admission Tickets have you covered!</tspan></text></svg>