<?xml version="1.0" encoding="UTF-8" standalone="no"?>
<svg
   xmlns:dc="http://purl.org/dc/elements/1.1/"
   xmlns:cc="http://creativecommons.org/ns#"
   xmlns:rdf="http://www.w3.org/1999/02/22-rdf-syntax-ns#"
   xmlns:svg="http://www.w3.org/2000/svg"
   xmlns="http://www.w3.org/2000/svg"
   xmlns:sodipodi="http://sodipodi.sourceforge.net/DTD/sodipodi-0.dtd"
   xmlns:inkscape="http://www.inkscape.org/namespaces/inkscape"
   height="408.25"
   version="1.1"
   width="484.45001"
   style="overflow:hidden"
   viewBox="0 0 484.45001 408.25"
   preserveAspectRatio="xMinYMin"
   id="svg2"
   inkscape:version="0.48.4 r9939"
   sodipodi:docname="ScotiabankArena_--NBABasketball-TorontoRaptors.svg">
  <metadata
     id="metadata684">
    <rdf:RDF>
      <cc:Work
         rdf:about="">
        <dc:format>image/svg+xml</dc:format>
        <dc:type
           rdf:resource="http://purl.org/dc/dcmitype/StillImage" />
      </cc:Work>
    </rdf:RDF>
  </metadata>
  <sodipodi:namedview
     pagecolor="#ffffff"
     bordercolor="#666666"
     borderopacity="1"
     objecttolerance="10"
     gridtolerance="10"
     guidetolerance="10"
     inkscape:pageopacity="0"
     inkscape:pageshadow="2"
     inkscape:window-width="1920"
     inkscape:window-height="1017"
     id="namedview682"
     showgrid="false"
     fit-margin-top="0"
     fit-margin-left="0"
     fit-margin-right="0"
     fit-margin-bottom="0"
     inkscape:zoom="1.5671875"
     inkscape:cx="267.19598"
     inkscape:cy="156.67532"
     inkscape:window-x="-8"
     inkscape:window-y="-8"
     inkscape:window-maximized="1"
     inkscape:current-layer="svg2" />
  <desc
     id="desc4">Created with Rapha??l 2.1.0</desc>
  <defs
     id="defs6" />
  <path
     d="m 351.6,21.5 q -4.35,-0.4 -7.85,-0.5 l -19.1,0 -50.75,0 -49.3,0 -49.75,0 -12.8,0 q -32.9,0.75 -61.25,13.45 l 2.45,5.05 q 28.95,-13.6 62.9,-13.6 l 8.7,0 49.75,0.05 49.3,0.05 50.75,0 19.3,0 q 3.2,0.05 7,0.4 l 0.65,-4.9 m -26.95,7.25 q -4.4,-0.05 -8.8,-0.05 -5.15,0 -10.35,0 l -139.35,0 Q 132.6,28.7 104.4,41.95 81.25,52.8 61.7,72.6 54.55,79.9 48.65,87.7 44.45,93.15 40.9,98.85 l 0,14.3 31.85,18.35 -19.65,44.95 0,68.15 20.95,49.5 -31.9,16.55 0,16.4 q 3.4,5.15 7.25,10.1 5.6,7.25 12.3,14.05 19.5,19.8 42.6,30.7 28.25,13.3 61.85,13.3 l 159,0 q 9.4,-0.05 18.8,-0.05 14.85,-0.5 28.65,-3.65 l -3.2,-8.45 q 7.9,-2.05 15.5,-4.95 l 1.3,-0.5 q 23.05,-9.05 42.75,-26.25 l 1.4,-1.35 q 4.1,-3.7 8,-7.7 0.65,-0.65 1.4,-1.35 l -16.1,-27.55 11.5,-15.2 22.65,-56.2 0,-57.75 -27.25,-61.4 -6.95,-9.85 16.6,-29.85 q -0.05,-0.05 -0.1,-0.1 -4.55,-4.7 -9.3,-8.95 -19.45,-17.35 -42.05,-26.7 -1.05,-0.45 -2.1,-0.85 l 4.1,-8.6 q -21.85,-8.3 -46.8,-9.15 -9.6,-0.05 -19.3,-0.05 m 69.9,7.65 -3.2,6.65 q 28.3,11.8 51.5,35.7 l 3.6,-6.45 -2,-2.1 Q 422,47.4 394.55,36.4 m -34.7,-19.1 0,-11.8 -217.65,0 0,11.8 217.65,0 M 367,0.5 l 0,20.9 q 25.05,5 46.45,17.1 21.2,12.05 40.55,32.1 l -9.4,17.05 39.35,88.05 0,75 -34.6,90.4 8.45,13.45 q -4.95,5.55 -6.55,7.2 -42.9,43.85 -103.2,45.95 l -185.6,0.05 q -31.3,0 -60.25,-13.1 -27.9,-12.6 -51,-36.1 -10.5,-10.7 -19.25,-23.5 L 34.15,301 20.55,304.75 0.5,253.7 l 0,-89.7 21.2,-49.05 10.45,4.75 0,-29.9 Q 42.25,73.95 53.4,62.55 71.5,44.2 91.9,32.95 q 21,-11.6 43.9,-15.35 l 0,-17.1 231.2,0 m 20.4,113 q -3.65,-3.5 -7.4,-6.5 -3.7,-2.85 -5.25,-3.9 -25.85,-19.05 -59.3,-20.1 -14,-0.15 -28.1,-0.15 l -101.6,0 q -44.6,0 -76.15,31.2 -31.45,31.2 -31.45,75.2 l 0,47 q 0,44.15 31.45,75.15 31.55,31.2 76.15,31.2 l 101.6,0 q 14.1,0 28.1,-0.05 43.8,-1.4 72.9,-30.4 2.25,-2.15 4.4,-4.45 l -9.3,-4.9 q -1.25,1.3 -3.1,3.2 -27.55,27 -69.1,28.45 -13.3,0.05 -26.6,0.05 l -96.25,0 q -42.3,0 -72.2,-29.3 -29.85,-29.05 -29.85,-70.35 l 0,-44.1 q 0,-41.3 29.85,-70.45 29.9,-29.2 72.2,-29.2 l 96.25,0 q 13.3,0 26.6,0.05 25.1,0.85 45.7,12.2 1.2,0.6 2.3,1.3 l 7.7,4.95 q 2.65,1.85 5.25,3.95 3.75,3.05 7.35,6.5 2.2,2.05 4.2,4.25 l 7.35,-7 q -1.8,-1.9 -3.7,-3.8 m 6.55,5.55 -3.6,3.45 q 2.3,2.5 4.4,5.2 16.25,20.35 20.2,45.45 1.25,8.05 1.25,16.55 l 0,46.75 q 0,8.1 -1.1,15.65 -4.05,27.35 -22.5,49.05 l 4.25,2.1 q 20.35,-22.15 24.6,-50 1.25,-7.75 1.25,-15.9 l 0,-47.55 q 0,-9 -1.45,-17.45 -4.25,-26.5 -22.65,-48.1 -2.25,-2.65 -4.65,-5.2 M 319.05,78.5 q 2.85,0.1 5.6,0.3 22.15,1.8 41,11.4 15,7.75 27.85,20.5 1.8,1.75 3.5,3.6 l 20.4,25.45 18.75,47.9 0,51.3 -20.4,51.6 -17.25,19.1 q -1.3,1.5 -5,5.2 -12.7,12.65 -27.5,20.35 -18.8,9.7 -40.85,11.5 -3,0.25 -6.1,0.35 l -133.8,0.05 q -5.55,0 -10.9,-0.45 -25.55,-2.25 -46.55,-15.1 -11.25,-6.85 -21.2,-16.7 -5.55,-5.5 -10.2,-11.45 -0.05,-0.1 -0.15,-0.2 l -9.5,-15 -20.4,-46.9 0,-53.95 18.9,-48.7 11.45,-16.85 q 4.5,-5.75 9.9,-11.1 10.5,-10.45 22.45,-17.45 20.8,-12.3 45.8,-14.35 5.1,-0.45 10.4,-0.45 l 104.8,0 q 14.55,0 29,0.05 m 64.65,50.9 q -2.65,-2.95 -5.6,-5.8 -10.6,-10.2 -22.7,-16.7 -19.95,-10.65 -44.15,-11.45 -0.15,0 -0.3,0 -12.85,-0.05 -25.7,-0.05 l -94.15,0 q -1.3,0 -2.6,0.05 -24.95,0.55 -45.35,11.55 -12.1,6.5 -22.55,16.6 -4.6,4.35 -8.45,9.1 -15.25,18.65 -19.25,41.7 -1.45,8.35 -1.45,17.2 l 0,42.6 q 0,6.45 0.7,12.6 2.8,22.35 15.75,40.65 5.45,7.75 12.7,14.75 10.8,10.45 23.25,17.05 20.2,10.6 44.65,11.15 1.3,0 2.6,0 l 94.15,0 q 12.85,0 25.7,-0.05 0.15,0 0.3,0 24.45,-0.75 44.55,-11.7 14.9,-8.5 28,-21.4 l 5.95,2.9 q 18.6,-21.7 22.55,-49.35 1,-7.3 1,-15 l 0,-44.75 q 0,-8.1 -1.2,-15.8 l 0.05,0.05 q -3.45,-24.2 -18.4,-43.8 -1.45,-1.9 -5.35,-6.45 l -4.7,4.35 m 54.6,-15.3 -5.5,7 28.25,62.2 0,59.85 -23.05,55.95 6,3.85 23.9,-58.6 0,-64.25 -29.6,-66 m 11.75,-2.25 -6.3,5.55 27.2,62.1 0,65.85 -21.2,53.45 6.95,3.7 21.4,-55.3 0,-69.7 -28.05,-65.65 m -110.45,67.55 -24.4,3.45 0.05,61.05 24.55,2.8 q -1,1 -3.5,3 l 6.2,10.05 q -3.25,3.95 -7.45,7.6 -2.75,-3.9 -5.5,-7.8 -5.55,-7.8 -5.7,-7.75 -5.95,2.35 -12.9,3.25 l 0,-3.15 -122.45,0 0,3.5 q -1.6,0.05 -3.3,0.05 -2.2,0 -4.25,-0.15 -4,-0.25 -7.65,-1.15 l -8.7,13.65 q -4.5,-4.25 -7.75,-8.9 l 7,-9.25 q -2.5,-1.95 -3.2,-2.75 l 24.5,-2.9 0,-63.05 -24.75,-1.7 q 2.3,-1.7 2.75,-2.05 0.05,0 0.05,-0.05 l -6.05,-9.1 q 3.3,-4.85 8.1,-9.15 l 8.6,13.15 q 5.25,-1.1 11.35,-1.1 1.7,0 3.3,0.1 l 0,3.4 122.45,0 0,-3.2 q 5.7,0.5 10.6,2.2 l 2.7,1.05 10.75,-15.55 q 5.75,4.8 9.6,10.3 l -9,6.9 q 0.4,0.25 1.9,1.45 1.55,1.25 2.1,1.8 m 103.05,166.6 -1.35,1.35 q -3.8,3.9 -7.8,7.5 l -0.85,0.8 q -20.25,17.85 -43.95,26.75 -7.45,2.8 -14.75,4.6 l 2.7,6.35 q 8.1,-2.05 15.15,-4.75 24.25,-9.15 44.75,-27.5 4,-3.6 7.8,-7.5 1.15,-1.25 1.8,-1.8 l -3.5,-5.8 m -160.8,-195.25 0,15.55 -64.45,0 0,-15.55 64.45,0 M 81.5,44.85 q -12.9,8.6 -24.65,20.35 -7.6,7.7 -13.5,15.5 -0.75,1 -1.45,1.95 -0.05,0.05 -0.1,0.1 -3.45,4.65 -6.4,9.3 l 4.5,3.4 q 3,-4.75 6.5,-9.4 0.4,-0.6 0.85,-1.15 Q 52.95,77.3 60.3,69.8 71.8,58.2 84.45,49.7 L 81.5,44.85 m -42.85,80.5 -17.65,45.3 0,78.9 17.9,47.45 8.65,-2.35 -17.95,-46.9 0,-75.35 17.2,-43.55 -8.15,-3.5 m 22,26.1 -6.65,-2.25 -10.85,25.7 0,70.35 12,29.3 6.45,-1.8 -11.85,-28.05 0,-68.35 10.9,-24.9 m -9.4,-24.8 -18.6,46.15 0,74.1 19.35,49.7 7.65,-2.45 -19.35,-48.1 0,-71.75 18.25,-43.85 -7.3,-3.8 M 26.55,124.25 8.7,169 l 0,81.2 9.2,-1.5 0,-78.55 16.75,-42.75 -8.1,-3.15 m -0.35,172.55 8.45,-2.6 -16.4,-43.05 -9.1,1.5 17.05,44.15 m 193.55,-35 0,10.7 57.7,0 0,-10.7 -57.7,0 m -2.35,13.25 0,-15.55 62.2,0 0,15.55 -62.2,0 m -28.9,-88.3 0,53.4 8,0 0,-53.4 -8,0 m 115.55,62.65 0,-3 3.4,0 0,-3.15 -115.5,0 0,3.5 3.6,0 0,2.65 108.5,0 m -67.5,-66.15 0,-6.3 -48.05,0 0,6.3 11.55,0 0,-4 18.2,0 0,4 18.3,0 m 74.4,0 0,-6.3 -48.3,0 0,6.3 17.85,0 0,-4 18.25,0 0,4 12.2,0 m 0,3.5 -8.05,0 0,53.4 8.05,0 0,-53.4 m -31.45,-22.6 0,-10.7 -59.95,0 0,10.7 59.95,0 M 40.2,329.8 l -3.95,2.85 q 2.8,4.25 6.1,8.6 0.15,0.2 0.35,0.45 l 3.95,-2.85 Q 43.2,334.3 40.2,329.8 m 125.95,68.4 q -17.15,0 -33,-3.45 l -1.8,5.1 q 16.8,3.3 34.95,3.3 l 8.05,0 49.5,0 50.05,0 51.25,-0.05 18.95,0 q 14.75,-0.55 28.2,-3.55 l -1.75,-4.6 q -12.75,2.7 -26.6,3.2 l -18.8,0 -51.25,0.05 -50.05,0 -49.5,0 -8.2,0 M 87.5,381.5 90.3,377.45 Q 74.45,367.9 60.1,353.4 q -3.35,-3.45 -4.9,-5.2 l -4.05,4 q 0.05,0 0.1,0.05 1.65,1.75 4.6,4.7 15.1,14.6 31.65,24.55"
     style="fill:#cccccc;fill-opacity:1;stroke:#000000"
     id="path8"
     inkscape:connector-curvature="0" />
  <path
     d="m 351.6,21.5 -0.65,4.9 q -3.8,-0.35 -7,-0.4 l -19.3,0 -50.75,0 -49.3,-0.05 -49.75,-0.05 -8.7,0 q -33.95,0 -62.9,13.6 L 100.8,34.45 Q 129.15,21.75 162.05,21 l 12.8,0 49.75,0 49.3,0 50.75,0 19.1,0 q 3.5,0.1 7.85,0.5 m -26.95,7.25 q 9.7,0 19.3,0.05 24.95,0.85 46.8,9.15 l -4.1,8.6 q 1.05,0.4 2.1,0.85 22.6,9.35 42.05,26.7 4.75,4.25 9.3,8.95 0.05,0.05 0.1,0.1 l -16.6,29.85 6.95,9.85 27.25,61.4 0,57.75 -22.65,56.2 -11.5,15.2 16.1,27.55 q -0.75,0.7 -1.4,1.35 -3.9,4 -8,7.7 l -1.4,1.35 q -19.7,17.2 -42.75,26.25 l -1.3,0.5 q -7.6,2.9 -15.5,4.95 l 3.2,8.45 q -13.8,3.15 -28.65,3.65 -9.4,0 -18.8,0.05 l -159,0 q -33.6,0 -61.85,-13.3 Q 81.2,371 61.7,351.2 55,344.4 49.4,337.15 45.55,332.2 42.15,327.05 l 0,-16.4 31.9,-16.55 -20.95,-49.5 0,-68.15 19.65,-44.95 -31.85,-18.35 0,-14.3 Q 44.45,93.15 48.65,87.7 54.55,79.9 61.7,72.6 81.25,52.8 104.4,41.95 132.6,28.7 166.15,28.7 l 139.35,0 q 5.2,0 10.35,0 4.4,0 8.8,0.05 m 35.2,-11.45 -217.65,0 0,-11.8 217.65,0 0,11.8 m 34.7,19.1 q 27.45,11 49.9,33.8 l 2,2.1 -3.6,6.45 q -23.2,-23.9 -51.5,-35.7 l 3.2,-6.65 m -75.5,42.1 q -14.45,-0.05 -29,-0.05 l -104.8,0 q -5.3,0 -10.4,0.45 -25,2.05 -45.8,14.35 -11.95,7 -22.45,17.45 -5.4,5.35 -9.9,11.1 l -11.45,16.85 -18.9,48.7 0,53.95 20.4,46.9 9.5,15 q 0.1,0.1 0.15,0.2 4.65,5.95 10.2,11.45 9.95,9.85 21.2,16.7 21,12.85 46.55,15.1 5.35,0.45 10.9,0.45 l 133.8,-0.05 q 3.1,-0.1 6.1,-0.35 22.05,-1.8 40.85,-11.5 14.8,-7.7 27.5,-20.35 3.7,-3.7 5,-5.2 l 17.25,-19.1 20.4,-51.6 0,-51.3 L 417.4,139.75 397,114.3 q -1.7,-1.85 -3.5,-3.6 -12.85,-12.75 -27.85,-20.5 -18.85,-9.6 -41,-11.4 -2.75,-0.2 -5.6,-0.3 m 74.9,40.55 q 2.4,2.55 4.65,5.2 18.4,21.6 22.65,48.1 1.45,8.45 1.45,17.45 l 0,47.55 q 0,8.15 -1.25,15.9 -4.25,27.85 -24.6,50 l -4.25,-2.1 q 18.45,-21.7 22.5,-49.05 1.1,-7.55 1.1,-15.65 l 0,-46.75 q 0,-8.5 -1.25,-16.55 -3.95,-25.1 -20.2,-45.45 -2.1,-2.7 -4.4,-5.2 l 3.6,-3.45 m -6.55,-5.55 q 1.9,1.9 3.7,3.8 l -7.35,7 q -2,-2.2 -4.2,-4.25 -3.6,-3.45 -7.35,-6.5 -2.6,-2.1 -5.25,-3.95 l -7.7,-4.95 q -1.1,-0.7 -2.3,-1.3 -20.6,-11.35 -45.7,-12.2 -13.3,-0.05 -26.6,-0.05 l -96.25,0 q -42.3,0 -72.2,29.2 -29.85,29.15 -29.85,70.45 l 0,44.1 q 0,41.3 29.85,70.35 29.9,29.3 72.2,29.3 l 96.25,0 q 13.3,0 26.6,-0.05 41.55,-1.45 69.1,-28.45 1.85,-1.9 3.1,-3.2 l 9.3,4.9 q -2.15,2.3 -4.4,4.45 -29.1,29 -72.9,30.4 -14,0.05 -28.1,0.05 l -101.6,0 q -44.6,0 -76.15,-31.2 -31.45,-31 -31.45,-75.15 l 0,-47 q 0,-44 31.45,-75.2 31.55,-31.2 76.15,-31.2 l 101.6,0 q 14.1,0 28.1,0.15 33.45,1.05 59.3,20.1 1.55,1.05 5.25,3.9 3.75,3 7.4,6.5 m -3.7,15.9 4.7,-4.35 q 3.9,4.55 5.35,6.45 14.95,19.6 18.4,43.8 l -0.05,-0.05 q 1.2,7.7 1.2,15.8 l 0,44.75 q 0,7.7 -1,15 -3.95,27.65 -22.55,49.35 l -5.95,-2.9 q -13.1,12.9 -28,21.4 -20.1,10.95 -44.55,11.7 -0.15,0 -0.3,0 -12.85,0.05 -25.7,0.05 l -94.15,0 q -1.3,0 -2.6,0 -24.45,-0.55 -44.65,-11.15 -12.45,-6.6 -23.25,-17.05 -7.25,-7 -12.7,-14.75 -12.95,-18.3 -15.75,-40.65 -0.7,-6.15 -0.7,-12.6 l 0,-42.6 q 0,-8.85 1.45,-17.2 4,-23.05 19.25,-41.7 3.85,-4.75 8.45,-9.1 10.45,-10.1 22.55,-16.6 20.4,-11 45.35,-11.55 1.3,-0.05 2.6,-0.05 l 94.15,0 q 12.85,0 25.7,0.05 0.15,0 0.3,0 24.2,0.8 44.15,11.45 12.1,6.5 22.7,16.7 2.95,2.85 5.6,5.8 m 66.35,-17.55 28.05,65.65 0,69.7 -21.4,55.3 -6.95,-3.7 21.2,-53.45 0,-65.85 -27.2,-62.1 6.3,-5.55 m -11.75,2.25 29.6,66 0,64.25 -23.9,58.6 -6,-3.85 23.05,-55.95 0,-59.85 -28.25,-62.2 5.5,-7 m -98.7,65.3 q -0.55,-0.55 -2.1,-1.8 -1.5,-1.2 -1.9,-1.45 l 9,-6.9 q -3.85,-5.5 -9.6,-10.3 l -10.75,15.55 -2.7,-1.05 q -4.9,-1.7 -10.6,-2.2 l 0,3.2 -122.45,0 0,-3.4 q -1.6,-0.1 -3.3,-0.1 -6.1,0 -11.35,1.1 l -8.6,-13.15 q -4.8,4.3 -8.1,9.15 l 6.05,9.1 q 0,0.05 -0.05,0.05 -0.45,0.35 -2.75,2.05 l 24.75,1.7 0,63.05 -24.5,2.9 q 0.7,0.8 3.2,2.75 l -7,9.25 q 3.25,4.65 7.75,8.9 l 8.7,-13.65 q 3.65,0.9 7.65,1.15 2.05,0.15 4.25,0.15 1.7,0 3.3,-0.05 l 0,-3.5 122.45,0 0,3.15 q 6.95,-0.9 12.9,-3.25 0.15,-0.05 5.7,7.75 2.75,3.9 5.5,7.8 4.2,-3.65 7.45,-7.6 l -6.2,-10.05 q 2.5,-2 3.5,-3 l -24.55,-2.8 -0.05,-61.05 24.4,-3.45 m 103.05,166.6 3.5,5.8 q -0.65,0.55 -1.8,1.8 -3.8,3.9 -7.8,7.5 -20.5,18.35 -44.75,27.5 -7.05,2.7 -15.15,4.75 l -2.7,-6.35 q 7.3,-1.8 14.75,-4.6 23.7,-8.9 43.95,-26.75 l 0.85,-0.8 q 4,-3.6 7.8,-7.5 l 1.35,-1.35 m -404,-220.65 8.15,3.5 -17.2,43.55 0,75.35 17.95,46.9 L 38.9,297 21,249.55 l 0,-78.9 17.65,-45.3 M 81.5,44.85 84.45,49.7 Q 71.8,58.2 60.3,69.8 q -7.35,7.5 -13.05,15.1 -0.45,0.55 -0.85,1.15 -3.5,4.65 -6.5,9.4 l -4.5,-3.4 q 2.95,-4.65 6.4,-9.3 0.05,-0.05 0.1,-0.1 0.7,-0.95 1.45,-1.95 5.9,-7.8 13.5,-15.5 Q 68.6,53.45 81.5,44.85 m 200.35,105.9 -64.45,0 0,15.55 64.45,0 0,-15.55 m -221.2,0.7 -10.9,24.9 0,68.35 11.85,28.05 -6.45,1.8 -12,-29.3 0,-70.35 10.85,-25.7 6.65,2.25 M 26.2,296.8 9.15,252.65 l 9.1,-1.5 16.4,43.05 -8.45,2.6 m 0.35,-172.55 8.1,3.15 -16.75,42.75 0,78.55 -9.2,1.5 0,-81.2 17.85,-44.75 m 24.7,2.4 7.3,3.8 -18.25,43.85 0,71.75 19.35,48.1 -7.65,2.45 -19.35,-49.7 0,-74.1 18.6,-46.15 M 40.2,329.8 q 3,4.5 6.45,9.05 l -3.95,2.85 q -0.2,-0.25 -0.35,-0.45 -3.3,-4.35 -6.1,-8.6 l 3.95,-2.85 m 239.3,-165.65 -59.95,0 0,-10.7 59.95,0 0,10.7 m 31.45,22.6 0,53.4 -8.05,0 0,-53.4 8.05,0 m 0,-3.5 -12.2,0 0,-4 -18.25,0 0,4 -17.85,0 0,-6.3 48.3,0 0,6.3 m -74.4,0 -18.3,0 0,-4 -18.2,0 0,4 -11.55,0 0,-6.3 48.05,0 0,6.3 m 67.5,66.15 -108.5,0 0,-2.65 -3.6,0 0,-3.5 115.5,0 0,3.15 -3.4,0 0,3 m -115.55,-62.65 8,0 0,53.4 -8,0 0,-53.4 m 28.9,88.3 62.2,0 0,-15.55 -62.2,0 0,15.55 m 2.35,-13.25 57.7,0 0,10.7 -57.7,0 0,-10.7 m -53.6,136.4 8.2,0 49.5,0 50.05,0 51.25,-0.05 18.8,0 q 13.85,-0.5 26.6,-3.2 l 1.75,4.6 q -13.45,3 -28.2,3.55 l -18.95,0 -51.25,0.05 -50.05,0 -49.5,0 -8.05,0 q -18.15,0 -34.95,-3.3 l 1.8,-5.1 q 15.85,3.45 33,3.45 M 87.5,381.5 Q 70.95,371.55 55.85,356.95 52.9,354 51.25,352.25 51.2,352.2 51.15,352.2 l 4.05,-4 q 1.55,1.75 4.9,5.2 14.35,14.5 30.2,24.05 l -2.8,4.05"
     style="fill:#eeeeee;fill-opacity:1;stroke:#000000"
     id="path10"
     inkscape:connector-curvature="0" />
  <path
     d="m 367,0.5 -231.2,0 0,17.1 Q 112.9,21.35 91.9,32.95 71.5,44.2 53.4,62.55 42.25,73.95 32.15,89.8 l 0,29.9 L 21.7,114.95 0.5,164 l 0,89.7 20.05,51.05 13.6,-3.75 -2.2,34.05 q 8.75,12.8 19.25,23.5 23.1,23.5 51,36.1 28.95,13.1 60.25,13.1 l 185.6,-0.05 q 60.3,-2.1 103.2,-45.95 1.6,-1.65 6.55,-7.2 l -8.45,-13.45 34.6,-90.4 0,-75 L 444.6,87.65 454,70.6 Q 434.65,50.55 413.45,38.5 392.05,26.4 367,21.4 l 0,-20.9"
     style="fill:#000000;fill-opacity:0;stroke:#666666"
     id="path12"
     inkscape:connector-curvature="0" />
  <path
     d="m 325.15,398.15 0,4.95 -51.25,0.05 0,-4.95 51.25,-0.05"
     id="3080"
     style="fill:#ffffff;fill-opacity:1;stroke:#000000"
     inkscape:connector-curvature="0" />
  <path
     d="m 251.35,6.1 36.15,0 0,11.8 -36.15,0 0,-11.8"
     id="704"
     style="fill:#ffffff;fill-opacity:1;stroke:#000000"
     inkscape:connector-curvature="0" />
  <path
     d="m 310.95,255.05 q 6.95,-0.9 12.9,-3.25 0.15,-0.05 5.7,7.75 2.75,3.9 5.5,7.8 -2.75,2.3 -3.6,2.85 l 24.35,48.45 q -20.1,10.95 -44.55,11.7 -0.15,0 -0.3,0 l 0,-75.3"
     id="106"
     style="fill:#ffffff;fill-opacity:1;stroke:#000000"
     inkscape:connector-curvature="0" />
  <path
     d="M 185.15,190.1 92.9,174.4 q 4,-23.05 19.25,-41.7 l 45,35.35 6.05,9.1 q 0,0.05 -0.05,0.05 -0.45,0.35 -2.75,2.05 l 24.75,1.7 0,9.15"
     id="115"
     style="fill:#ffffff;fill-opacity:1;stroke:#000000"
     inkscape:connector-curvature="0" />
  <path
     d="m 174.35,398.2 49.5,0 0,4.95 -49.5,0 0,-4.95"
     id="3100"
     style="fill:#ffffff;fill-opacity:1;stroke:#000000"
     inkscape:connector-curvature="0" />
  <path
     d="m 343.75,21 q 3.5,0.1 7.85,0.5 l -0.65,4.9 q -3.8,-0.35 -7,-0.4 l -19.3,0 0,-5 19.1,0"
     id="3230"
     style="fill:#ffffff;fill-opacity:1;stroke:#000000"
     inkscape:connector-curvature="0" />
  <path
     d="m 383.75,129.45 q 4.25,4.6 5.1,5.7 0.05,0.05 0.1,0.1 l -44.35,34 q -3.85,-5.5 -9.6,-10.3 -1.05,-0.95 -2.3,-1.9 -1.2,-0.9 -2.4,-1.7 l 25.1,-48.45 q 12.1,6.5 22.7,16.7 2.95,2.85 5.65,5.85"
     id="122"
     style="fill:#ffffff;fill-opacity:1;stroke:#000000"
     inkscape:connector-curvature="0" />
  <path
     d="m 442.7,346.05 3.5,5.8 q -0.65,0.55 -1.8,1.8 -3.8,3.9 -7.8,7.5 -5.7,5.1 -11.7,9.5 l -0.05,-0.05 q -7.45,5.45 -15.3,9.8 l 0.05,0.05 q -8.6,4.75 -17.75,8.2 -7.05,2.7 -15.15,4.75 l -2.7,-6.35 q 7.3,-1.8 14.75,-4.6 8.67363,-3.24023 16.9,-7.725 l 0,-0.075 q 4.2,-2.25 8.25,-4.85 l 0.125,0 q 9.66133,-6.18184 18.675,-14.1 l 0.85,-0.8 q 4,-3.6 7.8,-7.5 l 1.35,-1.35"
     id="613"
     style="fill:#ffffff;fill-opacity:1;stroke:#000000"
     inkscape:connector-curvature="0" />
  <path
     d="m 281.3,179.95 16.65,0 0,3.55 -16.65,0 0,-3.55 m -80.35,0 16.65,0 0,3.55 -16.65,0 0,-3.55"
     style="fill:#000000;fill-opacity:1;stroke:none"
     id="path22"
     inkscape:connector-curvature="0" />
  <path
     d="m 323.7,5.7 36.15,0 0,11.8 -36.15,0 -36.2,0 -36.15,0 -36.35,0 -36.45,0 -36.35,0 0,-11.8 36.35,0 36.45,0 36.35,0 36.15,0 36.2,0 0,11.8 m 67.65,25.55 q 28.3,11.8 51.5,35.7 l 3.6,-6.45 -2,-2.1 Q 422,47.4 394.55,36.4 l -3.2,6.65 m -4.7,3.5 q 1.05,0.4 2.1,0.85 22.6,9.35 42.05,26.7 4.75,4.25 9.3,8.95 0.05,0.05 0.1,0.1 l -16.6,29.85 6.95,9.85 9.2,20.7 18.05,40.7 0,10.05 0,38.3 0,9.4 -16.7,41.45 -5.95,14.75 -11.5,15.2 16.1,27.55 q -0.75,0.7 -1.4,1.35 -3.9,4 -8,7.7 l -1.4,1.35 q -19.7,17.2 -42.75,26.25 l -1.3,0.5 q -7.6,2.9 -15.5,4.95 l 3.2,8.45 q -13.65,3.1 -28.65,3.65 l -18.8,0.05 -51.25,0 -50.05,0 -49.5,0 -8.2,0 q -33.6,0 -61.85,-13.3 Q 98,378.95 92,375.3 75.9,365.6 61.7,351.2 55,344.4 49.4,337.15 45.55,332.2 42.15,327.05 l 0,-16.4 31.9,-16.55 -9.25,-21.85 -11.7,-27.65 0,-12.25 0,-38.05 0,-17.85 10.5,-23.95 9.15,-21 -31.85,-18.35 0,-14.3 q 3.55,-5.7 7.75,-11.15 5.9,-7.8 13.05,-15.1 19.55,-19.8 42.7,-30.65 l 0.05,0 Q 132.6,28.7 166.15,28.7 l 8.7,0 49.75,0 49.3,0 50.75,0.05 q 9.7,0 19.3,0.05 24.95,0.85 46.8,9.15 l -4.1,8.6 m -35.7,-20.15 0.65,-4.9 q -4.35,-0.4 -7.85,-0.5 l -19.1,0 0,5 19.3,0 q 3.2,0.05 7,0.4 m 6,76.95 Q 336.35,92 311.25,91.15 297.95,91.1 284.65,91.1 l -96.25,0 q -42.3,0 -72.2,29.2 -29.85,29.15 -29.85,70.45 l 0,44.1 q 0,41.3 29.85,70.35 29.9,29.3 72.2,29.3 l 96.25,0 q 13.3,0 26.6,-0.05 41.55,-1.45 69.1,-28.45 1.85,-1.9 3.1,-3.2 l 9.3,4.9 q -2.15,2.3 -4.4,4.45 -29.1,29 -72.9,30.4 -14,0.05 -28.1,0.05 l -101.6,0 q -44.6,0 -76.15,-31.2 -31.45,-31 -31.45,-75.15 l 0,-47 q 0,-44 31.45,-75.2 31.55,-31.2 76.15,-31.2 l 101.6,0 q 14.1,0 28.1,0.15 33.45,1.05 59.3,20.1 1.55,1.05 5.25,3.9 3.75,3 7.4,6.5 1.9,1.9 3.7,3.8 l -7.35,7 q -2,-2.2 -4.2,-4.25 -3.6,-3.45 -7.35,-6.5 -2.6,-2.1 -5.25,-3.95 l -7.7,-4.95 q -1.1,-0.7 -2.3,-1.3 m -32.3,-74.6 0,50.05 q 22.15,1.8 41,11.4 l 21,-43.65 M 273.9,21 l -49.3,0 0,4.95 49.3,0.05 0,-5 m 11.4,74.4 -14.8,0 0,55.35 11.4,0 0,15.55 -11.4,0 0,8.15 40.5,0 0,-3.2 0,-75.8 Q 298.15,95.4 285.3,95.4 m 25.7,75.85 q 5.7,0.5 10.6,2.2 1.15,0.4 2.3,0.85 0.2,0.1 0.4,0.2 l 10.75,-15.55 q -1.05,-0.95 -2.3,-1.9 -1.2,-0.9 -2.4,-1.7 l 25.1,-48.45 Q 335.5,96.25 311.3,95.45 q -0.15,0 -0.3,0 m -86.4,-66.75 0,49.75 49.3,0 0,-49.75 m 50.75,50.1 q -2.75,-0.2 -5.6,-0.3 L 273.9,78.45 m 41.4,113.1 96.85,-16.3 q -3.55,-24.05 -18.4,-43.6 -2.55,-3.35 -5.35,-6.55 l -4.6,4.35 q 4.25,4.6 5.1,5.7 0.05,0.05 0.1,0.1 l -44.35,34 -9.05,6.95 q 0.75,0.45 1.5,1 1.35,1.1 2.5,2.25 l -24.3,3.35 0,8.75 0,23.1 98.05,0 0,-23.6 q 0,-8.1 -1.2,-15.8 m -132.5,-11.5 -59.95,0 0,-10.7 59.95,0 0,10.7 m 114.3,-44.7 q 2.4,2.55 4.65,5.2 18.4,21.6 22.65,48.1 1.45,8.45 1.45,17.45 l 0,47.55 q 0,8.15 -1.25,15.9 -4.25,27.85 -24.6,50 l -4.25,-2.1 q 18.45,-21.7 22.5,-49.05 1.1,-7.55 1.1,-15.65 l 0,-46.75 q 0,-8.5 -1.25,-16.55 -3.95,-25.1 -20.2,-45.45 -2.1,-2.7 -4.4,-5.2 l 3.6,-3.45 m -169.35,-40.6 -39.35,0 q -5.3,0 -10.4,0.45 -25,2.05 -45.8,14.35 -11.95,7 -22.45,17.45 -5.4,5.35 -9.9,11.1 l -0.7,1.05 -10.75,15.8 -7.3,18.85 -11.6,29.85 0,6.95 0,38.05 0,8.95 11.8,27 8.6,19.9 9.5,15 q 0.1,0.1 0.15,0.2 4.65,5.95 10.2,11.45 9.95,9.85 21.2,16.7 21,12.85 46.55,15.1 5.35,0.45 10.9,0.45 l 38.6,0 50.05,0 45.15,-0.05 q 3.1,-0.1 6.1,-0.35 22.05,-1.8 40.85,-11.5 14.8,-7.7 27.5,-20.35 l 3,-3 19.25,-21.3 6,-15.2 14.4,-36.4 0,-6.35 0,-38.3 0,-6.65 -14.55,-37.1 -4.2,-10.8 L 397,114.3 q -1.7,-1.85 -3.5,-3.6 -12.85,-12.75 -27.85,-20.5 m 18.15,39.25 q -2.7,-3 -5.65,-5.85 -10.6,-10.2 -22.7,-16.7 m -20.4,52.05 q 5.75,4.8 9.6,10.3 M 324.65,26 273.9,26 m 50.75,-5 -50.75,0 m 147.7,129.55 18.15,-7 m -1.45,-29.45 29.6,66 0,64.25 -23.9,58.6 -6,-3.85 23.05,-55.95 0,-59.85 -28.25,-62.2 5.5,-7 m -2.15,80.2 21.65,0 m 20.3,-16.8 0,69.7 -21.4,55.3 -6.95,-3.7 21.2,-53.45 0,-65.85 -27.2,-62.1 6.3,-5.55 28.05,65.65 M 430.8,74.1 397,114.3 M 251.35,5.7 l 0,11.8 m 36.15,0 0,-11.8 m 27.8,208.95 0,19.7 97.05,16.45 q 1,-7.3 1,-15 l 0,-21.15 m 8.4,60.7 19.35,8.1 m -4.95,-50.85 21.65,0 m -15.05,113.4 3.5,5.8 q -0.95,0.85 -1.8,1.8 -3.85,3.9 -7.8,7.5 -20.5,18.35 -44.75,27.5 -7.45,2.8 -15.15,4.75 l -2.7,-6.35 q 7.55,-1.9 14.75,-4.6 23.8,-8.95 43.95,-26.75 0.4,-0.4 0.85,-0.8 4,-3.55 7.8,-7.5 0.65,-0.7 1.35,-1.35 M 270.5,174.45 l -40.45,0 -41.5,0 0,-3.4 q -1.6,-0.1 -3.3,-0.1 -6.1,0 -11.35,1.1 l -8.6,-13.15 q -4.8,4.3 -8.1,9.15 l 6.05,9.1 q 0,0.05 -0.05,0.05 -0.45,0.35 -2.75,2.05 l 24.75,1.7 0,9.15 0,23 0,23 0,7.9 -24.5,2.9 q 0.7,0.8 3.2,2.75 l -7,9.25 q 3.25,4.65 7.75,8.9 l 8.7,-13.65 q 3.65,0.9 7.65,1.15 2.05,0.15 4.25,0.15 1.7,0 3.3,-0.05 l 0,-3.5 39.45,0 38.25,0 44.75,0 0,3.15 q 6.95,-0.9 12.9,-3.25 0.15,-0.05 5.7,7.75 2.75,3.9 5.5,7.8 4.2,-3.65 7.45,-7.6 l -6.2,-10.05 q 2.5,-2 3.5,-3 l -24.55,-2.8 0,-9.55 m -4.3,20.7 0,75.3 q 0.15,0 0.3,0 24.45,-0.75 44.55,-11.7 L 331.5,270.2 q 0.85,-0.55 3.6,-2.85 m 7.45,-7.6 47.5,31.05 q -1.85,2 -3.75,3.95 -1.2,1.25 -2.45,2.5 l 5.95,2.9 q 18.6,-21.7 22.55,-49.35 m -146.1,1.1 0,7.6 13.4,0 0,15.55 -13.4,0 0,55.35 19.05,0 q 12.85,0 25.7,-0.05 m -33.6,-57.85 -57.7,0 0,-10.7 57.7,0 0,10.7 m -3.5,74.6 0,48.1 m 70.05,2.95 q 13.85,-0.5 26.6,-3.2 l 1.75,4.6 q -13.45,3 -28.2,3.55 l -18.95,0 -51.25,0.05 -50.05,0 -49.5,0 -8.05,0 q -18.15,0 -34.95,-3.3 l 1.8,-5.1 q 15.85,3.45 33,3.45 l 8.2,0 49.5,0 50.05,0 51.25,-0.05 18.8,0 m -18.8,-51.45 0,48.5 m 40.85,-60 20.2,42.4 m -30.35,-58.95 q 14.9,-8.5 28,-21.4 m -109.95,105.9 0,-4.95 m 51.25,4.9 0,-4.95 m 71.35,-86.3 32.45,39.5 M 39.9,95.45 q 3,-4.75 6.5,-9.4 l -4.5,-3.4 q -0.05,0.05 -0.1,0.1 -3.45,4.65 -6.4,9.3 l 4.5,3.4 m 6.5,-9.4 Q 46.8,85.45 47.25,84.9 52.95,77.3 60.3,69.8 71.8,58.2 84.45,49.7 L 81.5,44.85 q -12.9,8.6 -24.65,20.35 -7.6,7.7 -13.5,15.5 -0.75,1 -1.45,1.95 m 9.35,44 -18.6,46.15 0,74.1 19.35,49.7 7.65,-2.45 -19.35,-48.1 0,-71.75 18.25,-43.85 -7.3,-3.8 m 9.4,24.8 -10.9,24.9 0,68.35 11.85,28.05 -6.45,1.8 -12,-29.3 0,-70.35 10.85,-25.7 6.65,2.25 M 26.55,124.25 8.7,169 l 0,81.3 9.2,-1.55 0,-78.6 16.75,-42.75 -8.1,-3.15 m 26.55,70.05 13.25,0 m -2.75,-41.8 14.35,5 M 21,170.65 l 0,78.9 17.9,47.45 8.65,-2.35 -17.95,-46.9 0,-75.35 17.2,-43.55 -8.15,-3.5 L 21,170.65 M 174.85,25.9 l 0,-4.9 -12.8,0 q -32.9,0.75 -61.25,13.45 l 2.45,5.05 q 28.95,-13.6 62.9,-13.6 l 8.7,0 m 55.2,148.55 0,-8.15 -12.6,0 0,-15.55 12.6,0 0,-55.35 -38.9,0 q -1.3,0 -2.6,0.05 l 0,75.6 M 224.6,25.95 174.85,25.9 m 0,-4.9 49.75,0 m -49.75,7.7 0,50.2 m -45.8,14.35 -24.6,-51.3 M 165.3,158.9 q 1.9,-1.75 3.9,-3.35 0.1,-0.05 0.2,-0.05 L 143.2,107 q -12.1,6.5 -22.55,16.6 -4.6,4.35 -8.45,9.1 l 45,35.35 m 28,22.05 -92.25,-15.7 q -1.45,8.35 -1.45,17.2 l 0,21.5 93.7,0 m -73,-80.4 q -15.25,18.65 -19.25,41.7 m 95.6,-78.95 Q 163.6,96 143.2,107 m 35.35,-101.3 0,11.8 m 36.45,0 0,-11.8 M 96,122.85 48.65,87.7 m 108.25,171.2 -48.95,28.55 q 5.45,7.75 12.7,14.75 10.8,10.45 23.25,17.05 l 23.05,-49.35 q -1.2,-1.05 -2.3,-2.1 m 23.9,-12.4 0,75 q 1.3,0 2.6,0 l 36.85,0 0,-55.35 -10.55,0 0,-15.55 10.55,0 0,-7.6 m -136.5,-38.8 0,21.1 q 0,6.45 0.7,12.6 l 93,-10.7 m -93,10.7 q 2.8,22.35 15.75,40.65 M 87.5,381.5 Q 70.95,371.55 55.85,356.95 52.9,354 51.25,352.25 51.2,352.2 51.15,352.2 l 4.05,-4 q 1.55,1.75 4.9,5.2 14.35,14.5 30.2,24.05 l -2.8,4.05 m 40.3,-49.95 -23.5,50.35 m 119.55,-34.8 0,48.1 m -49.5,-48.55 0,48.55 M 143.9,319.25 q 20.2,10.6 44.65,11.15 M 53.1,232.35 l 13.25,0 m -57.2,20.35 17.05,44.1 8.45,-2.6 -16.4,-43.05 -9.1,1.55 m 55.65,19.55 13.35,-3.95 m -35.8,72.95 q -3.3,-4.35 -6.1,-8.6 l 3.95,-2.85 q 3,4.5 6.45,9.05 l -3.95,2.85 q -0.2,-0.25 -0.35,-0.45 M 96.25,303.2 49.4,337.15 m 174.45,66 0,-4.95 m -49.5,4.95 0,-4.95 m 55.7,-247.45 40.45,0 m 0,-55.35 -40.45,0 m 40.45,70.9 -40.45,0 m 36.2,108.75 -38.25,0 m 38.25,55.35 -38.25,0 m 0,-70.9 38.25,0"
     style="fill:#000000;fill-opacity:0;stroke:#000000"
     id="path24"
     inkscape:connector-curvature="0" />
  <path
     d="m 262.7,183.25 0,-6.3 48.3,0 0,6.3 -12.2,0 0,-4 -18.25,0 0,4 -17.85,0 m 48.3,3.5 0,53.4 -8.05,0 0,-53.4 8.05,0 m -6.9,62.65 -108.5,0 0,-2.65 -3.6,0 0,-3.5 115.5,0 0,3.15 -3.4,0 0,3 m -107.55,-62.65 0,53.4 -8,0 0,-53.4 8,0 m -8,-3.5 0,-6.3 48.05,0 0,6.3 -18.3,0 0,-4 -18.2,0 0,4 -11.55,0"
     style="fill:#000000;fill-opacity:0;stroke:#000000"
     id="path26"
     inkscape:connector-curvature="0" />
  <path
     d="m 202.8,219.25 17.8,0 q 0.45,0 0.95,0 l 0.15,0 0,2 -18.9,0 18.9,0 0,-2 q 2.4,0 4.25,-1.75 1.8,-1.7 1.8,-4.25 0,-2.55 -1.8,-4.35 -1.85,-1.8 -4.25,-1.8 l -0.35,0 -18.55,0 0,-2.05 0,-11.35 0,-5.05 27.2,0 19.65,0 20.05,0 27.2,0 0,5.05 0,11.35 0,2.05 -18.6,0 -0.2,0 q -2.5,0 -4.3,1.8 -1.85,1.8 -1.85,4.35 0,2.55 1.85,4.25 1.8,1.75 4.3,1.75 -2.5,0 -4.3,-1.75 -1.85,-1.7 -1.85,-4.25 0,-2.55 1.85,-4.35 1.8,-1.8 4.3,-1.8 l 0,12.15 0,2 18.8,0 -18.8,0 0,-2 q 0.55,0 1,0 l 17.8,0 0,2 0,11.4 0,5 -27.2,0 -20.05,0 -19.65,0 -27.2,0 0,-5 0,-11.4 0,-2 m 18.9,-12.15 0,-2.05 -1.25,0 1.25,0 0,2.05 m 48,-18.45 0,3.05 0,-3.05 m 27.2,5.05 -6.95,0 q -4.5,0.45 -9.05,3.1 -9.05,5.3 -9.05,16.15 0,11 8.6,16.35 5.15,3.35 9.7,3.35 l 6.75,0 -6.75,0 q -4.55,0 -9.7,-3.35 -8.6,-5.35 -8.6,-16.35 0,-10.85 9.05,-16.15 4.55,-2.65 9.05,-3.1 l 6.95,0 m -7.9,11.35 -2.85,0 2.85,0 1.2,0 0,-0.65 -1.2,0 0,0.65 m -2.85,-0.65 -0.35,0 0,0.65 0.35,0 0,-0.65 m -0.35,17.6 0.35,0.05 0,-0.65 -0.35,-0.05 0,0.65 m 4.4,0.05 0,-0.65 -1.2,0 0,0.65 1.2,0 m 6.7,-17 -6.7,0 6.7,0 m -14.1,-0.65 -0.3,0 0,0.65 0.3,0 0,-0.65 m -3.2,0 -0.3,0 0,0.65 0.3,0 0,-0.65 m 2.9,0.65 -2.9,0 2.9,0 m -3.2,0 -1.2,0 0,2.05 0,-2.05 1.2,0 m 0.3,16.35 -0.3,-0.05 0,0.65 0.3,0.05 0,-0.65 m 2.9,0.6 0.3,0.05 0,-0.65 -0.3,-0.05 0,0.65 m -32.85,-15.95 0,-17.4 0,17.4 q -2.9,0 -5,2.05 -2,2.1 -2,5.05 0,3.05 2,5.05 2.1,2 5,2.05 l 0,17.4 0,-17.4 q 3.05,0 5.15,-2.05 2.15,-2 2.15,-5.05 0,-2.95 -2.15,-5.05 -2.1,-2.05 -5.15,-2.05 m 20.05,31.6 0,-2.95 0,2.95 m 16.1,-32.6 -3,0 3,0 m -55.8,-16.4 0,3.05 0,-3.05 m -27.2,44 6.85,0 q 4.35,0 9.6,-3.35 8.65,-5.35 8.65,-16.35 0,-10.85 -9.15,-16.15 -4.55,-2.65 -9,-3.1 l -6.95,0 6.95,0 q 4.45,0.45 9,3.1 9.15,5.3 9.15,16.15 0,11 -8.65,16.35 -5.25,3.35 -9.6,3.35 l -6.85,0 m 10.8,-27.6 -2.9,0 2.9,0 0.4,0 2.9,0 -2.9,0 0,-0.65 -0.4,0 0,0.65 m 3.6,0 0,-0.65 -0.3,0 0,0.65 0.3,0 m 3.25,0 0,-0.65 -0.35,0 0,0.65 -2.9,0 2.9,0 0.35,0 m -10.95,16.35 0,0.65 1.2,0 0,-0.65 -1.2,0 m 1.2,-16.35 0,-0.65 -1.2,0 0,0.65 -6.7,0 6.7,0 1.2,0 m 6.2,16.35 0,0.65 0.3,-0.05 0,-0.65 -0.3,0.05 m -2.9,-0.05 -0.4,0.05 0,0.65 0.4,-0.05 0,-0.65 m 6.1,0.7 0.35,-0.05 0,-0.65 -0.35,0.05 0,0.65 m 9.9,12.65 0,2.95 0,-2.95"
     style="fill:#e9cb82;fill-opacity:1;stroke:#000000"
     id="path28"
     inkscape:connector-curvature="0" />
  <path
     d="m 296.9,219.25 -17.8,0 q 1.85,-0.3 3.35,-1.75 1.75,-1.7 1.75,-4.25 0,-2.55 -1.75,-4.35 -1.75,-1.65 -4.15,-1.8 l 18.6,0 0,12.15 0,-12.15 0,-2.05 0,-11.35 0,-5.05 -27.2,0 -20.05,0 -19.65,0 -27.2,0 0,5.05 0,11.35 0,2.05 0,12.15 0,2 0,11.4 0,5 27.2,0 19.65,0 20.05,0 27.2,0 0,-5 0,-11.4 0,-2 m -76.3,0 -17.8,0 0,-12.15 18.55,0 q -2.35,0.15 -4.1,1.8 -1.75,1.8 -1.75,4.35 0,2.55 1.75,4.25 1.45,1.45 3.35,1.75 m 29.05,1 q -2.9,-0.05 -5,-2.05 -2,-2 -2,-5.05 0,-2.95 2,-5.05 2.1,-2.05 5,-2.05 3.05,0 5.15,2.05 2.15,2.1 2.15,5.05 0,3.05 -2.15,5.05 -2.1,2.05 -5.15,2.05 m -2.15,-7.1 q 0,0.95 0.65,1.55 0.65,0.65 1.5,0.65 l 0.05,0 q 1.05,0 1.75,-0.65 0.75,-0.6 0.75,-1.55 0,-1.05 -0.75,-1.7 -0.7,-0.65 -1.75,-0.65 l -0.05,0 q -0.85,0 -1.5,0.65 -0.65,0.65 -0.65,1.7 m 52.5,-27.7 0,55.4 -100.35,0 0,-55.4 100.35,0"
     style="fill:#cc0033;fill-opacity:1;stroke:#000000"
     id="path30"
     inkscape:connector-curvature="0" />
  <path
     d="m 221.7,219.25 0,-12.15 q 2.4,0 4.25,1.8 1.8,1.8 1.8,4.35 0,2.55 -1.8,4.25 -1.85,1.75 -4.25,1.75"
     style="fill:#eacc83;fill-opacity:1;stroke:#000000"
     id="path32"
     inkscape:connector-curvature="0" />
  <path
     d="m 290.2,205.05 -1.2,0 0,-0.65 1.2,0 0,0.65 m -4.05,-0.65 0,0.65 -0.35,0 0,-0.65 0.35,0 m 4.05,17.65 -1.2,0 0,-0.65 1.2,0 0,0.65 m -4.4,-0.05 0,-0.65 0.35,0.05 0,0.65 -0.35,-0.05 m -6.2,-17.6 0,0.65 -0.3,0 0,-0.65 0.3,0 m 3.2,0 0,0.65 -0.3,0 0,-0.65 0.3,0 m -0.3,17.6 0,-0.65 0.3,0.05 0,0.65 -0.3,-0.05 m -2.9,-0.6 0,0.65 -0.3,-0.05 0,-0.65 0.3,0.05 m -59.15,-16.35 -0.35,0 0,-0.65 0.35,0 0,0.65 m -3.55,0 0,-0.65 0.3,0 0,0.65 -0.3,0 m -3.3,0 0,-0.65 0.4,0 0,0.65 -0.4,0 m -2.9,0 -1.2,0 0,-0.65 1.2,0 0,0.65 m -1.2,16.35 1.2,0 0,0.65 -1.2,0 0,-0.65 m 10.6,0.65 0,-0.65 0.35,-0.05 0,0.65 -0.35,0.05 m -6.1,-0.7 0,0.65 -0.4,0.05 0,-0.65 0.4,-0.05 m 2.9,0.05 0.3,-0.05 0,0.65 -0.3,0.05 0,-0.65"
     style="fill:#000000;fill-opacity:1;stroke:#000000"
     id="path34"
     inkscape:connector-curvature="0" />
  <path
     d="m 279.1,219.25 q -0.45,0 -1,0 l 0,-12.15 0.2,0 q 2.4,0.15 4.15,1.8 1.75,1.8 1.75,4.35 0,2.55 -1.75,4.25 -1.5,1.45 -3.35,1.75 m -31.6,-6.1 q 0,-1.05 0.65,-1.7 0.65,-0.65 1.5,-0.65 l 0.05,0 q 1.05,0 1.75,0.65 0.75,0.65 0.75,1.7 0,0.95 -0.75,1.55 -0.7,0.65 -1.75,0.65 l -0.05,0 q -0.85,0 -1.5,-0.65 -0.65,-0.6 -0.65,-1.55 m -25.8,-6.05 0,12.15 -0.15,0 q -0.5,0 -0.95,0 -1.9,-0.3 -3.35,-1.75 -1.75,-1.7 -1.75,-4.25 0,-2.55 1.75,-4.35 1.75,-1.65 4.1,-1.8 l 0.35,0"
     style="fill:#cccccc;fill-opacity:1;stroke:#000000"
     id="path36"
     inkscape:connector-curvature="0" />
  <path
     d="m 202.8,207.1 0,-2.05 0,-11.35 0,-5.05 27.2,0 19.65,0 20.05,0 27.2,0 0,5.05 0,11.35 0,2.05 0,12.15 0,2 0,11.4 0,5 -27.2,0 -20.05,0 -19.65,0 -27.2,0 0,-5 0,-11.4 0,-2 0,-12.15 m 66.9,-18.45 0,3.05 m 27.2,2 -6.95,0 q -4.5,0.45 -9.05,3.1 -9.05,5.3 -9.05,16.15 0,11 8.6,16.35 5.15,3.35 9.7,3.35 l 6.75,0 m -7.9,-27.6 1.2,0 m -1.2,0 -2.85,0 m 10.75,0 -6.7,0 m -7.7,0 -2.9,0 m -1.5,2.05 0.2,0 18.6,0 m -18.8,0 q -2.5,0 -4.3,1.8 -1.85,1.8 -1.85,4.35 0,2.55 1.85,4.25 1.8,1.75 4.3,1.75 l 0,-12.15 m 1.2,-2.05 -1.2,0 0,2.05 m 1,12.15 q 1.85,-0.3 3.35,-1.75 1.75,-1.7 1.75,-4.25 0,-2.55 -1.75,-4.35 -1.75,-1.65 -4.15,-1.8 m -0.2,12.15 0,2 18.8,0 m -17.8,-2 q -0.45,0 -1,0 m -28.45,-13.2 q 3.05,0 5.15,2.05 2.15,2.1 2.15,5.05 0,3.05 -2.15,5.05 -2.1,2.05 -5.15,2.05 l 0,17.4 m 0,-17.4 q -2.9,-0.05 -5,-2.05 -2,-2 -2,-5.05 0,-2.95 2,-5.05 2.1,-2.05 5,-2.05 l 0,-17.4 m 20.05,49 0,-2.95 m 27.2,-15.45 -17.8,0 m 6.7,-14.2 -3,0 m 17.2,-19.6 -100.35,0 0,55.4 100.35,0 0,-55.4 m -70,3.2 0,3.05 m -27.2,40.95 6.85,0 q 4.35,0 9.6,-3.35 8.65,-5.35 8.65,-16.35 0,-10.85 -9.15,-16.15 -4.55,-2.65 -9,-3.1 l -6.95,0 m 18.9,13.4 q 2.4,0 4.25,1.8 1.8,1.8 1.8,4.35 0,2.55 -1.8,4.25 -1.85,1.75 -4.25,1.75 l 0,2 -18.9,0 m 18.9,-14.15 0,-2.05 -1.25,0 m -0.35,0 -2.9,0 -0.3,0 -2.9,0 -0.4,0 -2.9,0 -1.2,0 -6.7,0 m 17.8,14.2 q -1.9,-0.3 -3.35,-1.75 -1.75,-1.7 -1.75,-4.25 0,-2.55 1.75,-4.35 1.75,-1.65 4.1,-1.8 l -18.55,0 m 18.9,12.15 -0.15,0 q -0.5,0 -0.95,0 l -17.8,0 m 18.9,-12.15 0,12.15 m 8.3,15.45 0,2.95"
     style="fill:#000000;fill-opacity:0;stroke:none"
     id="path38"
     inkscape:connector-curvature="0" />
  <path
     d="m 247.5,213.15 q 0,-1.05 0.65,-1.7 0.65,-0.65 1.5,-0.65 l 0.05,0 q 1.05,0 1.75,0.65 0.75,0.65 0.75,1.7 0,0.95 -0.75,1.55 -0.7,0.65 -1.75,0.65 l -0.05,0 q -0.85,0 -1.5,-0.65 -0.65,-0.6 -0.65,-1.55"
     style="fill:#000000;fill-opacity:0;stroke:#000000"
     id="path40"
     inkscape:connector-curvature="0" />
  <path
     d="m 266.2,251.9 44.75,0 0,78.45 q -12.85,0.05 -25.7,0.05 l -19.05,0 0,-55.35 13.4,0 0,-15.55 -13.4,0 0,-7.6"
     id="107"
     style="fill:#ffffff;fill-opacity:1;stroke:#000000"
     inkscape:connector-curvature="0" />
  <path
     d="m 393.5,314.85 q 1.05,-1.05 2.15,-2.15 0.15,-0.15 0.3,-0.3 0.1,-0.15 0.25,-0.25 0.15,-0.15 0.3,-0.3 l 32.45,39.5 q -19.7,17.2 -42.75,26.25 L 366,335.2 q 14.8,-7.7 27.5,-20.35"
     id="306"
     style="fill:#ffffff;fill-opacity:1;stroke:#000000"
     inkscape:connector-curvature="0" />
  <path
     d="m 174.85,28.7 0,50.2 q -25,2.05 -45.8,14.35 L 104.4,41.95 Q 132.6,28.7 166.15,28.7 l 8.7,0"
     id="319"
     style="fill:#ffffff;fill-opacity:1;stroke:#000000"
     inkscape:connector-curvature="0" />
  <path
     d="m 40.2,329.8 q 3,4.5 6.45,9.05 l -3.95,2.85 q -0.2,-0.25 -0.35,-0.45 -3.3,-4.35 -6.1,-8.6 l 3.95,-2.85"
     id="3130"
     style="fill:#ffffff;fill-opacity:1;stroke:#000000"
     inkscape:connector-curvature="0" />
  <path
     d="m 311.25,95.45 q 24.2,0.8 44.15,11.45 l -25.1,48.45 q 1.2,0.8 2.4,1.7 1.25,0.95 2.3,1.9 l -10.75,15.55 q -0.2,-0.1 -0.4,-0.2 -1.15,-0.45 -2.3,-0.85 -4.9,-1.7 -10.6,-2.2 l 0,-75.8 q 0.15,0 0.3,0"
     id="121"
     style="fill:#ffffff;fill-opacity:1;stroke:#000000"
     inkscape:connector-curvature="0" />
  <path
     d="m 86.75,288.2 9.5,15 -46.85,33.95 q -3.85,-4.95 -7.25,-10.1 l 0,-16.4 31.9,-16.55 -9.25,-21.85 13.35,-3.95 8.6,19.9"
     id="313"
     style="fill:#ffffff;fill-opacity:1;stroke:#000000"
     inkscape:connector-curvature="0" />
  <path
     d="m 273.9,21 50.75,0 0,5 -50.75,0 0,-5"
     id="3220"
     style="fill:#ffffff;fill-opacity:1;stroke:#000000"
     inkscape:connector-curvature="0" />
  <path
     d="m 412.1,175.25 q 1.2,7.7 1.2,15.8 l 0,23.6 -98.05,0 0,-23.1 96.85,-16.3"
     id="102"
     style="fill:#ffffff;fill-opacity:1;stroke:#000000"
     inkscape:connector-curvature="0" />
  <path
     d="m 343.95,398.15 q 13.85,-0.5 26.6,-3.2 l 1.75,4.6 q -13.45,3 -28.2,3.55 l -18.95,0 0,-4.95 18.8,0"
     id="3070"
     style="fill:#ffffff;fill-opacity:1;stroke:#000000"
     inkscape:connector-curvature="0" />
  <path
     d="m 51.15,352.2 4.05,-4 q 1.55,1.75 4.9,5.2 14.35,14.5 30.2,24.05 l -2.8,4.05 Q 70.95,371.55 55.85,356.95 52.9,354 51.25,352.25 51.2,352.2 51.15,352.2"
     id="3120"
     style="fill:#ffffff;fill-opacity:1;stroke:#000000"
     inkscape:connector-curvature="0" />
  <path
     d="m 224.6,21 0,4.95 -49.75,-0.05 0,-4.9 49.75,0"
     id="3200"
     style="fill:#ffffff;fill-opacity:1;stroke:#000000"
     inkscape:connector-curvature="0" />
  <path
     d="m 335.05,267.35 q 4.2,-3.65 7.45,-7.6 L 390,290.8 q -1.85,2 -3.75,3.95 -1.2,1.25 -2.45,2.5 -13.1,12.9 -28,21.4 L 331.45,270.2 q 0.85,-0.55 3.6,-2.85"
     id="105"
     style="fill:#ffffff;fill-opacity:1;stroke:#000000"
     inkscape:connector-curvature="0" />
  <path
     d="m 273.9,395.2 -50.05,0 0,-48.1 50.05,0 0,48.1"
     id="309"
     style="fill:#ffffff;fill-opacity:1;stroke:#000000"
     inkscape:connector-curvature="0" />
  <path
     d="m 66.35,241.3 11.8,27 -13.35,3.95 -11.7,-27.65 0,-12.25 13.25,0 0,8.95"
     id="314"
     style="fill:#ffffff;fill-opacity:1;stroke:#000000"
     inkscape:connector-curvature="0" />
  <path
     d="m 217.4,275.05 10.55,0 0,55.35 -36.85,0 q -1.3,0 -2.6,0 l 0,-78.5 39.45,0 0,7.6 -10.55,0 0,15.55"
     id="109"
     style="fill:#ffffff;fill-opacity:1;stroke:#000000"
     inkscape:connector-curvature="0" />
  <path
     d="m 185.25,347.1 38.6,0 0,48.1 -49.5,0 0,-48.55 q 5.35,0.45 10.9,0.45"
     id="310"
     style="fill:#ffffff;fill-opacity:1;stroke:#000000"
     inkscape:connector-curvature="0" />
  <path
     d="m 270.45,95.4 0,55.35 -40.45,0 0,-55.35 40.45,0 m 0,79.05 -40.45,0 0,-8.15 40.45,0 0,8.15"
     id="119"
     style="fill:#ffffff;fill-opacity:1;stroke:#000000"
     inkscape:connector-curvature="0" />
  <path
     d="m 279.7,163.75 -59.95,0 0,-10.7 59.95,0 0,10.7"
     id="1000"
     style="fill:#ffffff;fill-opacity:1;stroke:#000000"
     inkscape:connector-curvature="0" />
  <path
     d="m 325.15,346.7 0,48.5 q -9.75,0 -19.65,0 l -31.6,0 0,-48.1 16.15,0 q 14.55,0 29,-0.05 3.1,-0.1 6.1,-0.35"
     id="308"
     style="fill:#ffffff;fill-opacity:1;stroke:#000000"
     inkscape:connector-curvature="0" />
  <path
     d="M 95.95,122.8 48.65,87.7 Q 54.55,79.9 61.7,72.6 81.25,52.8 104.4,41.95 l 24.65,51.3 q -11.95,7 -22.45,17.45 -5.4,5.35 -9.9,11.1 -0.4,0.45 -0.75,1"
     id="318"
     style="fill:#ffffff;fill-opacity:1;stroke:#000000"
     inkscape:connector-curvature="0" />
  <path
     d="m 315.25,243.9 0,-9.55 97.05,16.45 q -3.95,27.65 -22.55,49.35 l -5.95,-2.9 q 1.25,-1.25 2.45,-2.5 1.9,-1.95 3.75,-3.95 l -47.5,-31.05 -6.2,-10.05 q 2.5,-2 3.5,-3 l -24.55,-2.8"
     id="104"
     style="fill:#ffffff;fill-opacity:1;stroke:#000000"
     inkscape:connector-curvature="0" />
  <path
     d="M 127.8,331.55 104.3,381.9 Q 81.2,371 61.7,351.2 55,344.4 49.4,337.15 L 96.25,303.2 q 0.1,0.1 0.15,0.2 4.65,5.95 10.2,11.45 9.95,9.85 21.2,16.7"
     id="312"
     style="fill:#ffffff;fill-opacity:1;stroke:#000000"
     inkscape:connector-curvature="0" />
  <path
     d="m 324.65,28.75 0,50.05 q -2.75,-0.2 -5.6,-0.3 -14.45,-0.05 -29,-0.05 l -16.15,0 0,-49.75 31.6,0 q 5.2,0 10.35,0 4.4,0 8.8,0.05"
     id="322"
     style="fill:#ffffff;fill-opacity:1;stroke:#000000"
     inkscape:connector-curvature="0" />
  <path
     d="m 270.45,95.4 14.8,0 q 12.85,0 25.7,0.05 l 0,79 -40.5,0 0,-8.15 11.4,0 0,-15.55 -11.4,0 0,-55.35"
     id="120"
     style="fill:#ffffff;fill-opacity:1;stroke:#000000"
     inkscape:connector-curvature="0" />
  <path
     d="m 66.35,194.3 -13.25,0 0,-17.85 10.5,-23.95 14.35,5 -11.6,29.85 0,6.95"
     id="316"
     style="fill:#ffffff;fill-opacity:1;stroke:#000000"
     inkscape:connector-curvature="0" />
  <path
     d="m 66.35,232.35 -13.25,0 0,-38.05 13.25,0 0,38.05"
     id="315"
     style="fill:#ffffff;fill-opacity:1;stroke:#000000"
     inkscape:connector-curvature="0" />
  <path
     d="m 422.65,186.25 q 0.05,1.75 0.05,3.55 l 0,47.55 q 0,8.15 -1.25,15.9 -4.25,27.85 -24.6,50 l -4.25,-2.1 q 18.45,-21.7 22.5,-49.05 1.1,-7.55 1.1,-15.65 l 0,-46.75 q 0,-1.75 -0.05,-3.45 -0.2,-6.7 -1.2,-13.1 -3.95,-25.1 -20.2,-45.45 -2.1,-2.7 -4.4,-5.2 l 3.6,-3.45 q 2.4,2.55 4.65,5.2 18.4,21.6 22.65,48.1 1.15,6.75 1.4,13.9"
     id="3000"
     style="fill:#ffffff;fill-opacity:1;stroke:#000000"
     inkscape:connector-curvature="0" />
  <path
     d="m 287.5,6.1 36.2,0 0,11.8 -36.2,0 0,-11.8"
     id="705"
     style="fill:#ffffff;fill-opacity:1;stroke:#000000"
     inkscape:connector-curvature="0" />
  <path
     d="m 323.9,6.1 35.95,0 0,11.8 -35.95,0 -0.2,0 0,-11.8 0.2,0"
     id="706"
     style="fill:#ffffff;fill-opacity:1;stroke:#000000"
     inkscape:connector-curvature="0" />
  <path
     d="m 188.5,95.45 q 1.3,-0.05 2.6,-0.05 l 38.9,0 0,55.35 -12.6,0 0,15.55 12.6,0 0,8.15 -41.5,0 0,-79"
     id="118"
     style="fill:#ffffff;fill-opacity:1;stroke:#000000"
     inkscape:connector-curvature="0" />
  <path
     d="m 166.15,398.2 8.2,0 0,4.95 -8.05,0 q -18.15,0 -34.95,-3.3 l 1.8,-5.1 q 15.85,3.45 33,3.45"
     id="3110"
     style="fill:#ffffff;fill-opacity:1;stroke:#000000"
     inkscape:connector-curvature="0" />
  <path
     d="m 273.9,28.7 0,49.75 -49.3,0 0,-49.75 49.3,0"
     id="321"
     style="fill:#ffffff;fill-opacity:1;stroke:#000000"
     inkscape:connector-curvature="0" />
  <path
     d="m 162.05,21 12.8,0 0,4.9 -8.7,0 q -13.2,0 -25.6,2.05 -2.1,0.35 -4.2,0.75 -17.3,3.4 -33.1,10.8 l -2.45,-5.05 q 16.95,-7.6 35.55,-10.9 2.1,-0.4 4.2,-0.7 10.5,-1.6 21.5,-1.85"
     id="3190"
     style="fill:#ffffff;fill-opacity:1;stroke:#000000"
     inkscape:connector-curvature="0" />
  <path
     d="m 413.4,235.8 q 0,7.7 -1,15 l -97.05,-16.45 0,-19.7 98.05,0 0,21.15"
     id="103"
     style="fill:#ffffff;fill-opacity:1;stroke:#000000"
     inkscape:connector-curvature="0" />
  <path
     d="m 60.75,151.55 -10.9,24.9 0,68.1 11.85,28.05 -6.45,1.8 -12,-29.3 0,-70.1 10.85,-25.7 6.65,2.25 m -51.6,101.1 9.1,-1.5 16.4,43.05 -8.45,2.6 -17.05,-44.15"
     id="2000"
     style="fill:#ffffff;fill-opacity:1;stroke:#000000"
     inkscape:connector-curvature="0" />
  <path
     d="m 91.55,213.1 93.7,0 0,23 -93,10.7 q -0.7,-6.15 -0.7,-12.6 l 0,-21.1"
     id="113"
     style="fill:#ffffff;fill-opacity:1;stroke:#000000"
     inkscape:connector-curvature="0" />
  <path
     d="m 441.1,283.45 -5.95,14.75 -11.5,15.2 16.1,27.55 q -0.75,0.7 -1.4,1.35 -3.9,4 -8,7.7 -0.5,0.45 -0.9,0.85 -0.1,0.05 -0.15,0.15 -0.05,0.05 -0.15,0.15 -0.1,0.1 -0.2,0.2 l -32.45,-39.5 q 1,-1.1 2,-2.2 l 17.25,-19.1 6,-15.2 19.35,8.1"
     id="305"
     style="fill:#ffffff;fill-opacity:1;stroke:#000000"
     inkscape:connector-curvature="0" />
  <path
     d="m 386.65,46.55 q 1.05,0.4 2.1,0.85 22.6,9.35 42.05,26.7 L 397,114.3 q -1.7,-1.85 -3.5,-3.6 -12.85,-12.75 -27.85,-20.5 l 21,-43.65"
     id="324"
     style="fill:#ffffff;fill-opacity:1;stroke:#000000"
     inkscape:connector-curvature="0" />
  <path
     d="m 391.35,43.05 3.2,-6.65 q 27.45,11 49.9,33.8 l 2,2.1 -3.6,6.45 q -23.2,-23.9 -51.5,-35.7"
     id="601"
     style="fill:#ffffff;fill-opacity:1;stroke:#000000"
     inkscape:connector-curvature="0" />
  <path
     d="m 120.6,123.6 q 10.45,-10.1 22.55,-16.6 l 26.2,48.5 q -0.1,0 -0.2,0.05 -2,1.6 -3.9,3.35 -4.8,4.3 -8.1,9.15 l -45,-35.35 q 3.85,-4.75 8.45,-9.1"
     id="116"
     style="fill:#ffffff;fill-opacity:1;stroke:#000000"
     inkscape:connector-curvature="0" />
  <path
     d="m 81.5,44.85 2.95,4.85 Q 71.8,58.2 60.3,69.8 52.95,77.3 47.25,84.9 46.8,85.45 46.4,86.05 l -4.5,-3.4 Q 42.6,81.7 43.35,80.7 49.25,72.9 56.85,65.2 68.6,53.45 81.5,44.85"
     id="3180"
     style="fill:#ffffff;fill-opacity:1;stroke:#000000"
     inkscape:connector-curvature="0" />
  <path
     d="m 41.9,82.65 4.5,3.4 q -3.5,4.65 -6.5,9.4 l -4.5,-3.4 q 2.95,-4.65 6.4,-9.3 0.05,-0.05 0.1,-0.1"
     id="3170"
     style="fill:#ffffff;fill-opacity:1;stroke:#000000"
     inkscape:connector-curvature="0" />
  <path
     d="m 223.85,398.2 50.05,0 0,4.95 -50.05,0 0,-4.95"
     id="3090"
     style="fill:#ffffff;fill-opacity:1;stroke:#000000"
     inkscape:connector-curvature="0" />
  <path
     d="m 91.55,191.6 q 0,-8.85 1.45,-17.2 l 92.25,15.7 0,23 -93.7,0 0,-21.5"
     id="114"
     style="fill:#ffffff;fill-opacity:1;stroke:#000000"
     inkscape:connector-curvature="0" />
  <path
     d="m 178.55,6.1 36.45,0 0,11.8 -36.45,0 0,-11.8"
     id="702"
     style="fill:#ffffff;fill-opacity:1;stroke:#000000"
     inkscape:connector-curvature="0" />
  <path
     d="m 32.65,172.7 18.6,-46.15 7.3,3.8 -18.25,43.85 0,71.75 19.35,48.1 -7.65,2.45 -19.35,-49.7 0,-74.1 m -6.1,-48.55 8.1,3.15 -16.75,42.75 0,78.55 -9.2,1.5 0,-81.2 17.85,-44.75 m 12.1,1.1 8.15,3.5 -17.2,43.55 0,75.35 17.95,46.9 -8.65,2.35 -17.9,-47.45 0,-78.9 17.65,-45.3 m 47.6,65.4 0,44.1 q 0,41.35 29.85,70.35 29.9,29.3 72.2,29.3 l 122.85,-0.05 q 41.55,-1.4 69.1,-28.45 l 3.1,-3.2 9.3,4.9 q -1.9,2.05 -4.4,4.45 -29.15,29 -72.9,30.4 l -129.7,0.05 Q 141,342.5 109.5,311.3 78.05,280.15 78.05,236.15 l 0,-47 q 0,-44.1 31.45,-75.2 31.75,-31.2 76.15,-31.2 l 101.6,0 q 20.65,0 28.1,0.15 33.6,1.05 59.3,20.1 1.55,1.05 5.25,3.9 3.85,3.1 7.4,6.5 l 3.7,3.8 -7.35,7 q -2.65,-2.85 -4.2,-4.25 -3.4,-3.3 -7.35,-6.5 -2.35,-1.95 -5.25,-3.95 l -10,-6.25 Q 336.2,91.85 311.15,91.05 L 188.3,91 q -42.25,0 -72.2,29.2 -29.85,29.1 -29.85,70.45 M 438.2,114 l 29.6,66 0,64.25 -23.9,58.6 -6,-3.85 23.05,-55.95 0,-59.85 -28.25,-62.2 5.5,-7 m 5.45,3.3 6.3,-5.55 28.05,65.65 0,69.7 -21.4,55.3 -6.95,-3.7 21.2,-53.45 0,-65.85 -27.2,-62.1"
     id="997"
     style="fill:#ffffff;fill-opacity:1;stroke:#000000"
     inkscape:connector-curvature="0" />
  <path
     d="m 164.6,267.8 q 1.1,1.05 2.3,2.1 l -23.05,49.35 q -12.45,-6.6 -23.25,-17.05 -7.25,-7 -12.7,-14.75 l 48.95,-28.55 q 3.25,4.65 7.75,8.9"
     id="111"
     style="fill:#ffffff;fill-opacity:1;stroke:#000000"
     inkscape:connector-curvature="0" />
  <path
     d="m 457.8,232.6 -21.65,0 0,-38.3 21.65,0 0,38.3"
     id="303"
     style="fill:#ffffff;fill-opacity:1;stroke:#000000"
     inkscape:connector-curvature="0" />
  <path
     d="m 278.75,86.35 7.05,0 q 13.75,0 27.35,0.15 32.6,1.05 57.75,19.55 0.85,0.55 2.25,1.65 M 270.3,68.25 l 0,-30.4 m 36.3,124.45 0,-55.8 m 62.05,23.75 -3.1,3 m -15.2,14.75 -6.2,6 m 108.8,-24.8 21.75,49.45 0,27.75 m -31.45,-72 21.05,46.75 0,25.25 m 10.4,15.8 0,23.85 -15.95,39.75 m 5.55,-63.6 0,21.55 -17.45,42.65 m -4.55,-60.15 7.65,0 m -105.3,46.5 6.5,6.75 m 15.1,15.75 1.9,2 m 30.85,-76.3 -49.85,0 m 25,97.15 q -25.55,19.65 -61,20.8 -13.6,0.05 -27.35,0.05 l -6.85,0 m 58.95,-118 -14.25,0 m -274.8,-78.15 -12.5,30.85 0,6.95 m 0.85,-39.2 -11.85,29.65 0,9.55 m -0.65,-40.4 -11.55,29.9 0,10.5 m 68.95,6 q 1.1,-40.7 30.55,-69.9 30.75,-30.35 74.2,-30.35 l 39.5,0 M 134.9,128 l 4.85,5.75 m 13.2,15.75 2.95,3.5 m 9.75,66.15 10.5,0 M 137,291 l -3.85,3.75 m 20.5,-22.75 -3.05,3 m -45.85,-55.85 49.9,0 m 74.3,138.5 0,26.05 m -2.4,-44.75 -39.7,0 q -43.45,0 -74.2,-30.35 -29.4,-29 -30.55,-69.8 m 111.15,24.15 0,57.65 m -180.1,-87.8 0,14.8 m 12.2,-14.8 0,16.25 12.9,32.55 m -1.9,-48.8 0,13.25 13.85,35.35"
     style="fill:#000000;fill-opacity:0;stroke:#000000"
     id="path87"
     inkscape:connector-curvature="0" />
  <path
     d="m 366,335.2 20.2,42.4 q -0.35,0.15 -0.65,0.25 -0.35,0.15 -0.65,0.25 -7.6,2.9 -15.5,4.95 l 3.2,8.45 q -13.8,3.15 -28.65,3.65 -9.4,0 -18.8,0.05 l 0,-48.5 Q 347.2,344.9 366,335.2"
     id="307"
     style="fill:#ffffff;fill-opacity:1;stroke:#000000"
     inkscape:connector-curvature="0" />
  <path
     d="m 219.75,261.8 57.7,0 0,10.7 -57.7,0 0,-10.7"
     id="1001"
     style="fill:#ffffff;fill-opacity:1;stroke:#000000"
     inkscape:connector-curvature="0" />
  <path
     d="m 163.85,249.65 -7,9.25 -48.95,28.55 Q 94.95,269.15 92.15,246.8 l 93,-10.7 0,7.9 -24.5,2.9 q 0.7,0.8 3.2,2.75"
     id="112"
     style="fill:#ffffff;fill-opacity:1;stroke:#000000"
     inkscape:connector-curvature="0" />
  <path
     d="m 266.2,251.9 0,7.6 -38.25,0 0,-7.6 38.25,0 m 0,78.5 -38.25,0 0,-55.35 38.25,0 0,55.35"
     id="108"
     style="fill:#ffffff;fill-opacity:1;stroke:#000000"
     inkscape:connector-curvature="0" />
  <path
     d="m 215,6.1 36.35,0 0,11.8 -36.35,0 0,-11.8"
     id="703"
     style="fill:#ffffff;fill-opacity:1;stroke:#000000"
     inkscape:connector-curvature="0" />
  <path
     d="m 40.9,98.85 q 3.55,-5.7 7.75,-11.15 l 47.3,35.1 q 0.35,-0.55 0.75,-1 l -11.45,16.85 -7.3,18.85 -14.35,-5 9.15,-21 -31.85,-18.35 0,-14.3"
     id="317"
     style="fill:#ffffff;fill-opacity:1;stroke:#000000"
     inkscape:connector-curvature="0" />
  <path
     d="m 430.8,74.1 q 4.75,4.25 9.3,8.95 0.05,0.05 0.1,0.1 l -16.6,29.85 6.95,9.85 9.2,20.7 -18.15,7 -4.2,-10.8 L 397,114.3 430.8,74.1"
     id="301"
     style="fill:#ffffff;fill-opacity:1;stroke:#000000"
     inkscape:connector-curvature="0" />
  <path
     d="m 388.9,135.1 q -0.85,-1.1 -5.1,-5.7 l 4.6,-4.35 q 2.8,3.2 5.35,6.55 14.85,19.55 18.4,43.6 l -96.85,16.3 0,-8.75 24.3,-3.35 q -1.15,-1.15 -2.5,-2.25 -0.75,-0.55 -1.5,-1 l 2.25,-1.7 0.15,-0.05 3.85,-2.95 -0.1,0 L 389,135.2 q -0.05,-0.05 -0.1,-0.1"
     id="101"
     style="fill:#ffffff;fill-opacity:1;stroke:#000000"
     inkscape:connector-curvature="0" />
  <path
     d="m 273.9,21 0,5 -49.3,-0.05 0,-4.95 49.3,0"
     id="3210"
     style="fill:#ffffff;fill-opacity:1;stroke:#000000"
     inkscape:connector-curvature="0" />
  <path
     d="m 324.65,28.75 q 9.7,0 19.3,0.05 24.95,0.85 46.8,9.15 l -25.1,52.25 q -18.85,-9.6 -41,-11.4 l 0,-50.05"
     id="323"
     style="fill:#ffffff;fill-opacity:1;stroke:#000000"
     inkscape:connector-curvature="0" />
  <path
     d="m 166.15,395.2 q -33.6,0 -61.85,-13.3 l 23.5,-50.35 q 21,12.85 46.55,15.1 l 0,48.55 -8.2,0"
     id="311"
     style="fill:#ffffff;fill-opacity:1;stroke:#000000"
     inkscape:connector-curvature="0" />
  <path
     d="m 224.6,28.7 0,49.75 -39.35,0 q -5.3,0 -10.4,0.45 l 0,-50.2 49.75,0"
     id="320"
     style="fill:#ffffff;fill-opacity:1;stroke:#000000"
     inkscape:connector-curvature="0" />
  <path
     d="m 180.95,255.3 q 2.05,0.15 4.25,0.15 1.7,0 3.3,-0.05 l 0,75 q -24.45,-0.55 -44.65,-11.15 L 166.9,269.9 q -1.2,-1.05 -2.3,-2.1 l 8.7,-13.65 q 3.65,0.9 7.65,1.15"
     id="110"
     style="fill:#ffffff;fill-opacity:1;stroke:#000000"
     inkscape:connector-curvature="0" />
  <path
     d="m 457.8,194.3 -21.65,0 0,-6.65 -14.55,-37.1 18.15,-7 18.05,40.7 0,10.05"
     id="302"
     style="fill:#ffffff;fill-opacity:1;stroke:#000000"
     inkscape:connector-curvature="0" />
  <path
     d="m 178.55,6.1 0,11.8 -36.35,0 0,-11.8 36.35,0"
     id="701"
     style="fill:#ffffff;fill-opacity:1;stroke:#000000"
     inkscape:connector-curvature="0" />
  <path
     d="m 311,186.75 0,53.4 -8.05,0 0,-53.4 8.05,0 m -12.2,-3.5 0,-4 -18.25,0 0,4 -17.85,0 0,-6.3 48.3,0 0,6.3 -12.2,0 m 5.3,66.15 -108.5,0 0,-2.65 -3.6,0 0,-3.5 115.5,0 0,3.15 -3.4,0 0,3 m -85.8,-66.15 0,-4 -18.2,0 0,4 -11.55,0 0,-6.3 48.05,0 0,6.3 -18.3,0 m -21.75,3.5 0,53.4 -8,0 0,-53.4 8,0"
     id="910"
     style="fill:#ffffff;fill-opacity:1;stroke:#000000"
     inkscape:connector-curvature="0" />
  <path
     d="m 188.5,171.05 q -1.6,-0.1 -3.3,-0.1 -6.1,0 -11.35,1.1 l -8.6,-13.15 q 1.9,-1.75 3.9,-3.35 0.1,-0.05 0.2,-0.05 L 143.15,107 q 20.4,-11 45.35,-11.55 l 0,75.6"
     id="117"
     style="fill:#ffffff;fill-opacity:1;stroke:#000000"
     inkscape:connector-curvature="0" />
  <path
     d="m 457.8,242 -16.7,41.45 -19.35,-8.1 14.4,-36.4 0,-6.35 21.65,0 0,9.4"
     id="304"
     style="fill:#ffffff;fill-opacity:1;stroke:#000000"
     inkscape:connector-curvature="0" />
  <text
     x="157.7912"
     y="12.27037"
     font="10px &quot;Arial&quot;"
     style="font-size:10.20600033px;font-weight:bold;text-anchor:start;fill:#000000;stroke:none;font-family:Arial"
     font-weight="bold"
     font-size="10px"
     id="text110">
    <tspan
       dy="3.3328969"
       id="tspan112">1</tspan>
  </text>
  <text
     x="194.5412"
     y="12.27037"
     font="10px &quot;Arial&quot;"
     style="font-size:10.20600033px;font-weight:bold;text-anchor:start;fill:#000000;stroke:none;font-family:Arial"
     font-weight="bold"
     font-size="10px"
     id="text114">
    <tspan
       dy="3.3328969"
       id="tspan116">2</tspan>
  </text>
  <text
     x="231.0912"
     y="12.27037"
     font="10px &quot;Arial&quot;"
     style="font-size:10.20600033px;font-weight:bold;text-anchor:start;fill:#000000;stroke:none;font-family:Arial"
     font-weight="bold"
     font-size="10px"
     id="text118">
    <tspan
       dy="3.3328969"
       id="tspan120">3</tspan>
  </text>
  <text
     x="267.2912"
     y="12.27037"
     font="10px &quot;Arial&quot;"
     style="font-size:10.20600033px;font-weight:bold;text-anchor:start;fill:#000000;stroke:none;font-family:Arial"
     font-weight="bold"
     font-size="10px"
     id="text122">
    <tspan
       dy="3.3328969"
       id="tspan124">4</tspan>
  </text>
  <text
     x="303.0412"
     y="12.27037"
     font="10px &quot;Arial&quot;"
     style="font-size:10.20600033px;font-weight:bold;text-anchor:start;fill:#000000;stroke:none;font-family:Arial"
     font-weight="bold"
     font-size="10px"
     id="text126">
    <tspan
       dy="3.3328969"
       id="tspan128">5</tspan>
  </text>
  <text
     x="338.94119"
     y="12.27037"
     font="10px &quot;Arial&quot;"
     style="font-size:10.20600033px;font-weight:bold;text-anchor:start;fill:#000000;stroke:none;font-family:Arial"
     font-weight="bold"
     font-size="10px"
     id="text130">
    <tspan
       dy="3.3328969"
       id="tspan132">6</tspan>
  </text>
  <text
     x="226.6745"
     y="73.553001"
     font="10px &quot;Arial&quot;"
     style="font-size:6.12360001px;text-anchor:start;fill:#000000;stroke:none;font-family:Arial"
     font-weight="Bold"
     font-size="6px"
     id="text134">
    <tspan
       dy="2.2166157"
       id="tspan136">1</tspan>
  </text>
  <text
     x="266.7912"
     y="352.703"
     font="10px &quot;Arial&quot;"
     style="font-size:6.12360001px;text-anchor:start;fill:#000000;stroke:none;font-family:Arial"
     font-weight="Bold"
     font-size="6px"
     id="text138">
    <tspan
       dy="2.2166157"
       id="tspan140">1</tspan>
  </text>
  <text
     x="60.367382"
     y="188.94586"
     font="10px &quot;Arial&quot;"
     style="font-size:6.12360001px;text-anchor:start;fill:#000000;stroke:none;font-family:Arial"
     font-weight="Bold"
     font-size="6px"
     id="text142">
    <tspan
       dy="2.2166157"
       id="tspan144">1</tspan>
  </text>
  <text
     x="437.06732"
     y="200.103"
     font="10px &quot;Arial&quot;"
     style="font-size:6.12360001px;text-anchor:start;fill:#000000;stroke:none;font-family:Arial"
     font-weight="Bold"
     font-size="6px"
     id="text146">
    <tspan
       dy="2.2166157"
       id="tspan148">1</tspan>
  </text>
  <text
     x="267.22446"
     y="73.023598"
     font="10px &quot;Arial&quot;"
     style="font-size:8.16479969px;text-anchor:start;fill:#000000;stroke:none;font-family:Arial"
     font-weight="Bold"
     font-size="8px"
     id="text150">
    <tspan
       dy="2.7667828"
       id="tspan152">1</tspan>
  </text>
  <text
     x="263.47446"
     y="33.723602"
     font="10px &quot;Arial&quot;"
     style="font-size:8.16479969px;text-anchor:start;fill:#000000;stroke:none;font-family:Arial"
     font-weight="Bold"
     font-size="8px"
     id="text154">
    <tspan
       dy="2.7667828"
       id="tspan156">18</tspan>
  </text>
  <text
     x="226.4245"
     y="352.54263"
     font="10px &quot;Arial&quot;"
     style="font-size:8.16479969px;text-anchor:start;fill:#000000;stroke:none;font-family:Arial"
     font-weight="Bold"
     font-size="8px"
     id="text158">
    <tspan
       dy="2.7667828"
       id="tspan160">1</tspan>
  </text>
  <text
     x="225.7912"
     y="389.52359"
     font="10px &quot;Arial&quot;"
     style="font-size:8.16479969px;text-anchor:start;fill:#000000;stroke:none;font-family:Arial"
     font-weight="Bold"
     font-size="8px"
     id="text162">
    <tspan
       dy="2.7667828"
       id="tspan164">18</tspan>
  </text>
  <text
     x="54.517368"
     y="199.01331"
     font="10px &quot;Arial&quot;"
     style="font-size:7.14419985px;text-anchor:start;fill:#000000;stroke:none;font-family:Arial"
     font-weight="Bold"
     font-size="7px"
     id="text166">
    <tspan
       dy="2.7827296"
       id="tspan168">4-1</tspan>
  </text>
  <text
     x="436.44119"
     y="226.4736"
     font="10px &quot;Arial&quot;"
     style="font-size:8.16479969px;text-anchor:start;fill:#000000;stroke:none;font-family:Arial"
     font-weight="Bold"
     font-size="8px"
     id="text170">
    <tspan
       dy="2.7667828"
       id="tspan172">1</tspan>
  </text>
  <text
     x="341.73172"
     y="-187.87018"
     font="10px &quot;Arial&quot;"
     style="font-size:8.16510296px;font-weight:bold;text-anchor:start;fill:#000000;stroke:none;font-family:Arial"
     transform="matrix(0.70710678,0.70710678,-0.70710678,0.70710678,0,0)"
     font-weight="bold"
     font-size="8px"
     id="text174">
    <tspan
       dy="2.7668855"
       id="tspan176">265</tspan>
  </text>
  <text
     x="228.06738"
     y="86.69426"
     font="10px &quot;Arial&quot;"
     style="font-size:7.14419985px;font-weight:bold;text-anchor:start;fill:#000000;stroke:none;font-family:Arial"
     font-weight="bold"
     font-size="7px"
     id="text178">
    <tspan
       dy="2.7827296"
       id="tspan180">253 SUITE 254</tspan>
  </text>
  <text
     x="-237.07373"
     y="81.987831"
     font="10px &quot;Arial&quot;"
     style="font-size:7.14419985px;font-weight:bold;text-anchor:start;fill:#000000;stroke:none;font-family:Arial"
     transform="matrix(0,-1,1,0,0,0)"
     font-weight="bold"
     font-size="7px"
     id="text182">
    <tspan
       dy="2.7827296"
       id="tspan184">232 SUITE 233</tspan>
  </text>
  <text
     x="227.74834"
     y="338.24426"
     font="10px &quot;Arial&quot;"
     style="font-size:7.14419985px;font-weight:bold;text-anchor:start;fill:#000000;stroke:none;font-family:Arial"
     font-weight="bold"
     font-size="7px"
     id="text186">
    <tspan
       dy="2.7827296"
       id="tspan188">213 SUITE 212</tspan>
  </text>
  <text
     x="42.7131"
     y="490.14554"
     font="10px &quot;Arial&quot;"
     style="font-size:8.16510296px;font-weight:bold;text-anchor:start;fill:#000000;stroke:none;font-family:Arial"
     transform="matrix(0.70710678,-0.70710678,0.70710678,0.70710678,0,0)"
     font-weight="bold"
     font-size="8px"
     id="text190">
    <tspan
       dy="2.7668855"
       id="tspan192">200</tspan>
  </text>
  <text
     x="188.29518"
     y="-419.33417"
     font="10px &quot;Arial&quot;"
     style="font-size:5.10300016px;font-weight:bold;text-anchor:start;fill:#000000;stroke:none;font-family:Arial"
     transform="matrix(0,1,-1,0,0,0)"
     font-weight="bold"
     font-size="5px"
     id="text194">
    <tspan
       dy="1.658475"
       id="tspan196">AIR CANADA CLUB</tspan>
  </text>
  <text
     x="280.5412"
     y="52.0075"
     font="10px &quot;Arial&quot;"
     style="font-size:21.43260002px;font-weight:bold;text-anchor:start;fill:#000000;stroke:none;font-family:Arial"
     font-weight="bold"
     font-size="21px"
     id="text198">
    <tspan
       dy="7.215961"
       id="tspan200">322</tspan>
  </text>
  <text
     x="228.94119"
     y="52.0075"
     font="10px &quot;Arial&quot;"
     style="font-size:21.43260002px;font-weight:bold;text-anchor:start;fill:#000000;stroke:none;font-family:Arial"
     font-weight="bold"
     font-size="21px"
     id="text202">
    <tspan
       dy="7.215961"
       id="tspan204">321</tspan>
  </text>
  <text
     x="181.44119"
     y="52.0075"
     font="10px &quot;Arial&quot;"
     style="font-size:21.43260002px;font-weight:bold;text-anchor:start;fill:#000000;stroke:none;font-family:Arial"
     font-weight="bold"
     font-size="21px"
     id="text206">
    <tspan
       dy="7.215961"
       id="tspan208">320</tspan>
  </text>
  <text
     x="332.99121"
     y="54.807499"
     font="10px &quot;Arial&quot;"
     style="font-size:21.43260002px;font-weight:bold;text-anchor:start;fill:#000000;stroke:none;font-family:Arial"
     font-weight="bold"
     font-size="21px"
     id="text210">
    <tspan
       dy="7.215961"
       id="tspan212">323</tspan>
  </text>
  <text
     x="375.84119"
     y="78.357498"
     font="10px &quot;Arial&quot;"
     style="font-size:21.43260002px;font-weight:bold;text-anchor:start;fill:#000000;stroke:none;font-family:Arial"
     font-weight="bold"
     font-size="21px"
     id="text214">
    <tspan
       dy="7.215961"
       id="tspan216">324</tspan>
  </text>
  <text
     x="408.84119"
     y="123.2942"
     font="10px &quot;Arial&quot;"
     style="font-size:10.20600033px;font-weight:bold;text-anchor:start;fill:#000000;stroke:none;font-family:Arial"
     font-weight="bold"
     font-size="10px"
     id="text218">
    <tspan
       dy="3.3328969"
       id="tspan220">301</tspan>
  </text>
  <text
     x="430.83643"
     y="167.9942"
     font="10px &quot;Arial&quot;"
     style="font-size:10.20600033px;font-weight:bold;text-anchor:start;fill:#000000;stroke:none;font-family:Arial"
     font-weight="bold"
     font-size="10px"
     id="text222">
    <tspan
       dy="3.3328969"
       id="tspan224">302</tspan>
  </text>
  <text
     x="438.98642"
     y="212.69421"
     font="10px &quot;Arial&quot;"
     style="font-size:10.20600033px;font-weight:bold;text-anchor:start;fill:#000000;stroke:none;font-family:Arial"
     font-weight="bold"
     font-size="10px"
     id="text226">
    <tspan
       dy="3.3328969"
       id="tspan228">303</tspan>
  </text>
  <text
     x="431.58643"
     y="257.29419"
     font="10px &quot;Arial&quot;"
     style="font-size:10.20600033px;font-weight:bold;text-anchor:start;fill:#000000;stroke:none;font-family:Arial"
     font-weight="bold"
     font-size="10px"
     id="text230">
    <tspan
       dy="3.3328969"
       id="tspan232">304</tspan>
  </text>
  <text
     x="410.1864"
     y="301.7442"
     font="10px &quot;Arial&quot;"
     style="font-size:10.20600033px;font-weight:bold;text-anchor:start;fill:#000000;stroke:none;font-family:Arial"
     font-weight="bold"
     font-size="10px"
     id="text234">
    <tspan
       dy="3.3328969"
       id="tspan236">305</tspan>
  </text>
  <text
     x="280.44119"
     y="370.00751"
     font="10px &quot;Arial&quot;"
     style="font-size:21.43260002px;font-weight:bold;text-anchor:start;fill:#000000;stroke:none;font-family:Arial"
     font-weight="bold"
     font-size="21px"
     id="text238">
    <tspan
       dy="7.215961"
       id="tspan240">308</tspan>
  </text>
  <text
     x="232.0912"
     y="370.00751"
     font="10px &quot;Arial&quot;"
     style="font-size:21.43260002px;font-weight:bold;text-anchor:start;fill:#000000;stroke:none;font-family:Arial"
     font-weight="bold"
     font-size="21px"
     id="text242">
    <tspan
       dy="7.215961"
       id="tspan244">309</tspan>
  </text>
  <text
     x="179.8912"
     y="370.00751"
     font="10px &quot;Arial&quot;"
     style="font-size:21.43260002px;font-weight:bold;text-anchor:start;fill:#000000;stroke:none;font-family:Arial"
     font-weight="bold"
     font-size="21px"
     id="text246">
    <tspan
       dy="7.215961"
       id="tspan248">310</tspan>
  </text>
  <text
     x="332.24121"
     y="364.6575"
     font="10px &quot;Arial&quot;"
     style="font-size:21.43260002px;font-weight:bold;text-anchor:start;fill:#000000;stroke:none;font-family:Arial"
     font-weight="bold"
     font-size="21px"
     id="text250">
    <tspan
       dy="7.215961"
       id="tspan252">307</tspan>
  </text>
  <text
     x="376.09119"
     y="343.50751"
     font="10px &quot;Arial&quot;"
     style="font-size:21.43260002px;font-weight:bold;text-anchor:start;fill:#000000;stroke:none;font-family:Arial"
     font-weight="bold"
     font-size="21px"
     id="text254">
    <tspan
       dy="7.215961"
       id="tspan256">306</tspan>
  </text>
  <text
     x="124.0412"
     y="364.1575"
     font="10px &quot;Arial&quot;"
     style="font-size:21.43260002px;font-weight:bold;text-anchor:start;fill:#000000;stroke:none;font-family:Arial"
     font-weight="bold"
     font-size="21px"
     id="text258">
    <tspan
       dy="7.215961"
       id="tspan260">311</tspan>
  </text>
  <text
     x="72.4412"
     y="340.1575"
     font="10px &quot;Arial&quot;"
     style="font-size:21.43260002px;font-weight:bold;text-anchor:start;fill:#000000;stroke:none;font-family:Arial"
     font-weight="bold"
     font-size="21px"
     id="text262">
    <tspan
       dy="7.215961"
       id="tspan264">312</tspan>
  </text>
  <text
     x="59.641201"
     y="306.5148"
     font="10px &quot;Arial&quot;"
     style="font-size:12.24720001px;font-weight:bold;text-anchor:start;fill:#000000;stroke:none;font-family:Arial"
     font-weight="bold"
     font-size="12px"
     id="text266">
    <tspan
       dy="4.4332314"
       id="tspan268">313</tspan>
  </text>
  <text
     x="53.991199"
     y="114.3148"
     font="10px &quot;Arial&quot;"
     style="font-size:12.24720001px;font-weight:bold;text-anchor:start;fill:#000000;stroke:none;font-family:Arial"
     font-weight="bold"
     font-size="12px"
     id="text270">
    <tspan
       dy="4.4332314"
       id="tspan272">317</tspan>
  </text>
  <text
     x="54.367371"
     y="213.30301"
     font="10px &quot;Arial&quot;"
     style="font-size:6.12360001px;font-weight:bold;text-anchor:start;fill:#000000;stroke:none;font-family:Arial"
     font-weight="bold"
     font-size="6px"
     id="text274">
    <tspan
       dy="2.2166157"
       id="tspan276">315</tspan>
  </text>
  <text
     x="59.017384"
     y="252.05301"
     font="10px &quot;Arial&quot;"
     style="font-size:6.12360001px;font-weight:bold;text-anchor:start;fill:#000000;stroke:none;font-family:Arial"
     font-weight="bold"
     font-size="6px"
     id="text278">
    <tspan
       dy="2.2166157"
       id="tspan280">314</tspan>
  </text>
  <text
     x="58.717381"
     y="170.80299"
     font="10px &quot;Arial&quot;"
     style="font-size:6.12360001px;font-weight:bold;text-anchor:start;fill:#000000;stroke:none;font-family:Arial"
     font-weight="bold"
     font-size="6px"
     id="text282">
    <tspan
       dy="2.2166157"
       id="tspan284">316</tspan>
  </text>
  <text
     x="126.8412"
     y="56.157501"
     font="10px &quot;Arial&quot;"
     style="font-size:21.43260002px;font-weight:bold;text-anchor:start;fill:#000000;stroke:none;font-family:Arial"
     font-weight="bold"
     font-size="21px"
     id="text286">
    <tspan
       dy="7.215961"
       id="tspan288">319</tspan>
  </text>
  <text
     x="72.241203"
     y="83.7575"
     font="10px &quot;Arial&quot;"
     style="font-size:21.43260002px;font-weight:bold;text-anchor:start;fill:#000000;stroke:none;font-family:Arial"
     font-weight="bold"
     font-size="21px"
     id="text290">
    <tspan
       dy="7.215961"
       id="tspan292">318</tspan>
  </text>
  <text
     x="302.69574"
     y="-339.32764"
     font="10px &quot;Arial&quot;"
     style="font-size:6.12325716px;font-weight:bold;text-anchor:start;fill:#000000;stroke:none;font-family:Arial"
     transform="matrix(0.4386881,0.89863939,-0.89863939,0.4386881,0,0)"
     font-weight="bold"
     font-size="6px"
     id="text294">
    <tspan
       dy="2.2164915"
       id="tspan296">501</tspan>
  </text>
  <text
     x="303.9278"
     y="-350.85562"
     font="10px &quot;Arial&quot;"
     style="font-size:6.12325716px;font-weight:bold;text-anchor:start;fill:#000000;stroke:none;font-family:Arial"
     transform="matrix(0.4386881,0.89863939,-0.89863939,0.4386881,0,0)"
     font-weight="bold"
     font-size="6px"
     id="text298">
    <tspan
       dy="2.2164915"
       id="tspan300">601</tspan>
  </text>
  <text
     x="-89.896889"
     y="535.57227"
     font="10px &quot;Arial&quot;"
     style="font-size:6.12315273px;font-weight:bold;text-anchor:start;fill:#000000;stroke:none;font-family:Arial"
     transform="matrix(0.4018518,-0.91570472,0.91570472,0.4018518,0,0)"
     font-weight="bold"
     font-size="6px"
     id="text302">
    <tspan
       dy="2.2164538"
       id="tspan304">613</tspan>
  </text>
  <text
     x="-104.5106"
     y="522.66968"
     font="10px &quot;Arial&quot;"
     style="font-size:6.12332726px;font-weight:bold;text-anchor:start;fill:#000000;stroke:none;font-family:Arial"
     transform="matrix(0.38567268,-0.92263567,0.92263567,0.38567268,0,0)"
     font-weight="bold"
     font-size="6px"
     id="text306">
    <tspan
       dy="2.2165167"
       id="tspan308">511</tspan>
  </text>
  <text
     x="208.82996"
     y="-464.3414"
     font="10px &quot;Arial&quot;"
     style="font-size:6px;font-weight:bold;text-anchor:start;fill:#000000;stroke:none;font-family:Arial"
     transform="matrix(0,1,-1,0,0,0)"
     font-weight="bold"
     font-size="6px"
     id="text310">
    <tspan
       dy="2.21875"
       id="tspan312">506</tspan>
  </text>
  <text
     x="208.82996"
     y="-474.3414"
     font="10px &quot;Arial&quot;"
     style="font-size:6px;font-weight:bold;text-anchor:start;fill:#000000;stroke:none;font-family:Arial"
     transform="matrix(0,1,-1,0,0,0)"
     font-weight="bold"
     font-size="6px"
     id="text314">
    <tspan
       dy="2.21875"
       id="tspan316">607</tspan>
  </text>
  <text
     x="-228.2341"
     y="46.626968"
     font="10px &quot;Arial&quot;"
     style="font-size:5px;font-weight:bold;text-anchor:start;fill:#000000;stroke:none;font-family:Arial"
     transform="matrix(0,-1,1,0,0,0)"
     font-weight="bold"
     font-size="5px"
     id="text318">
    <tspan
       dy="1.6640625"
       id="tspan320">MOLSON CLUB</tspan>
  </text>
  <text
     x="-227.28168"
     y="36.42218"
     font="10px &quot;Arial&quot;"
     style="font-size:6px;font-weight:bold;text-anchor:start;fill:#000000;stroke:none;font-family:Arial"
     transform="matrix(0,-1,1,0,0,0)"
     font-weight="bold"
     font-size="6px"
     id="text322">
    <tspan
       dy="2.21875"
       id="tspan324">404 SUITE 405</tspan>
  </text>
  <text
     x="-227.28168"
     y="25.222183"
     font="10px &quot;Arial&quot;"
     style="font-size:6px;font-weight:bold;text-anchor:start;fill:#000000;stroke:none;font-family:Arial"
     transform="matrix(0,-1,1,0,0,0)"
     font-weight="bold"
     font-size="6px"
     id="text326">
    <tspan
       dy="2.21875"
       id="tspan328">515 SUITE 516</tspan>
  </text>
  <text
     x="-227.28168"
     y="13.022182"
     font="10px &quot;Arial&quot;"
     style="font-size:6px;font-weight:bold;text-anchor:start;fill:#000000;stroke:none;font-family:Arial"
     transform="matrix(0,-1,1,0,0,0)"
     font-weight="bold"
     font-size="6px"
     id="text330">
    <tspan
       dy="2.21875"
       id="tspan332">617 SUITE 618</tspan>
  </text>
  <text
     x="-111.15769"
     y="98.949463"
     font="10px &quot;Arial&quot;"
     style="font-size:6.00007105px;font-weight:bold;text-anchor:start;fill:#000000;stroke:none;font-family:Arial"
     transform="matrix(0.37779553,-0.92588905,0.92588905,0.37779553,0,0)"
     font-weight="bold"
     font-size="6px"
     id="text334">
    <tspan
       dy="2.2187762"
       id="tspan336">408</tspan>
  </text>
  <text
     x="-114.43278"
     y="87.217293"
     font="10px &quot;Arial&quot;"
     style="font-size:6.00007105px;font-weight:bold;text-anchor:start;fill:#000000;stroke:none;font-family:Arial"
     transform="matrix(0.37779553,-0.92588905,0.92588905,0.37779553,0,0)"
     font-weight="bold"
     font-size="6px"
     id="text338">
    <tspan
       dy="2.2187762"
       id="tspan340">519</tspan>
  </text>
  <text
     x="-117.61526"
     y="75.447342"
     font="10px &quot;Arial&quot;"
     style="font-size:6.00007105px;font-weight:bold;text-anchor:start;fill:#000000;stroke:none;font-family:Arial"
     transform="matrix(0.37779553,-0.92588905,0.92588905,0.37779553,0,0)"
     font-weight="bold"
     font-size="6px"
     id="text342">
    <tspan
       dy="2.2187762"
       id="tspan344">621</tspan>
  </text>
  <text
     x="280.33667"
     y="62.66774"
     font="10px &quot;Arial&quot;"
     style="font-size:5.99984694px;font-weight:bold;text-anchor:start;fill:#000000;stroke:none;font-family:Arial"
     transform="matrix(0.38760988,0.92182351,-0.92182351,0.38760988,0,0)"
     font-weight="bold"
     font-size="6px"
     id="text346">
    <tspan
       dy="2.2186935"
       id="tspan348">401</tspan>
  </text>
  <text
     x="275.63715"
     y="74.360237"
     font="10px &quot;Arial&quot;"
     style="font-size:5.99984694px;font-weight:bold;text-anchor:start;fill:#000000;stroke:none;font-family:Arial"
     transform="matrix(0.38760988,0.92182351,-0.92182351,0.38760988,0,0)"
     font-weight="bold"
     font-size="6px"
     id="text350">
    <tspan
       dy="2.2186935"
       id="tspan352">512</tspan>
  </text>
  <text
     x="244.88808"
     y="78.159248"
     font="10px &quot;Arial&quot;"
     style="font-size:5.00022268px;font-weight:bold;text-anchor:start;fill:#000000;stroke:none;font-family:Arial"
     transform="matrix(0.35998398,0.93295848,-0.93295848,0.35998398,0,0)"
     font-weight="bold"
     font-size="5px"
     id="text354">
    <tspan
       dy="1.6641365"
       id="tspan356">MOLSON CLUB</tspan>
  </text>
  <text
     x="159.52007"
     y="531.27094"
     font="10px &quot;Arial&quot;"
     style="font-size:6.12376118px;font-weight:bold;text-anchor:start;fill:#000000;stroke:none;font-family:Arial"
     transform="matrix(0.86358694,-0.50419995,0.50419995,0.86358694,0,0)"
     font-weight="bold"
     font-size="6px"
     id="text358">
    <tspan
       dy="2.2166739"
       id="tspan360">613A</tspan>
  </text>
  <text
     x="367.14871"
     y="-201.28741"
     font="10px &quot;Arial&quot;"
     style="font-size:6.12295961px;font-weight:bold;text-anchor:start;fill:#000000;stroke:none;font-family:Arial"
     transform="matrix(0.8126462,0.58275738,-0.58275738,0.8126462,0,0)"
     font-weight="bold"
     font-size="6px"
     id="text362">
    <tspan
       dy="2.2163839"
       id="tspan364">601A</tspan>
  </text>
  <text
     x="293.76022"
     y="400.77048"
     font="10px &quot;Arial&quot;"
     style="font-size:4.08239985px;font-weight:bold;text-anchor:start;fill:#000000;stroke:none;font-family:Arial"
     font-weight="bold"
     font-size="4px"
     id="text366">
    <tspan
       dy="1.1162813"
       id="tspan368">308S</tspan>
  </text>
  <text
     x="245.41025"
     y="400.77048"
     font="10px &quot;Arial&quot;"
     style="font-size:4.08239985px;font-weight:bold;text-anchor:start;fill:#000000;stroke:none;font-family:Arial"
     font-weight="bold"
     font-size="4px"
     id="text370">
    <tspan
       dy="1.1162813"
       id="tspan372">309S</tspan>
  </text>
  <text
     x="193.21025"
     y="400.77048"
     font="10px &quot;Arial&quot;"
     style="font-size:4.08239985px;font-weight:bold;text-anchor:start;fill:#000000;stroke:none;font-family:Arial"
     font-weight="bold"
     font-size="4px"
     id="text374">
    <tspan
       dy="1.1162813"
       id="tspan376">310S</tspan>
  </text>
  <text
     x="329.58148"
     y="400.77048"
     font="10px &quot;Arial&quot;"
     style="font-size:4.08239985px;font-weight:bold;text-anchor:start;fill:#000000;stroke:none;font-family:Arial"
     font-weight="bold"
     font-size="4px"
     id="text378">
    <tspan
       dy="1.1162813"
       id="tspan380">307S</tspan>
  </text>
  <text
     x="161.71025"
     y="400.77048"
     font="10px &quot;Arial&quot;"
     style="font-size:4.08239985px;font-weight:bold;text-anchor:start;fill:#000000;stroke:none;font-family:Arial"
     font-weight="bold"
     font-size="4px"
     id="text382">
    <tspan
       dy="1.1162813"
       id="tspan384">311S</tspan>
  </text>
  <text
     x="278.21411"
     y="241.75206"
     font="10px &quot;Arial&quot;"
     style="font-size:4.08226585px;font-weight:bold;text-anchor:start;fill:#000000;stroke:none;font-family:Arial"
     transform="matrix(0.77956703,0.62631881,-0.62631881,0.77956703,0,0)"
     font-weight="bold"
     font-size="4px"
     id="text386">
    <tspan
       dy="1.1162447"
       id="tspan388">312S</tspan>
  </text>
  <text
     x="289.82278"
     y="166.75482"
     font="10px &quot;Arial&quot;"
     style="font-size:4.08239174px;font-weight:bold;text-anchor:start;fill:#000000;stroke:none;font-family:Arial"
     transform="matrix(0.59523927,0.80354851,-0.80354851,0.59523927,0,0)"
     font-weight="bold"
     font-size="4px"
     id="text390">
    <tspan
       dy="1.116279"
       id="tspan392">313S</tspan>
  </text>
  <text
     x="293.5412"
     y="23.570488"
     font="10px &quot;Arial&quot;"
     style="font-size:4.08239985px;font-weight:bold;text-anchor:start;fill:#000000;stroke:none;font-family:Arial"
     font-weight="bold"
     font-size="4px"
     id="text394">
    <tspan
       dy="1.1162813"
       id="tspan396">322S</tspan>
  </text>
  <text
     x="241.94121"
     y="23.570488"
     font="10px &quot;Arial&quot;"
     style="font-size:4.08239985px;font-weight:bold;text-anchor:start;fill:#000000;stroke:none;font-family:Arial"
     font-weight="bold"
     font-size="4px"
     id="text398">
    <tspan
       dy="1.1162813"
       id="tspan400">321S</tspan>
  </text>
  <text
     x="194.44121"
     y="23.570488"
     font="10px &quot;Arial&quot;"
     style="font-size:4.08239985px;font-weight:bold;text-anchor:start;fill:#000000;stroke:none;font-family:Arial"
     font-weight="bold"
     font-size="4px"
     id="text402">
    <tspan
       dy="1.1162813"
       id="tspan404">320S</tspan>
  </text>
  <text
     x="332.14117"
     y="23.570488"
     font="10px &quot;Arial&quot;"
     style="font-size:4.08239985px;font-weight:bold;text-anchor:start;fill:#000000;stroke:none;font-family:Arial"
     font-weight="bold"
     font-size="4px"
     id="text406">
    <tspan
       dy="1.1162813"
       id="tspan408">323S</tspan>
  </text>
  <text
     x="-54.58897"
     y="84.848923"
     font="10px &quot;Arial&quot;"
     style="font-size:4.08230019px;font-weight:bold;text-anchor:start;fill:#000000;stroke:none;font-family:Arial"
     transform="matrix(0.57007075,-0.82159561,0.82159561,0.57007075,0,0)"
     font-weight="bold"
     font-size="4px"
     id="text410">
    <tspan
       dy="1.116254"
       id="tspan412">317S</tspan>
  </text>
  <text
     x="161.69121"
     y="23.570488"
     font="10px &quot;Arial&quot;"
     style="font-size:4.08239985px;font-weight:bold;text-anchor:start;fill:#000000;stroke:none;font-family:Arial"
     font-weight="bold"
     font-size="4px"
     id="text414">
    <tspan
       dy="1.1162813"
       id="tspan416">319S</tspan>
  </text>
  <text
     x="-6.7452121"
     y="89.728271"
     font="10px &quot;Arial&quot;"
     style="font-size:4.08258247px;font-weight:bold;text-anchor:start;fill:#000000;stroke:none;font-family:Arial"
     transform="matrix(0.70984482,-0.7043581,0.7043581,0.70984482,0,0)"
     font-weight="bold"
     font-size="4px"
     id="text418">
    <tspan
       dy="1.1163311"
       id="tspan420">318S</tspan>
  </text>
  <text
     x="220.64481"
     y="180.40921"
     font="10px &quot;Arial&quot;"
     style="font-size:4.08239985px;font-weight:bold;text-anchor:start;fill:#000000;stroke:none;font-family:Arial"
     font-weight="bold"
     font-size="4px"
     id="text422">
    <tspan
       dy="1.1162813"
       id="tspan424">NORTH</tspan>
  </text>
  <text
     x="264.49472"
     y="180.40921"
     font="10px &quot;Arial&quot;"
     style="font-size:4.08239985px;font-weight:bold;text-anchor:start;fill:#000000;stroke:none;font-family:Arial"
     font-weight="bold"
     font-size="4px"
     id="text426">
    <tspan
       dy="1.1162813"
       id="tspan428">NORTH</tspan>
  </text>
  <text
     x="205.2926"
     y="-306.74075"
     font="10px &quot;Arial&quot;"
     style="font-size:6.12360001px;font-weight:bold;text-anchor:start;fill:#000000;stroke:none;font-family:Arial"
     transform="matrix(0,1,-1,0,0,0)"
     font-weight="bold"
     font-size="6px"
     id="text430">
    <tspan
       dy="2.2166157"
       id="tspan432">EAST</tspan>
  </text>
  <text
     x="-223.57669"
     y="192.61253"
     font="10px &quot;Arial&quot;"
     style="font-size:6.12360001px;font-weight:bold;text-anchor:start;fill:#000000;stroke:none;font-family:Arial"
     transform="matrix(0,-1,1,0,0,0)"
     font-weight="bold"
     font-size="6px"
     id="text434">
    <tspan
       dy="2.2166157"
       id="tspan436">WEST</tspan>
  </text>
  <text
     x="238.33879"
     y="246.19107"
     font="10px &quot;Arial&quot;"
     style="font-size:6.12360001px;font-weight:bold;text-anchor:start;fill:#000000;stroke:none;font-family:Arial"
     font-weight="bold"
     font-size="6px"
     id="text438">
    <tspan
       dy="2.2166157"
       id="tspan440">SOUTH</tspan>
  </text>
  <text
     x="238.46561"
     y="178.0824"
     font="10px &quot;Arial&quot;"
     style="font-size:4.08239985px;text-anchor:start;fill:#000000;stroke:none;font-family:Arial"
     font-weight="Bold"
     font-size="4px"
     id="text442">
    <tspan
       dy="1.1162813"
       id="tspan444">B</tspan>
  </text>
  <text
     x="238.46561"
     y="182.16479"
     font="10px &quot;Arial&quot;"
     style="font-size:4.08239985px;text-anchor:start;fill:#000000;stroke:none;font-family:Arial"
     font-weight="Bold"
     font-size="4px"
     id="text446">
    <tspan
       dy="1.1162813"
       id="tspan448">A</tspan>
  </text>
  <text
     x="257.98767"
     y="178.0824"
     font="10px &quot;Arial&quot;"
     style="font-size:4.08239985px;text-anchor:start;fill:#000000;stroke:none;font-family:Arial"
     font-weight="Bold"
     font-size="4px"
     id="text450">
    <tspan
       dy="1.1162813"
       id="tspan452">B</tspan>
  </text>
  <text
     x="257.98767"
     y="182.16479"
     font="10px &quot;Arial&quot;"
     style="font-size:4.08239985px;text-anchor:start;fill:#000000;stroke:none;font-family:Arial"
     font-weight="Bold"
     font-size="4px"
     id="text454">
    <tspan
       dy="1.1162813"
       id="tspan456">A</tspan>
  </text>
  <text
     x="309.00311"
     y="244.38239"
     font="10px &quot;Arial&quot;"
     style="font-size:4.08239985px;text-anchor:start;fill:#000000;stroke:none;font-family:Arial"
     font-weight="Bold"
     font-size="4px"
     id="text458">
    <tspan
       dy="1.1162813"
       id="tspan460">A</tspan>
  </text>
  <text
     x="309.00311"
     y="248.46481"
     font="10px &quot;Arial&quot;"
     style="font-size:4.08239985px;text-anchor:start;fill:#000000;stroke:none;font-family:Arial"
     font-weight="Bold"
     font-size="4px"
     id="text462">
    <tspan
       dy="1.1162813"
       id="tspan464">C</tspan>
  </text>
  <text
     x="187.95314"
     y="244.38239"
     font="10px &quot;Arial&quot;"
     style="font-size:4.08239985px;text-anchor:start;fill:#000000;stroke:none;font-family:Arial"
     font-weight="Bold"
     font-size="4px"
     id="text466">
    <tspan
       dy="1.1162813"
       id="tspan468">A</tspan>
  </text>
  <text
     x="187.95314"
     y="248.46481"
     font="10px &quot;Arial&quot;"
     style="font-size:4.08239985px;text-anchor:start;fill:#000000;stroke:none;font-family:Arial"
     font-weight="Bold"
     font-size="4px"
     id="text470">
    <tspan
       dy="1.1162813"
       id="tspan472">C</tspan>
  </text>
  <text
     x="189.35782"
     y="236.65384"
     font="10px &quot;Arial&quot;"
     style="font-size:4.08239985px;text-anchor:start;fill:#000000;stroke:none;font-family:Arial"
     font-weight="Bold"
     font-size="4px"
     id="text474">
    <tspan
       dy="1.1162813"
       id="tspan476">CA</tspan>
  </text>
  <text
     x="304.3075"
     y="190.05916"
     font="10px &quot;Arial&quot;"
     style="font-size:4.08239985px;text-anchor:start;fill:#000000;stroke:none;font-family:Arial"
     font-weight="Bold"
     font-size="4px"
     id="text478">
    <tspan
       dy="1.1162813"
       id="tspan480">AC</tspan>
  </text>
  <text
     x="222.27927"
     y="158.29028"
     font="10px &quot;Arial&quot;"
     style="font-size:5.10300016px;font-weight:bold;text-anchor:start;fill:#000000;stroke:none;font-family:Arial"
     font-weight="bold"
     font-size="5px"
     id="text482">
    <tspan
       dy="1.658475"
       id="tspan484">PLATINUM LOUNGE N</tspan>
  </text>
  <text
     x="221.22926"
     y="267.19028"
     font="10px &quot;Arial&quot;"
     style="font-size:5.10300016px;font-weight:bold;text-anchor:start;fill:#000000;stroke:none;font-family:Arial"
     font-weight="bold"
     font-size="5px"
     id="text486">
    <tspan
       dy="1.658475"
       id="tspan488">PLATINUM LOUNGE S</tspan>
  </text>
  <text
     x="358.34119"
     y="167.17661"
     font="10px &quot;Arial&quot;"
     style="font-size:18.37080002px;font-weight:bold;text-anchor:start;fill:#000000;stroke:none;font-family:Arial"
     font-weight="bold"
     font-size="18px"
     id="text490">
    <tspan
       dy="6.1156263"
       id="tspan492">101</tspan>
  </text>
  <text
     x="358.34119"
     y="259.8266"
     font="10px &quot;Arial&quot;"
     style="font-size:18.37080002px;font-weight:bold;text-anchor:start;fill:#000000;stroke:none;font-family:Arial"
     font-weight="bold"
     font-size="18px"
     id="text494">
    <tspan
       dy="6.1156263"
       id="tspan496">104</tspan>
  </text>
  <text
     x="363.44119"
     y="231.7766"
     font="10px &quot;Arial&quot;"
     style="font-size:18.37080002px;font-weight:bold;text-anchor:start;fill:#000000;stroke:none;font-family:Arial"
     font-weight="bold"
     font-size="18px"
     id="text498">
    <tspan
       dy="6.1156263"
       id="tspan500">103</tspan>
  </text>
  <text
     x="363.44119"
     y="197.2766"
     font="10px &quot;Arial&quot;"
     style="font-size:18.37080002px;font-weight:bold;text-anchor:start;fill:#000000;stroke:none;font-family:Arial"
     font-weight="bold"
     font-size="18px"
     id="text502">
    <tspan
       dy="6.1156263"
       id="tspan504">102</tspan>
  </text>
  <text
     x="343.14236"
     y="286.78275"
     font="10px &quot;Arial&quot;"
     style="font-size:16.32959938px;font-weight:bold;text-anchor:start;fill:#000000;stroke:none;font-family:Arial"
     font-weight="bold"
     font-size="16px"
     id="text506">
    <tspan
       dy="5.5495124"
       id="tspan508">105</tspan>
  </text>
  <text
     x="311.5412"
     y="294.85599"
     font="10px &quot;Arial&quot;"
     style="font-size:16.32959938px;font-weight:bold;text-anchor:start;fill:#000000;stroke:none;font-family:Arial"
     font-weight="bold"
     font-size="16px"
     id="text510">
    <tspan
       dy="5.5495124"
       id="tspan512">106</tspan>
  </text>
  <text
     x="341.89117"
     y="140.65958"
     font="10px &quot;Arial&quot;"
     style="font-size:16.32959938px;font-weight:bold;text-anchor:start;fill:#000000;stroke:none;font-family:Arial"
     font-weight="bold"
     font-size="16px"
     id="text514">
    <tspan
       dy="5.5495124"
       id="tspan516">122</tspan>
  </text>
  <text
     x="311.74121"
     y="130.356"
     font="10px &quot;Arial&quot;"
     style="font-size:16.32959938px;font-weight:bold;text-anchor:start;fill:#000000;stroke:none;font-family:Arial"
     font-weight="bold"
     font-size="16px"
     id="text518">
    <tspan
       dy="5.5495124"
       id="tspan520">121</tspan>
  </text>
  <text
     x="273.1412"
     y="127.0766"
     font="10px &quot;Arial&quot;"
     style="font-size:18.37080002px;font-weight:bold;text-anchor:start;fill:#000000;stroke:none;font-family:Arial"
     font-weight="bold"
     font-size="18px"
     id="text522">
    <tspan
       dy="6.1156263"
       id="tspan524">120</tspan>
  </text>
  <text
     x="233.3412"
     y="125.5766"
     font="10px &quot;Arial&quot;"
     style="font-size:18.37080002px;font-weight:bold;text-anchor:start;fill:#000000;stroke:none;font-family:Arial"
     font-weight="bold"
     font-size="18px"
     id="text526">
    <tspan
       dy="6.1156263"
       id="tspan528">119</tspan>
  </text>
  <text
     x="193.2412"
     y="127.0766"
     font="10px &quot;Arial&quot;"
     style="font-size:18.37080002px;font-weight:bold;text-anchor:start;fill:#000000;stroke:none;font-family:Arial"
     font-weight="bold"
     font-size="18px"
     id="text530">
    <tspan
       dy="6.1156263"
       id="tspan532">118</tspan>
  </text>
  <text
     x="272.59119"
     y="298.87659"
     font="10px &quot;Arial&quot;"
     style="font-size:18.37080002px;font-weight:bold;text-anchor:start;fill:#000000;stroke:none;font-family:Arial"
     font-weight="bold"
     font-size="18px"
     id="text534">
    <tspan
       dy="6.1156263"
       id="tspan536">107</tspan>
  </text>
  <text
     x="230.9912"
     y="300.87659"
     font="10px &quot;Arial&quot;"
     style="font-size:18.37080002px;font-weight:bold;text-anchor:start;fill:#000000;stroke:none;font-family:Arial"
     font-weight="bold"
     font-size="18px"
     id="text538">
    <tspan
       dy="6.1156263"
       id="tspan540">108</tspan>
  </text>
  <text
     x="193.4912"
     y="298.87659"
     font="10px &quot;Arial&quot;"
     style="font-size:18.37080002px;font-weight:bold;text-anchor:start;fill:#000000;stroke:none;font-family:Arial"
     font-weight="bold"
     font-size="18px"
     id="text542">
    <tspan
       dy="6.1156263"
       id="tspan544">109</tspan>
  </text>
  <text
     x="157.5912"
     y="293.85599"
     font="10px &quot;Arial&quot;"
     style="font-size:16.32959938px;font-weight:bold;text-anchor:start;fill:#000000;stroke:none;font-family:Arial"
     font-weight="bold"
     font-size="16px"
     id="text546">
    <tspan
       dy="5.5495124"
       id="tspan548">110</tspan>
  </text>
  <text
     x="127.9912"
     y="282.81314"
     font="10px &quot;Arial&quot;"
     style="font-size:16.32959938px;font-weight:bold;text-anchor:start;fill:#000000;stroke:none;font-family:Arial"
     font-weight="bold"
     font-size="16px"
     id="text550">
    <tspan
       dy="5.5495124"
       id="tspan552">111</tspan>
  </text>
  <text
     x="112.8412"
     y="255.42661"
     font="10px &quot;Arial&quot;"
     style="font-size:18.37080002px;font-weight:bold;text-anchor:start;fill:#000000;stroke:none;font-family:Arial"
     font-weight="bold"
     font-size="18px"
     id="text554">
    <tspan
       dy="6.1156263"
       id="tspan556">112</tspan>
  </text>
  <text
     x="112.8412"
     y="167.3766"
     font="10px &quot;Arial&quot;"
     style="font-size:18.37080002px;font-weight:bold;text-anchor:start;fill:#000000;stroke:none;font-family:Arial"
     font-weight="bold"
     font-size="18px"
     id="text558">
    <tspan
       dy="6.1156263"
       id="tspan560">115</tspan>
  </text>
  <text
     x="107.7412"
     y="196.5266"
     font="10px &quot;Arial&quot;"
     style="font-size:18.37080002px;font-weight:bold;text-anchor:start;fill:#000000;stroke:none;font-family:Arial"
     font-weight="bold"
     font-size="18px"
     id="text562">
    <tspan
       dy="6.1156263"
       id="tspan564">114</tspan>
  </text>
  <text
     x="107.7412"
     y="229.67661"
     font="10px &quot;Arial&quot;"
     style="font-size:18.37080002px;font-weight:bold;text-anchor:start;fill:#000000;stroke:none;font-family:Arial"
     font-weight="bold"
     font-size="18px"
     id="text566">
    <tspan
       dy="6.1156263"
       id="tspan568">113</tspan>
  </text>
  <text
     x="131.89354"
     y="141.97026"
     font="10px &quot;Arial&quot;"
     style="font-size:16.32959938px;font-weight:bold;text-anchor:start;fill:#000000;stroke:none;font-family:Arial"
     font-weight="bold"
     font-size="16px"
     id="text570">
    <tspan
       dy="5.5495124"
       id="tspan572">116</tspan>
  </text>
  <text
     x="157.94119"
     y="128.556"
     font="10px &quot;Arial&quot;"
     style="font-size:16.32959938px;font-weight:bold;text-anchor:start;fill:#000000;stroke:none;font-family:Arial"
     font-weight="bold"
     font-size="16px"
     id="text574">
    <tspan
       dy="5.5495124"
       id="tspan576">117</tspan>
  </text>
  <text
     x="189.81738"
     y="169.68396"
     font="10px &quot;Arial&quot;"
     style="font-size:6.12360001px;text-anchor:start;fill:#000000;stroke:none;font-family:Arial"
     font-weight="Bold"
     font-size="6px"
     id="text578">
    <tspan
       dy="2.2166157"
       id="tspan580">1</tspan>
  </text>
  <text
     x="303.6412"
     y="257.80301"
     font="10px &quot;Arial&quot;"
     style="font-size:6.12360001px;text-anchor:start;fill:#000000;stroke:none;font-family:Arial"
     font-weight="Bold"
     font-size="6px"
     id="text582">
    <tspan
       dy="2.2166157"
       id="tspan584">1</tspan>
  </text>
  <text
     x="176.7912"
     y="208.75301"
     font="10px &quot;Arial&quot;"
     style="font-size:6.12360001px;text-anchor:start;fill:#000000;stroke:none;font-family:Arial"
     font-weight="Bold"
     font-size="6px"
     id="text586">
    <tspan
       dy="2.2166157"
       id="tspan588">1</tspan>
  </text>
  <text
     x="315.3912"
     y="196.00301"
     font="10px &quot;Arial&quot;"
     style="font-size:6.12360001px;text-anchor:start;fill:#000000;stroke:none;font-family:Arial"
     font-weight="Bold"
     font-size="6px"
     id="text590">
    <tspan
       dy="2.2166157"
       id="tspan592">1</tspan>
  </text>
  <text
     x="303.84589"
     y="168.0224"
     font="10px &quot;Arial&quot;"
     style="font-size:8.16479969px;text-anchor:start;fill:#000000;stroke:none;font-family:Arial"
     font-weight="Bold"
     font-size="8px"
     id="text594">
    <tspan
       dy="2.7667828"
       id="tspan596">1</tspan>
  </text>
  <text
     x="298.76794"
     y="101.3736"
     font="10px &quot;Arial&quot;"
     style="font-size:8.16479969px;text-anchor:start;fill:#000000;stroke:none;font-family:Arial"
     font-weight="Bold"
     font-size="8px"
     id="text598">
    <tspan
       dy="2.7667828"
       id="tspan600">28</tspan>
  </text>
  <text
     x="177.83643"
     y="219.04263"
     font="10px &quot;Arial&quot;"
     style="font-size:8.16479969px;text-anchor:start;fill:#000000;stroke:none;font-family:Arial"
     font-weight="Bold"
     font-size="8px"
     id="text602">
    <tspan
       dy="2.7667828"
       id="tspan604">B</tspan>
  </text>
  <text
     x="93.986412"
     y="219.04263"
     font="10px &quot;Arial&quot;"
     style="font-size:8.16479969px;text-anchor:start;fill:#000000;stroke:none;font-family:Arial"
     font-weight="Bold"
     font-size="8px"
     id="text606">
    <tspan
       dy="2.7667828"
       id="tspan608">28</tspan>
  </text>
  <text
     x="190.45547"
     y="258.27359"
     font="10px &quot;Arial&quot;"
     style="font-size:8.16479969px;text-anchor:start;fill:#000000;stroke:none;font-family:Arial"
     font-weight="Bold"
     font-size="8px"
     id="text610">
    <tspan
       dy="2.7667828"
       id="tspan612">1</tspan>
  </text>
  <text
     x="190.1412"
     y="325.17361"
     font="10px &quot;Arial&quot;"
     style="font-size:8.16479969px;text-anchor:start;fill:#000000;stroke:none;font-family:Arial"
     font-weight="Bold"
     font-size="8px"
     id="text614">
    <tspan
       dy="2.7667828"
       id="tspan616">28</tspan>
  </text>
  <text
     x="401.29477"
     y="220.97476"
     font="10px &quot;Arial&quot;"
     style="font-size:8.16479969px;text-anchor:start;fill:#000000;stroke:none;font-family:Arial"
     font-weight="Bold"
     font-size="8px"
     id="text618">
    <tspan
       dy="2.7667828"
       id="tspan620">32</tspan>
  </text>
  <text
     x="317.24478"
     y="220.97476"
     font="10px &quot;Arial&quot;"
     style="font-size:8.16479969px;text-anchor:start;fill:#000000;stroke:none;font-family:Arial"
     font-weight="Bold"
     font-size="8px"
     id="text622">
    <tspan
       dy="2.7667828"
       id="tspan624">B</tspan>
  </text>
  <text
     x="201.80634"
     y="182.14886"
     font="10px &quot;Arial&quot;"
     style="font-size:3.0618px;font-weight:bold;text-anchor:start;fill:#ffffff;stroke:none;font-family:Arial"
     font-weight="bold"
     font-size="3px"
     id="text626">
    <tspan
       dy="0.5501672"
       id="tspan628">RAPTORS</tspan>
  </text>
  <text
     x="283.36911"
     y="182.16165"
     font="10px &quot;Arial&quot;"
     style="font-size:3.0618px;font-weight:bold;text-anchor:start;fill:#ffffff;stroke:none;font-family:Arial"
     font-weight="bold"
     font-size="3px"
     id="text630">
    <tspan
       dy="0.5501672"
       id="tspan632">VISITOR</tspan>
  </text>
  <text
     x="338.82156"
     y="157.04681"
     font="10px &quot;Arial&quot;"
     style="font-size:8.16479969px;text-anchor:start;fill:#000000;stroke:none;font-family:Arial"
     font-weight="Bold"
     font-size="8px"
     id="text634">
    <tspan
       dy="2.7667828"
       id="tspan636">9</tspan>
  </text>
  <text
     x="366.1947"
     y="125.748"
     font="10px &quot;Arial&quot;"
     style="font-size:8.16479969px;text-anchor:start;fill:#000000;stroke:none;font-family:Arial"
     font-weight="Bold"
     font-size="8px"
     id="text638">
    <tspan
       dy="2.7667828"
       id="tspan640">30</tspan>
  </text>
  <text
     x="155.88641"
     y="157.29265"
     font="10px &quot;Arial&quot;"
     style="font-size:8.16479969px;text-anchor:start;fill:#000000;stroke:none;font-family:Arial"
     font-weight="Bold"
     font-size="8px"
     id="text642">
    <tspan
       dy="2.7667828"
       id="tspan644">9</tspan>
  </text>
  <text
     x="126.3412"
     y="123.2236"
     font="10px &quot;Arial&quot;"
     style="font-size:8.16479969px;text-anchor:start;fill:#000000;stroke:none;font-family:Arial"
     font-weight="Bold"
     font-size="8px"
     id="text646">
    <tspan
       dy="2.7667828"
       id="tspan648">30</tspan>
  </text>
  <text
     x="339.24835"
     y="269.09561"
     font="10px &quot;Arial&quot;"
     style="font-size:8.16479969px;text-anchor:start;fill:#000000;stroke:none;font-family:Arial"
     font-weight="Bold"
     font-size="8px"
     id="text650">
    <tspan
       dy="2.7667828"
       id="tspan652">9</tspan>
  </text>
  <text
     x="363.59119"
     y="301.9736"
     font="10px &quot;Arial&quot;"
     style="font-size:8.16479969px;text-anchor:start;fill:#000000;stroke:none;font-family:Arial"
     font-weight="Bold"
     font-size="8px"
     id="text654">
    <tspan
       dy="2.7667828"
       id="tspan656">30</tspan>
  </text>
  <text
     x="123.6412"
     y="299.92361"
     font="10px &quot;Arial&quot;"
     style="font-size:8.16479969px;text-anchor:start;fill:#000000;stroke:none;font-family:Arial"
     font-weight="Bold"
     font-size="8px"
     id="text658">
    <tspan
       dy="2.7667828"
       id="tspan660">28</tspan>
  </text>
  <text
     x="154.84355"
     y="267.65457"
     font="10px &quot;Arial&quot;"
     style="font-size:8.16479969px;text-anchor:start;fill:#000000;stroke:none;font-family:Arial"
     font-weight="Bold"
     font-size="8px"
     id="text662">
    <tspan
       dy="2.7667828"
       id="tspan664">9</tspan>
  </text>
  <text
     x="154.65547"
     y="219.04263"
     font="10px &quot;Arial&quot;"
     style="font-size:8.16479969px;text-anchor:start;fill:#000000;stroke:none;font-family:Arial"
     font-weight="Bold"
     font-size="8px"
     id="text666">
    <tspan
       dy="2.7667828"
       id="tspan668">1</tspan>
  </text>
  <text
     x="159.53642"
     y="219.04263"
     font="10px &quot;Arial&quot;"
     style="font-size:8.16479969px;text-anchor:start;fill:#000000;stroke:none;font-family:Arial"
     font-weight="Bold"
     font-size="8px"
     id="text670">
    <tspan
       dy="2.7667828"
       id="tspan672">F</tspan>
  </text>
  <text
     x="338.52155"
     y="221.02478"
     font="10px &quot;Arial&quot;"
     style="font-size:8.16479969px;text-anchor:start;fill:#000000;stroke:none;font-family:Arial"
     font-weight="Bold"
     font-size="8px"
     id="text674">
    <tspan
       dy="2.7667828"
       id="tspan676">F</tspan>
  </text>
  <text
     x="343.47153"
     y="221.02478"
     font="10px &quot;Arial&quot;"
     style="font-size:8.16479969px;text-anchor:start;fill:#000000;stroke:none;font-family:Arial"
     font-weight="Bold"
     font-size="8px"
     id="text678">
    <tspan
       dy="2.7667828"
       id="tspan680">1</tspan>
  </text>
  <text
     x="451.74887"
     y="229.33994"
     font="10px &quot;Arial&quot;"
     style="font-size:8.16479969px;text-anchor:start;fill:#000000;stroke:none;overflow:hidden;font-family:Arial"
     font-weight="Bold"
     font-size="8px"
     id="text170-1">
    <tspan
       id="tspan172-7">6</tspan>
  </text>
</svg>
